<svg id="组_1" data-name="组 1" xmlns="http://www.w3.org/2000/svg" xmlns:xlink="http://www.w3.org/1999/xlink" viewBox="0 0 924.833 722.456"><defs><style>.cls-1,.cls-4{fill:none;}.cls-2{fill:#d0eae5;}.cls-3{fill:#eaeaea;}.cls-4,.cls-6{stroke:#adadad;stroke-miterlimit:10;}.cls-5{clip-path:url(#clip-path);}.cls-6{fill:#fff;}.cls-7{clip-path:url(#clip-path-2);}.cls-8{clip-path:url(#clip-path-3);}.cls-9{clip-path:url(#clip-path-4);}.cls-10{clip-path:url(#clip-path-5);}.cls-11{clip-path:url(#clip-path-6);}.cls-12{clip-path:url(#clip-path-7);}.cls-13{clip-path:url(#clip-path-8);}.cls-14{clip-path:url(#clip-path-9);}.cls-15{clip-path:url(#clip-path-10);}.cls-16{clip-path:url(#clip-path-11);}.cls-17{clip-path:url(#clip-path-12);}.cls-18{clip-path:url(#clip-path-13);}.cls-19{clip-path:url(#clip-path-14);}.cls-20{clip-path:url(#clip-path-15);}.cls-21{clip-path:url(#clip-path-16);}.cls-22{clip-path:url(#clip-path-17);}.cls-23{clip-path:url(#clip-path-18);}.cls-24{clip-path:url(#clip-path-19);}.cls-25{clip-path:url(#clip-path-20);}.cls-26{clip-path:url(#clip-path-21);}.cls-27{clip-path:url(#clip-path-22);}.cls-28{clip-path:url(#clip-path-23);}.cls-29{clip-path:url(#clip-path-24);}.cls-30{clip-path:url(#clip-path-25);}.cls-31{clip-path:url(#clip-path-26);}.cls-32{clip-path:url(#clip-path-27);}.cls-33{clip-path:url(#clip-path-28);}.cls-34{clip-path:url(#clip-path-29);}.cls-35{clip-path:url(#clip-path-30);}.cls-36{clip-path:url(#clip-path-31);}.cls-37{clip-path:url(#clip-path-32);}.cls-38{clip-path:url(#clip-path-33);}.cls-39{clip-path:url(#clip-path-34);}</style><clipPath id="clip-path" transform="translate(-251.369 -181.103)"><rect class="cls-1" x="1112.108" y="620.392" width="64.314" height="39.458" transform="translate(1784.386 -504.144) rotate(90)"/></clipPath><clipPath id="clip-path-2" transform="translate(-251.369 -181.103)"><rect class="cls-1" x="850.265" y="193.256" width="45.875" height="21.75" transform="translate(1077.333 -669.072) rotate(90)"/></clipPath><clipPath id="clip-path-3" transform="translate(-251.369 -181.103)"><rect class="cls-1" x="462.869" y="458.964" width="68.5" height="38.833" transform="translate(975.5 -18.739) rotate(90)"/></clipPath><clipPath id="clip-path-4" transform="translate(-251.369 -181.103)"><rect class="cls-1" x="394.619" y="607.547" width="29.667" height="71.833" transform="translate(1052.917 234.011) rotate(90)"/></clipPath><clipPath id="clip-path-5" transform="translate(-251.369 -181.103)"><rect class="cls-1" x="236.328" y="540.131" width="71.75" height="33.25" transform="translate(828.958 284.553) rotate(90)"/></clipPath><clipPath id="clip-path-6" transform="translate(-251.369 -181.103)"><polygon class="cls-1" points="611.89 206.818 611.89 185.693 656.64 185.693 656.64 205.568 611.89 206.818"/></clipPath><clipPath id="clip-path-7" transform="translate(-251.369 -181.103)"><polygon class="cls-1" points="782.557 201.858 782.557 180.733 827.307 180.733 827.307 200.608 782.557 201.858"/></clipPath><clipPath id="clip-path-8" transform="translate(-251.369 -181.103)"><polygon class="cls-1" points="928.182 197.4 928.182 176.275 972.932 176.275 972.932 196.15 928.182 197.4"/></clipPath><clipPath id="clip-path-9" transform="translate(-251.369 -181.103)"><rect class="cls-1" x="1016.453" y="230.131" width="34.125" height="48.625" transform="translate(1287.958 -779.072) rotate(90)"/></clipPath><clipPath id="clip-path-10" transform="translate(-251.369 -181.103)"><polygon class="cls-1" points="398.494 213.304 374.996 213.639 379.541 190.33 399.623 190.475 398.494 213.304"/></clipPath><clipPath id="clip-path-11" transform="translate(-251.369 -181.103)"><rect class="cls-1" x="851.671" y="279.599" width="50.938" height="29.375" transform="translate(1171.427 -582.853) rotate(90)"/></clipPath><clipPath id="clip-path-12" transform="translate(-251.369 -181.103)"><rect class="cls-1" x="1034.953" y="263.797" width="44.5" height="29.5" transform="translate(1335.75 -778.655) rotate(90)"/></clipPath><clipPath id="clip-path-13" transform="translate(-251.369 -181.103)"><rect class="cls-1" x="1142.411" y="608.46" width="43.167" height="21.75" transform="translate(1783.329 -544.659) rotate(90)"/></clipPath><clipPath id="clip-path-14" transform="translate(-251.369 -181.103)"><rect class="cls-1" x="1038.095" y="620.502" width="64.314" height="39.458" transform="translate(1710.483 -430.021) rotate(90)"/></clipPath><clipPath id="clip-path-15" transform="translate(-251.369 -181.103)"><rect class="cls-1" x="1006.375" y="355.491" width="56.625" height="27.03" transform="translate(1403.693 -665.682) rotate(90)"/></clipPath><clipPath id="clip-path-16" transform="translate(-251.369 -181.103)"><rect class="cls-1" x="969.856" y="468.604" width="55.727" height="27.03" transform="translate(1479.838 -515.6) rotate(90)"/></clipPath><clipPath id="clip-path-17" transform="translate(-251.369 -181.103)"><rect class="cls-1" x="874.185" y="381.274" width="36.995" height="18.594" transform="translate(1283.253 -502.111) rotate(90)"/></clipPath><clipPath id="clip-path-18" transform="translate(-251.369 -181.103)"><rect class="cls-1" x="1019.859" y="415.849" width="36.375" height="20.313" transform="translate(1464.052 -612.041) rotate(90)"/></clipPath><clipPath id="clip-path-19" transform="translate(-251.369 -181.103)"><rect class="cls-1" x="1016.765" y="421.818" width="24.375" height="40.5" transform="translate(1471.021 -586.884) rotate(90)"/></clipPath><clipPath id="clip-path-20" transform="translate(-251.369 -181.103)"><rect class="cls-1" x="1017.765" y="574.193" width="24.375" height="40.5" transform="translate(1624.396 -435.509) rotate(90)"/></clipPath><clipPath id="clip-path-21" transform="translate(-251.369 -181.103)"><rect class="cls-1" x="1001.421" y="408.787" width="35.25" height="20.313" transform="translate(1437.99 -600.103) rotate(90)"/></clipPath><clipPath id="clip-path-22" transform="translate(-251.369 -181.103)"><rect class="cls-1" x="1035.546" y="506.055" width="44.5" height="29.5" transform="translate(1578.601 -536.992) rotate(90)"/></clipPath><clipPath id="clip-path-23" transform="translate(-251.369 -181.103)"><rect class="cls-1" x="1035.923" y="542.504" width="44.5" height="29.5" transform="translate(1615.427 -500.919) rotate(90)"/></clipPath><clipPath id="clip-path-24" transform="translate(-251.369 -181.103)"><rect class="cls-1" x="893.682" y="448.443" width="34.313" height="20.313" transform="translate(1369.438 -452.239) rotate(90)"/></clipPath><clipPath id="clip-path-25" transform="translate(-251.369 -181.103)"><rect class="cls-1" x="884.619" y="497.971" width="34" height="22.962"/></clipPath><clipPath id="clip-path-26" transform="translate(-251.369 -181.103)"><rect class="cls-1" x="705.637" y="488.91" width="55.727" height="27.03" transform="translate(1235.925 -231.076) rotate(90)"/></clipPath><clipPath id="clip-path-27" transform="translate(-251.369 -181.103)"><rect class="cls-1" x="567.264" y="458.833" width="34.355" height="20.313" transform="translate(1168.884 937.979) rotate(180)"/></clipPath><clipPath id="clip-path-28" transform="translate(-251.369 -181.103)"><rect class="cls-1" x="580.38" y="549.079" width="35.958" height="20.312" transform="translate(1157.594 -39.124) rotate(90)"/></clipPath><clipPath id="clip-path-29" transform="translate(-251.369 -181.103)"><rect class="cls-1" x="471.685" y="442.177" width="34.355" height="20.313"/></clipPath><clipPath id="clip-path-30" transform="translate(-251.369 -181.103)"><rect class="cls-1" x="447.518" y="335.01" width="34.355" height="20.313"/></clipPath><clipPath id="clip-path-31" transform="translate(-251.369 -181.103)"><rect class="cls-1" x="447.518" y="286.76" width="34.355" height="20.313"/></clipPath><clipPath id="clip-path-32" transform="translate(-251.369 -181.103)"><rect class="cls-1" x="416.05" y="273.114" width="34.355" height="20.313"/></clipPath><clipPath id="clip-path-33" transform="translate(-251.369 -181.103)"><rect class="cls-1" x="417.372" y="349.042" width="34.355" height="20.313"/></clipPath><clipPath id="clip-path-34" transform="translate(-251.369 -181.103)"><rect class="cls-1" x="382.453" y="822.547" width="62.667" height="26.167" transform="translate(1249.417 421.845) rotate(90)"/></clipPath></defs><title>会议_2栋1楼</title><path class="cls-2" d="M261.682,215.318v72.667l24.188-.187.978,168.436,68.168,2.085v3.605l-65.48-.208,1.266,195.2-31.118-3.435-2.168,215.834,29.265,2.5.235,31.165,756.667-51V816.318h60.667v30l65.832-2.333V289.652s-4.165-16.5-22.165-18.667a142.253,142.253,0,0,0-32-.333l-107.768,1L1006.7,190.9,540.348,204.652Z" transform="translate(-251.369 -181.103)"/><path class="cls-3" d="M1045.911,852.559V816.892h60.667v30l65.832-2.333V290.226s-4.165-16.5-22.165-18.667a142.251,142.251,0,0,0-32-.333l-107.768,1-1.546-80.752L542.578,205.226l-147.5,8.068.468,80.133h59.908l-.334,55.615H416.869l3.893,110.85h55.48V659.973H261.853l-2.109,209.919,29.265,2.5.235,31.165Z" transform="translate(-251.369 -181.103)"/><polygon class="cls-4" points="115.667 41.695 59.86 43.017 73.833 74.528 115.667 73.695 115.667 41.695"/><line class="cls-4" x1="112" y1="41.821" x2="112" y2="73.804"/><line class="cls-4" x1="108.028" y1="41.821" x2="108.028" y2="73.804"/><line class="cls-4" x1="104.056" y1="41.821" x2="104.056" y2="73.804"/><line class="cls-4" x1="100.083" y1="41.821" x2="100.083" y2="73.804"/><line class="cls-4" x1="96.111" y1="41.821" x2="96.111" y2="73.804"/><line class="cls-4" x1="92.139" y1="41.821" x2="92.139" y2="73.804"/><line class="cls-4" x1="88.167" y1="41.821" x2="88.167" y2="73.804"/><line class="cls-4" x1="84.194" y1="41.821" x2="84.194" y2="73.804"/><line class="cls-4" x1="80.222" y1="42.12" x2="80.222" y2="74.103"/><line class="cls-4" x1="76.25" y1="42.12" x2="76.25" y2="74.103"/><line class="cls-4" x1="72.278" y1="43.12" x2="72.278" y2="71.02"/><line class="cls-4" x1="68.306" y1="42.821" x2="68.306" y2="62.063"/><line class="cls-4" x1="64.333" y1="42.821" x2="64.333" y2="52.778"/><polygon class="cls-4" points="868.583 170.278 821.583 170.278 821.583 206.028 858.333 206.028 868.583 170.278"/><line class="cls-4" x1="824.583" y1="170.278" x2="824.583" y2="206.028"/><line class="cls-4" x1="827.812" y1="170.278" x2="827.812" y2="206.028"/><line class="cls-4" x1="831.042" y1="170.278" x2="831.042" y2="206.028"/><line class="cls-4" x1="834.271" y1="170.278" x2="834.271" y2="206.028"/><line class="cls-4" x1="837.5" y1="170.278" x2="837.5" y2="206.028"/><line class="cls-4" x1="840.729" y1="170.278" x2="840.729" y2="206.028"/><line class="cls-4" x1="843.958" y1="170.278" x2="843.958" y2="206.028"/><line class="cls-4" x1="847.187" y1="170.278" x2="847.187" y2="206.028"/><line class="cls-4" x1="850.417" y1="170.278" x2="850.417" y2="206.028"/><line class="cls-4" x1="853.646" y1="170.278" x2="853.646" y2="206.028"/><line class="cls-4" x1="856.875" y1="171.278" x2="856.875" y2="206.028"/><line class="cls-4" x1="860.104" y1="171.278" x2="860.104" y2="199.528"/><line class="cls-4" x1="863.333" y1="171.278" x2="863.333" y2="187.345"/><line class="cls-4" x1="865.583" y1="170.278" x2="865.583" y2="179.312"/><polygon class="cls-4" points="877.015 286.298 836.735 286.298 836.735 304.981 868.23 304.981 877.015 286.298"/><line class="cls-4" x1="839.306" y1="286.298" x2="839.306" y2="304.981"/><line class="cls-4" x1="842.074" y1="286.298" x2="842.074" y2="304.981"/><line class="cls-4" x1="844.841" y1="286.298" x2="844.841" y2="304.981"/><line class="cls-4" x1="847.609" y1="286.298" x2="847.609" y2="304.981"/><line class="cls-4" x1="850.376" y1="286.298" x2="850.376" y2="304.981"/><line class="cls-4" x1="853.143" y1="286.298" x2="853.143" y2="304.981"/><line class="cls-4" x1="855.911" y1="286.298" x2="855.911" y2="304.981"/><line class="cls-4" x1="858.678" y1="286.298" x2="858.678" y2="304.981"/><line class="cls-4" x1="861.446" y1="286.298" x2="861.446" y2="304.981"/><line class="cls-4" x1="864.213" y1="286.298" x2="864.213" y2="304.981"/><line class="cls-4" x1="866.981" y1="286.821" x2="866.981" y2="304.981"/><line class="cls-4" x1="869.748" y1="286.821" x2="869.748" y2="301.584"/><line class="cls-4" x1="872.515" y1="286.821" x2="872.515" y2="295.217"/><line class="cls-4" x1="874.444" y1="286.298" x2="874.444" y2="291.019"/><g class="cls-5"><path class="cls-4" d="M1123.885,663.161c9.828,0,17.795-7.641,17.795-17.067h-17.795Z" transform="translate(-251.369 -181.103)"/></g><rect class="cls-4" x="57.333" y="128.362" width="44.25" height="45.667"/><rect class="cls-4" x="57.333" y="179.695" width="44.25" height="45.667"/><rect class="cls-4" x="64.333" y="113.362" width="32.75" height="8"/><rect class="cls-4" x="64.333" y="231.362" width="32.75" height="8"/><line class="cls-4" x1="101.583" y1="128.362" x2="57.333" y2="174.028"/><line class="cls-4" x1="57.333" y1="128.362" x2="101.583" y2="174.028"/><line class="cls-4" x1="101.583" y1="179.695" x2="57.333" y2="225.362"/><line class="cls-4" x1="57.333" y1="179.695" x2="101.583" y2="225.362"/><path class="cls-6" d="M1038.953,266.631V272.3h4.006l0,6.447h5.662V272.3h98.952c11.625,0,22.456,7.081,22.456,18.08V327.8H1048.625V296.464h-5.649l.041,55.917h5.608V333.465h121.408V401.8H1048.625V386.623h-5.583l.026,35.508h5.557V407.465h121.408V449.3H1048.625V436.928h-5.546l.009,12.368H1037.7v5.669h132.33v31.291l-126.919-.292.025,34.833h5.485V491.925h121.408v53.081H1048.625v-6.414h-5.472l.014,18.569h5.459v-6.485h121.408v50.036H1048.625V574.227h-5.446l.02,26.734h-4.776v5.669h6.946v0l124.664-.241v5.292h5.669V289.764c0-12.134-14-23.759-28.25-23.134Z" transform="translate(-251.369 -181.103)"/><polygon class="cls-6" points="644.502 16.57 644.502 135.194 524.667 135.194 524.667 140.863 644.502 140.863 644.502 198.528 650.172 198.528 650.172 191.118 755.333 191.118 756.833 191.118 761.002 191.118 761.002 91.198 765.083 91.198 765.083 85.528 761.158 85.528 761.158 7.61 715.802 8.948 715.981 14.387 755.489 13.18 755.333 185.449 650.172 185.449 650.172 16.396 680.708 15.464 680.708 9.984 570.192 13.245 570.39 18.832 644.502 16.57"/><polygon class="cls-6" points="336.999 374.363 342.668 374.363 347.583 374.363 495.25 374.363 495.168 344.363 650.396 344.363 650.172 287.821 644.502 287.821 644.502 338.694 489.499 338.66 489.499 368.694 342.668 368.694 342.668 280.863 489.499 280.863 489.499 304.695 495.168 304.695 495.168 21.129 535.489 19.898 535.188 14.278 399.333 18.286 399.333 24.055 489.499 21.303 489.499 275.193 336.833 275.193 336.999 374.363"/><polygon class="cls-6" points="764.553 419.859 761.002 419.859 761.002 318.705 755.333 318.705 755.333 419.859 689.503 419.859 689.503 273.863 755.333 273.863 755.333 284.463 761.002 284.463 761.002 273.863 763.833 273.863 763.833 268.194 761.002 268.194 761.002 248.427 755.333 248.427 755.333 268.194 689.503 268.194 689.503 233.863 755.333 233.863 755.333 233.932 761.002 233.932 761.002 228.194 756.833 228.194 755.333 228.194 689.503 228.194 683.833 228.194 650.172 228.194 650.172 221.028 644.502 221.028 644.502 234.028 650.172 234.028 650.172 233.863 683.833 233.863 683.833 268.194 650.172 268.194 649.502 268.194 644.502 268.194 644.502 273.863 650.172 273.863 652.405 273.863 683.833 273.863 683.833 338.694 663.414 338.694 663.414 344.363 683.833 344.363 683.833 407.694 342.668 407.694 342.668 388.945 336.999 388.945 336.999 407.694 336.833 407.694 336.833 413.363 336.999 413.363 336.999 413.528 342.668 413.528 342.668 413.363 683.833 413.363 683.833 425.528 686.668 425.528 689.503 425.528 755.333 425.528 761.002 425.528 764.553 425.528 764.553 419.859"/><path class="cls-6" d="M395.7,221.381h-.168V292.8l33.91.087v-5.726l-28.241-.031v-74.6l139-4,0,.055V287.3l-65.186-.074v5.743H540.2v23.456H460.788V287.2l-16.777-.02v5.753l11.107.031v56.5H445.7v5.67h15.345l-.259-33.043H540.2v27.374H475.015v5.67H540.2v75.2H422.537v-75.2l8.353-.065.043-5.67-14.065.065v112.5h60.083v7.024h5.669v-7.024h1.961V456.3H482.62V436.008H540.2V456.3h-41.03v5.67h74.948V456.3H545.871V208.359l70.241-2.145-.276-5.8-220.133,6.5Zm81.248,214.627V456.3H422.537V436.008Z" transform="translate(-251.369 -181.103)"/><path class="cls-6" d="M289.929,537.079l-.393-75.363,73.168.232V283.357h0V282.8H267.537V216.533l109.119-3.41v-5.646l-114.789,3.387v77.6H284.2v167.58h-32.33v5.67H284.2v48.33l.186,27.034Zm67.105-248.613v139.08H302.287V288.466Zm-67.5,167.58V288.466h7.083v144.75h60.415v22.83Z" transform="translate(-251.369 -181.103)"/><path class="cls-6" d="M1049.213,852.4l.324-35.263H1103.2l-.165,30.165.165-.006v.006l72.5-2.835V634.178h-5.669v6.078h-46.044v5.669h46.044V839.016l-61.163,2.386.526-169.124h20.266V663.16h-5.669v3.448h-34.206v-3.084h-5.669v8.753h19.59l-.965,139.186h-53.206V645.925h34.581v.169h5.669v-5.838h-45.923v2.818l-.321,203.709-616.26,41.139V856.353h-5.669V888.3l-129.078,8.617V784.474H421.615v37.637h5.669v-162.9h55.085v-.289h.251V503.232h-5.669V653.543H421.22v5.669h.394V778.8H292.537l-2-119.593h96.441v-5.669l-96.443-.247-.428-81.975h-5.485l.565,81.975H256.7V872.464H286.7l.171,24.832v5.67Zm-786.842,14.4V658.965h22.855l1.432,207.83Z" transform="translate(-251.369 -181.103)"/><g class="cls-7"><path class="cls-4" d="M861.711,219.434c9.828,0,17.469-8.148,17.469-18.05l-17.789.341Z" transform="translate(-251.369 -181.103)"/></g><line class="cls-4" x1="240.866" y1="322.129" x2="240.866" y2="287.887"/><g class="cls-8"><path class="cls-4" d="M476.926,485.948c8.455,0,15.31-7.592,15.31-16.958h-15.31Z" transform="translate(-251.369 -181.103)"/><path class="cls-4" d="M476.926,486.274v16.958h15.31C492.236,493.866,485.381,486.274,476.926,486.274Z" transform="translate(-251.369 -181.103)"/></g><line class="cls-4" x1="169.851" y1="462.974" x2="135.609" y2="462.974"/><g class="cls-9"><path class="cls-4" d="M403.936,659.387c0-8.455-7.592-15.31-16.958-15.31v15.31Z" transform="translate(-251.369 -181.103)"/><path class="cls-4" d="M404.262,659.387H421.22v-15.31C411.855,644.077,404.262,650.931,404.262,659.387Z" transform="translate(-251.369 -181.103)"/></g><line class="cls-4" x1="23.056" y1="355.976" x2="23.056" y2="390.219"/><g class="cls-10"><path class="cls-4" d="M289.736,554.363c-8.455,0-15.31,7.592-15.31,16.958h15.31Z" transform="translate(-251.369 -181.103)"/><path class="cls-4" d="M289.736,554.037V537.079h-15.31C274.426,546.444,281.28,554.037,289.736,554.037Z" transform="translate(-251.369 -181.103)"/></g><g class="cls-11"><path class="cls-6" d="M633.449,207.106c-.286-8.552-8.2-15.228-17.669-14.912l.517,15.485Z" transform="translate(-251.369 -181.103)"/><path class="cls-6" d="M633.779,207.1l17.152-.573-.517-15.485C640.941,191.354,633.493,198.543,633.779,207.1Z" transform="translate(-251.369 -181.103)"/></g><g class="cls-12"><path class="cls-6" d="M804.116,202.146c-.286-8.552-8.2-15.228-17.669-14.912l.517,15.485Z" transform="translate(-251.369 -181.103)"/><path class="cls-6" d="M804.446,202.135l17.152-.573-.517-15.485C811.607,186.394,804.16,193.583,804.446,202.135Z" transform="translate(-251.369 -181.103)"/></g><g class="cls-13"><path class="cls-6" d="M949.741,197.688c-.286-8.552-8.2-15.228-17.669-14.912l.517,15.485Z" transform="translate(-251.369 -181.103)"/><path class="cls-6" d="M950.071,197.677l17.152-.573-.517-15.485C957.232,181.935,949.785,189.125,950.071,197.677Z" transform="translate(-251.369 -181.103)"/></g><g class="cls-14"><path class="cls-6" d="M1027.6,272.176c0-6.627-4.989-12-11.143-12v12Z" transform="translate(-251.369 -181.103)"/><path class="cls-6" d="M1027.81,272.176h11.143v-12C1032.8,260.178,1027.81,265.55,1027.81,272.176Z" transform="translate(-251.369 -181.103)"/></g><g class="cls-15"><path class="cls-6" d="M395.711,197.184c-9.828-.071-17.85,7.513-17.917,16.938l17.794.128Z" transform="translate(-251.369 -181.103)"/></g><g class="cls-16"><path class="cls-4" d="M878.816,313.362c0-9.828-7.641-17.795-17.067-17.795v17.795Z" transform="translate(-251.369 -181.103)"/></g><g class="cls-17"><path class="cls-4" d="M1041.6,295.814c9.94,0,18-7.641,18-17.067h-18Z" transform="translate(-251.369 -181.103)"/></g><g class="cls-18"><path class="cls-6" d="M1175.7,623.048c-6.627,0-12,4.989-12,11.143h12Z" transform="translate(-251.369 -181.103)"/><path class="cls-6" d="M1175.7,622.834V611.691h-12C1163.7,617.845,1169.076,622.834,1175.7,622.834Z" transform="translate(-251.369 -181.103)"/></g><g class="cls-19"><path class="cls-4" d="M1090.632,663.271c-9.828,0-17.795-7.641-17.795-17.067h17.795Z" transform="translate(-251.369 -181.103)"/></g><g class="cls-20"><path class="cls-4" d="M1049.12,369.665c-8.455,0-15.31,7.592-15.31,16.958h15.31Z" transform="translate(-251.369 -181.103)"/><path class="cls-4" d="M1049.12,369.339V352.381h-15.31C1033.81,361.746,1040.664,369.339,1049.12,369.339Z" transform="translate(-251.369 -181.103)"/></g><g class="cls-21"><path class="cls-4" d="M1012.151,482.768c-8.455,0-15.31,7.472-15.31,16.689h15.31Z" transform="translate(-251.369 -181.103)"/><path class="cls-4" d="M1012.151,482.447V465.758h-15.31C996.841,474.975,1003.7,482.447,1012.151,482.447Z" transform="translate(-251.369 -181.103)"/></g><g class="cls-22"><path class="cls-4" d="M902.61,391a10.816,10.816,0,0,0-10.532,11.079H902.61Z" transform="translate(-251.369 -181.103)"/><path class="cls-4" d="M902.61,390.788V379.709H892.078A10.816,10.816,0,0,0,902.61,390.788Z" transform="translate(-251.369 -181.103)"/></g><g class="cls-23"><path class="cls-4" d="M1034.564,422.131c0,8.173,6.354,14.8,14.192,14.8v-14.8Z" transform="translate(-251.369 -181.103)"/></g><g class="cls-24"><path class="cls-4" d="M1026.346,454.926c0-6.627-4.989-12-11.143-12v12Z" transform="translate(-251.369 -181.103)"/><path class="cls-4" d="M1026.56,454.926H1037.7v-12C1031.549,442.928,1026.56,448.3,1026.56,454.926Z" transform="translate(-251.369 -181.103)"/></g><g class="cls-25"><path class="cls-4" d="M1027.346,607.3c0-6.627-4.989-12-11.143-12v12Z" transform="translate(-251.369 -181.103)"/><path class="cls-4" d="M1027.56,607.3H1038.7v-12C1032.549,595.3,1027.56,600.675,1027.56,607.3Z" transform="translate(-251.369 -181.103)"/></g><g class="cls-26"><path class="cls-4" d="M1022.529,415.188a14.266,14.266,0,0,1-14.192,14.34v-14.34Z" transform="translate(-251.369 -181.103)"/></g><g class="cls-27"><path class="cls-4" d="M1042.19,538.071c9.94,0,18-7.641,18-17.067h-18Z" transform="translate(-251.369 -181.103)"/></g><g class="cls-28"><path class="cls-4" d="M1042.567,574.521c9.94,0,18-7.641,18-17.067h-18Z" transform="translate(-251.369 -181.103)"/></g><g class="cls-29"><path class="cls-4" d="M914.321,454.944A14.076,14.076,0,0,1,900.129,468.9V454.944Z" transform="translate(-251.369 -181.103)"/></g><g class="cls-30"><path class="cls-4" d="M914.812,521.6c0-7.738-5.838-14.01-13.04-14.01V521.6Z" transform="translate(-251.369 -181.103)"/></g><g class="cls-31"><path class="cls-4" d="M747.933,503.073c-8.455,0-15.31,7.472-15.31,16.689h15.31Z" transform="translate(-251.369 -181.103)"/><path class="cls-4" d="M747.933,502.752V486.063h-15.31C732.623,495.281,739.477,502.752,747.933,502.752Z" transform="translate(-251.369 -181.103)"/></g><g class="cls-32"><path class="cls-4" d="M588.1,472.472a14.085,14.085,0,0,1-13.976-14.192H588.1Z" transform="translate(-251.369 -181.103)"/></g><g class="cls-33"><path class="cls-4" d="M601.841,555.4a14.415,14.415,0,0,1-14.192,14.628V555.4Z" transform="translate(-251.369 -181.103)"/></g><g class="cls-34"><path class="cls-4" d="M485.2,448.851a14.085,14.085,0,0,1,13.976,14.192H485.2Z" transform="translate(-251.369 -181.103)"/></g><g class="cls-35"><path class="cls-4" d="M461.036,341.684a14.085,14.085,0,0,1,13.976,14.192H461.036Z" transform="translate(-251.369 -181.103)"/></g><g class="cls-36"><path class="cls-4" d="M461.036,300.4a14.085,14.085,0,0,0,13.976-14.192H461.036Z" transform="translate(-251.369 -181.103)"/></g><g class="cls-37"><path class="cls-4" d="M429.567,277.631c7.945,0,14.385,7.506,14.385,16.765H429.567Z" transform="translate(-251.369 -181.103)"/></g><g class="cls-38"><path class="cls-4" d="M430.89,364.3c8.227,0,14.9-7.574,14.9-16.917h-14.9Z" transform="translate(-251.369 -181.103)"/></g><g class="cls-39"><path class="cls-4" d="M427.62,839.395c-8.455,0-15.31,7.592-15.31,16.958h15.31Z" transform="translate(-251.369 -181.103)"/><path class="cls-4" d="M427.62,839.069V822.111H412.31C412.31,831.476,419.164,839.069,427.62,839.069Z" transform="translate(-251.369 -181.103)"/></g><rect class="cls-6" x="827.15" y="254.669" width="76.564" height="5.669" transform="translate(871.566 -789.031) rotate(90)"/><rect class="cls-6" x="863.909" y="197.29" width="3.046" height="5.669" transform="translate(814.187 -846.41) rotate(90)"/><rect class="cls-6" x="863.978" y="312.007" width="2.908" height="5.669" transform="translate(928.904 -731.692) rotate(90)"/></svg>