<svg id="组_1" data-name="组 1" xmlns="http://www.w3.org/2000/svg" xmlns:xlink="http://www.w3.org/1999/xlink" viewBox="0 0 924.833 715.527"><defs><style>.cls-1,.cls-4{fill:none;}.cls-2{fill:#eaeaea;}.cls-3{fill:#d0eae5;}.cls-4,.cls-5{stroke:#adadad;stroke-miterlimit:10;}.cls-5{fill:#fff;}.cls-6{clip-path:url(#clip-path);}.cls-7{clip-path:url(#clip-path-2);}.cls-8{clip-path:url(#clip-path-3);}.cls-9{clip-path:url(#clip-path-4);}.cls-10{clip-path:url(#clip-path-5);}.cls-11{clip-path:url(#clip-path-6);}.cls-12{clip-path:url(#clip-path-7);}.cls-13{clip-path:url(#clip-path-8);}.cls-14{clip-path:url(#clip-path-9);}.cls-15{clip-path:url(#clip-path-10);}.cls-16{clip-path:url(#clip-path-11);}.cls-17{clip-path:url(#clip-path-12);}.cls-18{clip-path:url(#clip-path-13);}.cls-19{clip-path:url(#clip-path-14);}.cls-20{clip-path:url(#clip-path-15);}.cls-21{clip-path:url(#clip-path-16);}.cls-22{clip-path:url(#clip-path-17);}.cls-23{clip-path:url(#clip-path-18);}.cls-24{clip-path:url(#clip-path-19);}.cls-25{clip-path:url(#clip-path-20);}.cls-26{clip-path:url(#clip-path-21);}</style><clipPath id="clip-path" transform="translate(-262.179 -181.163)"><rect class="cls-1" x="978.179" y="245.821" width="26" height="55" transform="translate(1264.5 -717.858) rotate(90)"/></clipPath><clipPath id="clip-path-2" transform="translate(-262.179 -181.163)"><rect class="cls-1" x="970.929" y="291.571" width="37.333" height="43.5" transform="translate(1302.917 -676.275) rotate(90)"/></clipPath><clipPath id="clip-path-3" transform="translate(-262.179 -181.163)"><rect class="cls-1" x="1042.216" y="235.951" width="76.5" height="51.906" transform="translate(1342.37 -818.561) rotate(90)"/></clipPath><clipPath id="clip-path-4" transform="translate(-262.179 -181.163)"><rect class="cls-1" x="1034.246" y="340.088" width="67.2" height="26.667" transform="translate(1421.267 -714.425) rotate(90)"/></clipPath><clipPath id="clip-path-5" transform="translate(-262.179 -181.163)"><rect class="cls-1" x="1018.18" y="409.988" width="49.665" height="31" transform="translate(1468.501 -617.524) rotate(90)"/></clipPath><clipPath id="clip-path-6" transform="translate(-262.179 -181.163)"><rect class="cls-1" x="1038.934" y="457.076" width="66.99" height="35.833" transform="translate(1547.422 -597.436) rotate(90)"/></clipPath><clipPath id="clip-path-7" transform="translate(-262.179 -181.163)"><rect class="cls-1" x="999.175" y="411.157" width="45.841" height="28.5" transform="translate(1447.502 -596.689) rotate(90)"/></clipPath><clipPath id="clip-path-8" transform="translate(-262.179 -181.163)"><rect class="cls-1" x="969.095" y="358.405" width="44.001" height="40.5" transform="translate(1369.751 -612.441) rotate(90)"/></clipPath><clipPath id="clip-path-9" transform="translate(-262.179 -181.163)"><rect class="cls-1" x="867.762" y="404.238" width="58" height="40.167" transform="translate(1321.083 -472.441) rotate(90)"/></clipPath><clipPath id="clip-path-10" transform="translate(-262.179 -181.163)"><rect class="cls-1" x="837.971" y="433.529" width="41.833" height="75.75" transform="translate(1330.292 -387.483) rotate(90)"/></clipPath><clipPath id="clip-path-11" transform="translate(-262.179 -181.163)"><rect class="cls-1" x="572.012" y="430.154" width="30.833" height="73.5" transform="translate(1054.333 -120.525) rotate(90)"/></clipPath><clipPath id="clip-path-12" transform="translate(-262.179 -181.163)"><rect class="cls-1" x="484.262" y="395.571" width="56" height="59.833" transform="translate(937.75 -86.775) rotate(90)"/></clipPath><clipPath id="clip-path-13" transform="translate(-262.179 -181.163)"><rect class="cls-1" x="443.429" y="340.071" width="31.833" height="46" transform="translate(822.417 -96.275) rotate(90)"/></clipPath><clipPath id="clip-path-14" transform="translate(-262.179 -181.163)"><rect class="cls-1" x="447.346" y="266.154" width="87.333" height="40.667" transform="translate(777.5 -204.525) rotate(90)"/></clipPath><clipPath id="clip-path-15" transform="translate(-262.179 -181.163)"><rect class="cls-1" x="398.44" y="553.144" width="59.042" height="137.397" transform="translate(1049.803 193.881) rotate(90)"/></clipPath><clipPath id="clip-path-16" transform="translate(-262.179 -181.163)"><rect class="cls-1" x="476.136" y="659.944" width="50.753" height="24.667" transform="translate(1173.79 170.765) rotate(90)"/></clipPath><clipPath id="clip-path-17" transform="translate(-262.179 -181.163)"><rect class="cls-1" x="537.846" y="658.988" width="23.667" height="53.667" transform="translate(1235.5 136.142) rotate(90)"/></clipPath><clipPath id="clip-path-18" transform="translate(-262.179 -181.163)"><rect class="cls-1" x="650.472" y="608.028" width="26.748" height="56.667" transform="translate(1300.207 -27.484) rotate(90)"/></clipPath><clipPath id="clip-path-19" transform="translate(-262.179 -181.163)"><rect class="cls-1" x="756.762" y="600.071" width="37.833" height="60" transform="translate(1405.75 -145.608) rotate(90)"/></clipPath><clipPath id="clip-path-20" transform="translate(-262.179 -181.163)"><rect class="cls-1" x="885.262" y="648.238" width="25" height="55.167" transform="translate(1573.583 -221.941) rotate(90)"/></clipPath><clipPath id="clip-path-21" transform="translate(-262.179 -181.163)"><rect class="cls-1" x="999.012" y="631.321" width="32.833" height="65.833" transform="translate(1679.667 -351.191) rotate(90)"/></clipPath></defs><title>会议_2栋2楼</title><path class="cls-2" d="M275.179,208.321v72.667h34.333V421.654l59,4v24.417l-103.333,2.418-2.278,46.29,37.612,1.292V895.988l756.667-51V809.321h60.667v30l65.832-2.333V282.654s-4.165-16.5-22.165-18.667a142.253,142.253,0,0,0-32-.333l-107.768,1L1020.2,183.9,553.846,197.654Z" transform="translate(-262.179 -181.163)"/><path class="cls-3" d="M370.512,438.528V651.363h-70V895.988l756.667-51V809.321h60.667v30l65.832-2.333V282.654s-4.165-16.5-22.165-18.667a91.932,91.932,0,0,0-32,1.667l-85.009-1.211v.378H913.077V189.588l-357.3,10.857V455.321H432.512l-2.106-112.667h35.522V285.99L410.8,284.821V202.483l-135.626,5.838v72.667h34.333V425.654h59v12.874Z" transform="translate(-262.179 -181.163)"/><line class="cls-4" x1="824.75" y1="214.756" x2="824.75" y2="143.493"/><line class="cls-4" x1="829.75" y1="214.756" x2="829.75" y2="143.493"/><line class="cls-4" x1="835.583" y1="214.756" x2="835.583" y2="143.493"/><line class="cls-4" x1="840.25" y1="214.756" x2="840.25" y2="143.493"/><line class="cls-4" x1="845.583" y1="214.09" x2="845.583" y2="144.826"/><line class="cls-4" x1="850.917" y1="214.09" x2="850.917" y2="144.826"/><line class="cls-4" x1="856.25" y1="214.09" x2="856.25" y2="144.826"/><line class="cls-4" x1="861.583" y1="214.09" x2="861.583" y2="144.826"/><line class="cls-4" x1="865.917" y1="214.09" x2="865.917" y2="144.826"/><line class="cls-4" x1="871.75" y1="214.09" x2="871.75" y2="144.826"/><line class="cls-4" x1="876.75" y1="214.09" x2="876.75" y2="144.826"/><line class="cls-4" x1="886.75" y1="214.09" x2="886.75" y2="144.826"/><line class="cls-4" x1="881.75" y1="212.756" x2="881.75" y2="143.493"/><line class="cls-4" x1="824.75" y1="197.325" x2="905.417" y2="197.325"/><line class="cls-4" x1="824.75" y1="161.325" x2="905.417" y2="161.325"/><line class="cls-4" x1="905.417" y1="197.325" x2="905.417" y2="161.325"/><rect class="cls-4" x="1115.846" y="327.571" width="7.833" height="65.667" rx="1.75" ry="1.75" transform="translate(497.179 1299.004) rotate(-90)"/><rect class="cls-5" x="1117.304" y="386.782" width="5.669" height="127.078" transform="translate(1308.281 -850.981) rotate(90)"/><rect class="cls-5" x="1116.105" y="334.282" width="5.669" height="127.078" transform="translate(1254.581 -902.281) rotate(90)"/><rect class="cls-5" x="1117.304" y="260.282" width="5.669" height="127.078" transform="translate(1181.781 -977.481) rotate(90)"/><polygon class="cls-5" points="231.417 273.158 231.417 247.243 291.667 247.243 291.667 241.573 165.499 241.573 165.499 247.243 225.748 247.243 225.748 273.158 231.417 273.158"/><rect class="cls-5" x="364.886" y="574.486" width="148.085" height="5.669" transform="translate(754.07 -42.77) rotate(90)"/><rect class="cls-5" x="959.429" y="351.903" width="5.669" height="101.166" transform="translate(1102.571 -740.94) rotate(90)"/><rect class="cls-5" x="959.429" y="286.903" width="5.669" height="101.166" transform="translate(1037.571 -805.94) rotate(90)"/><line class="cls-4" x1="106.333" y1="95.49" x2="106.333" y2="24.339"/><line class="cls-4" x1="100.5" y1="24.339" x2="100.5" y2="95.49"/><line class="cls-4" x1="95.833" y1="24.339" x2="95.833" y2="95.49"/><line class="cls-4" x1="90.5" y1="24.339" x2="90.5" y2="95.49"/><line class="cls-4" x1="85.167" y1="24.339" x2="85.167" y2="95.49"/><line class="cls-4" x1="79.833" y1="24.339" x2="79.833" y2="95.49"/><line class="cls-4" x1="74.5" y1="24.339" x2="74.5" y2="95.49"/><line class="cls-4" x1="70.167" y1="24.339" x2="70.167" y2="95.49"/><line class="cls-4" x1="64.333" y1="24.339" x2="64.333" y2="95.49"/><line class="cls-4" x1="59.333" y1="24.339" x2="59.333" y2="95.49"/><line class="cls-4" x1="49.333" y1="95.49" x2="49.333" y2="24.339"/><line class="cls-4" x1="54.333" y1="24.339" x2="54.333" y2="95.49"/><line class="cls-4" x1="111.333" y1="45.991" x2="30.667" y2="45.991"/><line class="cls-4" x1="111.333" y1="81.991" x2="30.667" y2="81.991"/><line class="cls-4" x1="30.667" y1="45.991" x2="30.667" y2="81.991"/><rect class="cls-4" x="336.762" y="212.404" width="7.833" height="65.667" rx="1.75" ry="1.75" transform="translate(323.738 -276.604) rotate(90)"/><rect class="cls-4" x="57.333" y="121.491" width="44.25" height="45.667"/><line class="cls-4" x1="57.333" y1="167.158" x2="101.583" y2="121.491"/><line class="cls-4" x1="57.333" y1="121.491" x2="101.583" y2="167.158"/><rect class="cls-4" x="57.333" y="172.825" width="44.25" height="45.667"/><line class="cls-4" x1="57.333" y1="218.491" x2="101.583" y2="172.825"/><line class="cls-4" x1="57.333" y1="172.825" x2="101.583" y2="218.491"/><rect class="cls-4" x="338.887" y="275.279" width="8" height="32.75" transform="translate(372.363 -232.396) rotate(90)"/><rect class="cls-4" x="338.887" y="393.279" width="8" height="32.75" transform="translate(490.363 -114.396) rotate(90)"/><rect class="cls-5" x="791.586" y="80.658" width="5.669" height="9.828"/><rect class="cls-5" x="791.586" y="107.553" width="5.669" height="53.772"/><rect class="cls-5" x="791.586" y="201.124" width="5.669" height="41.78"/><rect class="cls-5" x="791.586" y="260.335" width="5.669" height="15.99"/><rect class="cls-5" x="744.999" y="205.858" width="5.669" height="37.41"/><rect class="cls-5" x="744.999" y="139.823" width="5.669" height="48.968"/><polygon class="cls-5" points="750.668 269.993 750.668 268.323 750.668 260.335 744.999 260.335 744.999 268.323 655.171 268.323 655.171 260.335 649.502 260.335 649.502 268.323 610.91 268.323 610.91 273.993 750.668 273.993 750.668 269.993"/><rect class="cls-5" x="305.337" y="511.489" width="39.828" height="5.669"/><rect class="cls-5" x="225.331" y="511.489" width="40.207" height="5.669"/><rect class="cls-5" x="337.398" y="268.323" width="233.712" height="5.669"/><polygon class="cls-5" points="571.333 508.073 611.099 508.073 611.099 502.404 571.333 502.404 571.333 468.573 571.333 462.904 565.664 462.904 534.898 462.904 534.898 468.573 565.664 468.573 565.664 679.158 571.333 679.158 571.333 508.073"/><polygon class="cls-5" points="650.898 508.073 690.664 508.073 690.664 671.158 696.333 671.158 696.333 471.407 727.182 471.407 727.182 465.738 690.664 465.738 690.664 468.158 690.664 471.407 690.664 502.404 650.898 502.404 650.898 508.073"/><polygon class="cls-5" points="766.981 465.738 766.981 471.407 921.499 471.407 921.499 465.738 797.256 465.738 797.256 316.124 791.586 316.124 791.586 465.738 766.981 465.738"/><rect class="cls-5" x="419.588" y="462.904" width="75.511" height="5.669"/><polygon class="cls-5" points="348 468.573 379.789 468.573 379.789 462.904 342.331 462.904 342.331 694.491 348 694.491 348 468.573"/><polygon class="cls-5" points="171.168 268.323 171.168 167.161 182.203 167.161 182.203 161.491 165.499 161.491 165.499 161.825 165.499 167.161 165.499 273.993 168.333 273.993 171.168 273.993 237.844 273.993 237.844 268.323 171.168 268.323"/><path class="cls-5" d="M1060.023,845.587V810.324h53.988v24.49l-.165.006v5.669l.165-.006v.006h5.669v-.228l66.832-2.607v-554.7c0-12.134-14-23.759-28.25-23.134H1023.337V181.9H1020.2l-.007-.225L278.347,204.053h-5.669v77.6h34.75v144.75h60.415v22.831H262.679v54h35v392.92ZM313.1,420.736V281.656h54.747V420.736Zm-9.751,226V497.566h-35V454.906h99.495V646.733Zm0,5.669h77.514v-5.669h-7.348v-224.6h0V276.547h0v-.561H278.347V209.723l128-4V285.99h59.584v8.131H471.6v-13.8H412.014v-74.6l139-4,0,.055V342.654H471.6V311.188h-5.669v31.467h-3.752v5.669h88.835V449.486H517.09v5.669h42.688v-5.669h-3.1V201.549l355-11V424.067h5.669V265.49h61.811v-5.669H917.35V190.277l100.318-2.8v72.348h-21.44v5.669h10.95V303.92h5.669V265.49h145.54c11.625,0,22.456,7.081,22.456,18.079V832.206l-61.163,2.386V804.654h-65.327v35.32L493.179,877.435V683.2H487.51V877.814L303.346,890.108Z" transform="translate(-262.179 -181.163)"/><polygon class="cls-5" points="225.331 484.973 231 484.973 231 471.239 231 465.57 225.331 465.57 158.481 465.57 158.481 471.239 225.331 471.239 225.331 484.973"/><g class="cls-6"><path class="cls-4" d="M996.227,277.213c-9.426,0-17.067-7.967-17.067-17.795h17.067Z" transform="translate(-262.179 -181.163)"/></g><g class="cls-7"><path class="cls-4" d="M994.318,320.986c0-9.426,7.967-17.067,17.795-17.067v17.067Z" transform="translate(-262.179 -181.163)"/></g><g class="cls-8"><path class="cls-4" d="M1071.158,271.649c0,9.426-7.967,17.067-17.795,17.067V271.649Z" transform="translate(-262.179 -181.163)"/></g><g class="cls-9"><path class="cls-4" d="M1071.158,342.488c0,10.886-7.967,19.71-17.795,19.71v-19.71Z" transform="translate(-262.179 -181.163)"/><path class="cls-4" d="M1071.158,382.287c0-10.886-7.967-19.71-17.795-19.71v19.71Z" transform="translate(-262.179 -181.163)"/></g><g class="cls-10"><path class="cls-4" d="M1041.606,441.5c0-9.426,7.967-17.067,17.795-17.067V441.5Z" transform="translate(-262.179 -181.163)"/></g><g class="cls-11"><path class="cls-4" d="M1071.158,457.488c0,10.886-7.967,19.71-17.795,19.71v-19.71Z" transform="translate(-262.179 -181.163)"/><path class="cls-4" d="M1071.158,497.287c0-10.886-7.967-19.71-17.795-19.71v19.71Z" transform="translate(-262.179 -181.163)"/></g><g class="cls-12"><path class="cls-4" d="M1024.642,424.431c0,9.426-7.967,17.067-17.795,17.067V424.431Z" transform="translate(-262.179 -181.163)"/></g><g class="cls-13"><path class="cls-4" d="M994.318,387.021c0-9.426,7.967-17.067,17.795-17.067v17.067Z" transform="translate(-262.179 -181.163)"/></g><g class="cls-14"><path class="cls-4" d="M917.756,441.862c-9.426,0-17.067-7.967-17.067-17.795h17.067Z" transform="translate(-262.179 -181.163)"/></g><g class="cls-15"><path class="cls-4" d="M873.089,467.4c-10.886,0-19.71-7.967-19.71-17.795h19.71Z" transform="translate(-262.179 -181.163)"/><path class="cls-4" d="M833.289,467.4c10.886,0,19.71-7.967,19.71-17.795h-19.71Z" transform="translate(-262.179 -181.163)"/></g><g class="cls-16"><path class="cls-4" d="M599.577,468.4c-10.886,0-19.71-7.967-19.71-17.795h19.71Z" transform="translate(-262.179 -181.163)"/><path class="cls-4" d="M559.778,468.4c10.886,0,19.71-7.967,19.71-17.795h-19.71Z" transform="translate(-262.179 -181.163)"/></g><g class="cls-17"><path class="cls-4" d="M517.09,436.965c-9.426,0-17.067,7.967-17.067,17.795H517.09Z" transform="translate(-262.179 -181.163)"/></g><g class="cls-18"><path class="cls-4" d="M462.176,346.321c0,9.426-7.967,17.067-17.795,17.067V346.321Z" transform="translate(-262.179 -181.163)"/></g><g class="cls-19"><path class="cls-4" d="M487.51,294.121c0,9.426-7.967,17.067-17.795,17.067V294.121Z" transform="translate(-262.179 -181.163)"/></g><g class="cls-20"><path class="cls-4" d="M420.66,634.669c-10.886,0-19.71,7.967-19.71,17.795h19.71Z" transform="translate(-262.179 -181.163)"/><path class="cls-4" d="M380.861,634.669c10.886,0,19.71,7.967,19.71,17.795h-19.71Z" transform="translate(-262.179 -181.163)"/></g><g class="cls-21"><path class="cls-4" d="M505.556,683.2c0-9.426-7.967-17.067-17.795-17.067V683.2Z" transform="translate(-262.179 -181.163)"/></g><g class="cls-22"><path class="cls-4" d="M567.516,680.857c-10.886,0-19.71,7.967-19.71,17.795h19.71Z" transform="translate(-262.179 -181.163)"/><path class="cls-4" d="M527.717,680.857c10.886,0,19.71,7.967,19.71,17.795h-19.71Z" transform="translate(-262.179 -181.163)"/></g><g class="cls-23"><path class="cls-4" d="M681.767,632.522c-10.886,0-19.71,7.967-19.71,17.795h19.71Z" transform="translate(-262.179 -181.163)"/><path class="cls-4" d="M641.968,632.522c10.886,0,19.71,7.967,19.71,17.795h-19.71Z" transform="translate(-262.179 -181.163)"/></g><g class="cls-24"><path class="cls-4" d="M797.077,632.272c-10.886,0-19.71,7.967-19.71,17.795h19.71Z" transform="translate(-262.179 -181.163)"/><path class="cls-4" d="M757.278,632.272c10.886,0,19.71,7.967,19.71,17.795h-19.71Z" transform="translate(-262.179 -181.163)"/></g><g class="cls-25"><path class="cls-4" d="M913.077,671.772c-10.886,0-19.71,7.967-19.71,17.795h19.71Z" transform="translate(-262.179 -181.163)"/><path class="cls-4" d="M873.278,671.772c10.886,0,19.71,7.967,19.71,17.795h-19.71Z" transform="translate(-262.179 -181.163)"/></g><g class="cls-26"><path class="cls-4" d="M1029.16,664.785c-10.886,0-19.71-7.967-19.71-17.795h19.71Z" transform="translate(-262.179 -181.163)"/><path class="cls-4" d="M989.361,664.785c10.886,0,19.71-7.967,19.71-17.795h-19.71Z" transform="translate(-262.179 -181.163)"/></g></svg>