<svg id="组_1" data-name="组 1" xmlns="http://www.w3.org/2000/svg" xmlns:xlink="http://www.w3.org/1999/xlink" viewBox="0 0 510.736 883.422"><defs><style>.cls-1,.cls-8{fill:none;}.cls-2{fill:#eaeaea;}.cls-3{fill:#d0eae5;}.cls-4{fill:#e3e1df;}.cls-5,.cls-6{fill:#fff;}.cls-5,.cls-8{stroke:#adadad;stroke-miterlimit:10;}.cls-7{fill:#adadad;}.cls-9{clip-path:url(#clip-path);}.cls-10{clip-path:url(#clip-path-2);}.cls-11{clip-path:url(#clip-path-3);}.cls-12{clip-path:url(#clip-path-4);}.cls-13{clip-path:url(#clip-path-5);}.cls-14{clip-path:url(#clip-path-6);}.cls-15{clip-path:url(#clip-path-7);}.cls-16{clip-path:url(#clip-path-8);}.cls-17{clip-path:url(#clip-path-9);}.cls-18{clip-path:url(#clip-path-10);}.cls-19{clip-path:url(#clip-path-11);}.cls-20{clip-path:url(#clip-path-12);}.cls-21{clip-path:url(#clip-path-13);}.cls-22{clip-path:url(#clip-path-14);}.cls-23{clip-path:url(#clip-path-15);}.cls-24{clip-path:url(#clip-path-16);}</style><clipPath id="clip-path" transform="translate(-485.735 -70.023)"><rect class="cls-1" x="899.729" y="463.885" width="26.179" height="25.077" transform="translate(1389.242 -436.395) rotate(90)"/></clipPath><clipPath id="clip-path-2" transform="translate(-485.735 -70.023)"><rect class="cls-1" x="903.246" y="587.844" width="49.999" height="20.251" transform="translate(1526.215 -330.277) rotate(90)"/></clipPath><clipPath id="clip-path-3" transform="translate(-485.735 -70.023)"><rect class="cls-1" x="613.268" y="872.841" width="48.416" height="20.918" transform="translate(1520.776 245.824) rotate(90)"/></clipPath><clipPath id="clip-path-4" transform="translate(-485.735 -70.023)"><rect class="cls-1" x="635.736" y="643.792" width="49.099" height="23.963" transform="translate(1316.06 -4.512) rotate(90)"/></clipPath><clipPath id="clip-path-5" transform="translate(-485.735 -70.023)"><rect class="cls-1" x="635.659" y="513.456" width="59.031" height="33.74" transform="translate(1195.5 -134.848) rotate(90)"/></clipPath><clipPath id="clip-path-6" transform="translate(-485.735 -70.023)"><rect class="cls-1" x="583.057" y="229.758" width="22.523" height="59.254" transform="translate(334.933 853.703) rotate(-90)"/></clipPath><clipPath id="clip-path-7" transform="translate(-485.735 -70.023)"><rect class="cls-1" x="591.657" y="253.963" width="50.403" height="25.946" transform="translate(883.794 -349.921) rotate(90)"/></clipPath><clipPath id="clip-path-8" transform="translate(-485.735 -70.023)"><polygon class="cls-1" points="577.371 399.757 577.529 372.543 611.025 372.543 610.866 399.757 577.371 399.757"/></clipPath><clipPath id="clip-path-9" transform="translate(-485.735 -70.023)"><rect class="cls-1" x="535.708" y="414.282" width="43.389" height="23.525" transform="translate(983.447 -131.358) rotate(90)"/></clipPath><clipPath id="clip-path-10" transform="translate(-485.735 -70.023)"><rect class="cls-1" x="579.593" y="429.862" width="24.146" height="32.34" transform="translate(1037.698 -145.635) rotate(90)"/></clipPath><clipPath id="clip-path-11" transform="translate(-485.735 -70.023)"><rect class="cls-1" x="569.909" y="490.756" width="48.603" height="22.281" transform="translate(1096.107 -92.313) rotate(90)"/></clipPath><clipPath id="clip-path-12" transform="translate(-485.735 -70.023)"><rect class="cls-1" x="573.79" y="577.935" width="40.657" height="23.463" transform="translate(1183.785 -4.451) rotate(90)"/></clipPath><clipPath id="clip-path-13" transform="translate(-485.735 -70.023)"><rect class="cls-1" x="590.984" y="671.975" width="45.189" height="19.677" transform="translate(1295.391 68.235) rotate(90)"/></clipPath><clipPath id="clip-path-14" transform="translate(-485.735 -70.023)"><rect class="cls-1" x="586.328" y="862.723" width="60.52" height="27.312" transform="translate(1492.967 259.79) rotate(90)"/></clipPath><clipPath id="clip-path-15" transform="translate(-485.735 -70.023)"><rect class="cls-1" x="619.785" y="904.187" width="19.553" height="36.747" transform="translate(1552.122 292.999) rotate(90)"/></clipPath><clipPath id="clip-path-16" transform="translate(-485.735 -70.023)"><rect class="cls-1" x="637.987" y="437.015" width="41.757" height="21.123" transform="translate(1106.443 -211.289) rotate(90)"/></clipPath></defs><title>会议_3栋1楼</title><polygon class="cls-2" points="272.13 0.034 66.174 0.034 66.174 40.987 1.247 40.987 1.247 271.385 8.327 271.385 8.327 683.979 0.5 683.979 0.5 848.162 11.55 848.162 11.55 882.922 98.731 882.922 98.731 844.189 111.953 844.189 111.953 882.922 198.823 882.922 198.823 846.037 218.934 846.037 218.934 882.922 316.14 882.922 316.14 845.555 453.272 845.555 453.272 840.993 510.736 840.993 510.736 493.915 451.333 493.915 451.333 365.113 379.02 365.113 379.02 265.053 363.749 265.053 363.749 43.455 272.13 43.455 272.13 0.034"/><path class="cls-3" d="M654.887,952.945V912.1l-6.583.063V338.63H817.68V113.478H757.865V70.058H551.909v40.953H486.981v230.4h7.08v.869H605.85V468.455h.246V598.7h.437v50.341H532.667V611.173H495.989V480.449h-1.927V754h-7.827v9.539l116.237.952-.129,151.953-1.769-.2.559,32.785,5.455-1.118v5.029ZM586.064,340.99V296.458h18.357V340.99Z" transform="translate(-485.735 -70.023)"/><rect class="cls-4" x="873.909" y="462.729" width="52.141" height="3.166" transform="translate(878.557 -505.691) rotate(90)"/><rect class="cls-5" x="797.963" y="66.18" width="4.223" height="98.819" transform="translate(429.929 -754.508) rotate(90)"/><rect class="cls-5" x="359.526" y="43.455" width="4.223" height="221.847"/><rect class="cls-5" x="330.725" y="43.455" width="4.223" height="221.847"/><rect class="cls-5" x="326.502" y="47.678" width="4.223" height="219.736"/><rect class="cls-5" x="760.906" y="235.451" width="4.223" height="203.473" transform="translate(614.47 -495.852) rotate(90)"/><rect class="cls-5" x="810.502" y="385.106" width="104.282" height="4.223" transform="translate(764.126 -545.449) rotate(90)"/><rect class="cls-5" x="845.261" y="435.136" width="93.11" height="4.223" transform="translate(1297.897 804.471) rotate(180)"/><rect class="cls-5" x="448.414" y="542.666" width="4.223" height="302.268"/><rect class="cls-5" x="448.414" y="365.113" width="4.223" height="149.57"/><rect class="cls-6" x="328.862" y="697.329" width="3.223" height="146.483"/><path class="cls-7" d="M817.319,767.852V913.336H815.1V767.852h2.223m1-1H814.1V914.336h4.223V766.852Z" transform="translate(-485.735 -70.023)"/><polygon class="cls-5" points="509.433 836.554 509.433 498.57 509.433 493.915 504.777 493.915 452.637 493.915 452.637 498.57 504.777 498.57 504.777 836.554 452.637 836.554 452.637 841.209 504.777 841.209 509.433 841.209 509.433 836.554"/><rect class="cls-5" x="746.289" y="902.015" width="4.655" height="97.205" transform="translate(1213.499 131.978) rotate(90)"/><rect class="cls-5" x="797.219" y="914.212" width="4.655" height="38.733" transform="translate(1113.358 1797.134) rotate(180)"/><rect class="cls-5" x="700.014" y="914.212" width="4.655" height="38.733" transform="translate(918.948 1797.134) rotate(180)"/><rect class="cls-5" x="579.811" y="914.212" width="4.655" height="38.733" transform="translate(678.542 1797.134) rotate(180)"/><polygon class="cls-5" points="95.193 878.266 14.189 878.266 14.189 844.189 9.533 844.189 9.533 882.922 12.978 882.922 14.189 882.922 95.193 882.922 95.193 878.266"/><rect class="cls-5" x="733.16" y="88.773" width="42.21" height="7.2" transform="translate(360.903 -731.915) rotate(90)"/><rect class="cls-5" x="720.713" y="98.364" width="58.414" height="4.223" transform="translate(364.66 -719.468) rotate(90)"/><rect class="cls-5" x="532.03" y="91.148" width="46.433" height="6.674" transform="translate(163.996 -530.785) rotate(90)"/><rect class="cls-5" x="537.135" y="94.485" width="46.433" height="4.223" transform="translate(171.213 -533.779) rotate(90)"/><rect class="cls-5" x="652.776" y="-30.343" width="4.223" height="205.956" transform="translate(241.787 -652.276) rotate(90)"/><rect class="cls-5" x="652.776" y="-26.12" width="4.223" height="205.956" transform="translate(246.01 -648.053) rotate(90)"/><rect class="cls-5" x="653.256" y="-11.36" width="4.223" height="184.881" transform="translate(250.713 -644.31) rotate(90)"/><rect class="cls-5" x="653.024" y="-7.369" width="4.223" height="185.345" transform="translate(254.704 -639.856) rotate(90)"/><rect class="cls-5" x="653.024" y="-3.146" width="4.223" height="185.345" transform="translate(258.927 -635.633) rotate(90)"/><rect class="cls-5" x="520.283" y="77.632" width="4.656" height="71.259" transform="translate(150.138 -479.373) rotate(90)"/><rect class="cls-5" x="517.955" y="85.858" width="4.223" height="63.686" transform="translate(152.033 -472.388) rotate(90)"/><rect class="cls-5" x="507.837" y="119.813" width="4.223" height="57.974" transform="translate(534.162 227.575) rotate(180)"/><rect class="cls-5" x="202.858" y="55.436" width="59.961" height="4.223"/><rect class="cls-5" x="64.125" y="55.436" width="69.401" height="4.223"/><rect class="cls-5" x="542.721" y="156.248" width="4.223" height="79.453" transform="translate(255.073 -418.882) rotate(90)"/><rect class="cls-5" x="584.022" y="281.431" width="4.223" height="33.798" transform="translate(398.728 -357.827) rotate(90)"/><rect class="cls-5" x="535.579" y="286.51" width="3.742" height="24.12" transform="translate(350.285 -308.903) rotate(90)"/><rect class="cls-5" x="547.967" y="426.543" width="4.223" height="112.034" transform="translate(546.904 -137.542) rotate(90)"/><rect class="cls-5" x="8.327" y="362.506" width="89.723" height="4.223"/><polygon class="cls-5" points="120.361 185.675 120.361 128.062 120.053 128.062 117.012 128.062 2.613 128.062 2.613 132.285 117.012 132.285 117.012 185.675 120.361 185.675"/><rect class="cls-5" x="117.012" y="213.658" width="3.349" height="117.193"/><rect class="cls-5" x="486.981" y="110.933" width="4.223" height="230.475" transform="translate(492.451 382.319) rotate(180)"/><rect class="cls-5" x="491.204" y="110.933" width="4.223" height="789.374" transform="translate(500.897 941.218) rotate(180)"/><rect class="cls-5" x="495.173" y="905.024" width="4.223" height="22.1" transform="translate(927.624 348.766) rotate(90)"/><rect class="cls-5" x="495.173" y="891.369" width="4.223" height="22.1" transform="translate(913.969 335.111) rotate(90)"/><rect class="cls-5" x="18.379" y="830.284" width="4.223" height="17.878"/><rect class="cls-5" x="116.575" y="362.506" width="4.223" height="55.491"/><rect class="cls-5" x="116.575" y="445.98" width="4.223" height="68.481"/><rect class="cls-5" x="116.575" y="529.833" width="4.223" height="62.094"/><rect class="cls-5" x="116.575" y="627.06" width="4.223" height="176.485"/><rect class="cls-5" x="599.12" y="904.901" width="10.765" height="4.061" transform="translate(1025.699 232.406) rotate(90)"/><rect class="cls-5" x="844.082" y="821.29" width="4.223" height="184.355" transform="translate(1273.926 -2.75) rotate(90)"/><rect class="cls-5" x="844.082" y="816.727" width="4.223" height="184.355" transform="translate(1269.364 -7.312) rotate(90)"/><rect class="cls-5" x="156.003" y="842.291" width="71.901" height="3.747"/><rect class="cls-5" x="64.344" y="842.291" width="63.675" height="3.747"/><rect class="cls-5" x="730.418" y="683.128" width="3.747" height="170.947" transform="translate(1015.158 -33.713) rotate(90)"/><polygon class="cls-5" points="342.768 574.608 328.865 574.608 328.865 561.015 324.642 561.015 324.642 574.608 324.642 578.395 324.642 578.831 342.768 578.831 342.768 574.608"/><polygon class="cls-5" points="324.827 560.831 202.112 560.831 202.112 507.446 353.197 507.446 359.526 507.446 359.526 365.113 353.197 365.113 353.197 500.776 196.03 500.776 196.03 500.992 195.441 500.992 195.441 560.831 195.441 567.501 202.112 567.501 324.827 567.501 324.827 560.831"/><rect class="cls-7" x="803.023" y="195.416" width="13.717" height="13.717" transform="translate(526.421 -677.631) rotate(90)"/><rect class="cls-7" x="747.808" y="70.058" width="10.057" height="10.057" transform="translate(342.188 -747.774) rotate(90)"/><rect class="cls-7" x="548.945" y="115.855" width="14.247" height="13.717" transform="translate(193.047 -503.378) rotate(90)"/><rect class="cls-7" x="491.39" y="191.227" width="13.717" height="13.717" transform="translate(210.599 -370.186) rotate(90)"/><rect class="cls-7" x="491.39" y="617.137" width="13.717" height="13.717" transform="translate(636.509 55.724) rotate(90)"/><rect class="cls-7" x="488.41" y="756.683" width="13.717" height="13.717" transform="translate(773.075 198.25) rotate(90)"/><rect class="cls-7" x="490.426" y="897.297" width="13.717" height="13.717" transform="translate(915.706 336.848) rotate(90)"/><rect class="cls-7" x="646.415" y="756.683" width="13.717" height="13.717" transform="translate(931.08 40.245) rotate(90)"/><rect class="cls-7" x="648.304" y="617.137" width="13.717" height="13.717" transform="translate(793.423 -101.191) rotate(90)"/><rect class="cls-7" x="804.06" y="617.137" width="13.717" height="13.717" transform="translate(949.18 -256.947) rotate(90)"/><rect class="cls-7" x="924.654" y="617.137" width="13.717" height="13.717" transform="translate(1069.773 -377.541) rotate(90)"/><rect class="cls-7" x="924.654" y="756.683" width="13.717" height="13.717" transform="translate(1209.32 -237.994) rotate(90)"/><rect class="cls-7" x="804.602" y="756.683" width="13.717" height="13.717" transform="translate(1089.268 -117.942) rotate(90)"/><rect class="cls-7" x="920.703" y="897.639" width="13.717" height="13.717" transform="translate(1346.324 -93.087) rotate(90)"/><rect class="cls-7" x="648.304" y="475.702" width="13.717" height="13.717" transform="translate(651.988 -242.626) rotate(90)"/><rect class="cls-7" x="648.304" y="334.704" width="13.717" height="13.717" transform="translate(510.99 -383.623) rotate(90)"/><rect class="cls-7" x="804.06" y="334.55" width="13.717" height="13.717" transform="translate(666.593 -539.533) rotate(90)"/><rect class="cls-7" x="804.06" y="475.176" width="13.717" height="13.717" transform="translate(807.218 -398.908) rotate(90)"/><rect class="cls-7" x="835.317" y="313.833" width="8.721" height="50.154" transform="translate(692.853 -570.79) rotate(90)"/><rect class="cls-7" x="849.794" y="364.437" width="25.698" height="4.223" transform="translate(743.456 -566.118) rotate(90)"/><rect class="cls-7" x="850.293" y="410.618" width="25.698" height="4.223" transform="translate(790.136 -520.436) rotate(90)"/><polygon class="cls-5" points="419.862 578.831 419.862 578.831 419.862 574.608 419.862 558.951 415.639 558.951 415.639 574.608 363.749 574.608 363.749 365.113 359.526 365.113 359.526 574.608 359.526 578.831 363.749 578.831 415.639 578.831 415.639 578.831 419.862 578.831"/><rect class="cls-5" x="415.639" y="432.401" width="4.223" height="79.268"/><rect class="cls-5" x="842.53" y="628.123" width="4.223" height="1.239" transform="translate(987.649 -285.922) rotate(90)"/><rect class="cls-5" x="842.53" y="646.123" width="4.223" height="1.239" transform="translate(1005.649 -267.922) rotate(90)"/><rect class="cls-7" x="923.535" y="643.638" width="25.45" height="4.223" transform="translate(1096.274 -360.534) rotate(90)"/><rect class="cls-7" x="922.45" y="689.818" width="27.62" height="4.223" transform="translate(1142.454 -314.354) rotate(90)"/><rect class="cls-7" x="922.45" y="736.744" width="27.62" height="4.223" transform="translate(1189.381 -267.427) rotate(90)"/><rect class="cls-7" x="922.45" y="782.803" width="27.62" height="4.223" transform="translate(1235.44 -221.368) rotate(90)"/><rect class="cls-7" x="922.45" y="831.009" width="27.62" height="4.223" transform="translate(1283.645 -173.163) rotate(90)"/><rect class="cls-7" x="922.45" y="878.68" width="27.62" height="4.223" transform="translate(1331.317 -125.492) rotate(90)"/><rect class="cls-7" x="906.188" y="869.678" width="50.708" height="5.212" transform="translate(1318.092 -129.281) rotate(90)"/><rect class="cls-7" x="917.857" y="897.452" width="2.296" height="16.387" transform="translate(1338.915 -83.383) rotate(90)"/><rect class="cls-7" x="782.103" y="895.155" width="4.223" height="27.498" transform="translate(1207.384 54.667) rotate(90)"/><rect class="cls-8" x="685.04" y="883.716" width="3.689" height="53.507" transform="translate(1111.62 153.561) rotate(90)"/><rect class="cls-7" x="678.909" y="895.217" width="3.476" height="30.291" transform="translate(1105.275 159.692) rotate(90)"/><rect class="cls-7" x="646.415" y="898.383" width="13.717" height="13.717" transform="translate(1072.78 181.945) rotate(90)"/><rect class="cls-5" x="792.563" y="916.061" width="4.655" height="36.884" transform="translate(1104.048 1798.982) rotate(180)"/><rect class="cls-5" x="788.513" y="916.061" width="4.655" height="36.884" transform="translate(1095.947 1798.982) rotate(180)"/><rect class="cls-5" x="783.858" y="916.061" width="4.655" height="36.884" transform="translate(1086.636 1798.982) rotate(180)"/><rect class="cls-5" x="779.202" y="916.061" width="4.655" height="36.884" transform="translate(1077.326 1798.982) rotate(180)"/><rect class="cls-5" x="774.547" y="916.061" width="4.655" height="36.884" transform="translate(1068.015 1798.982) rotate(180)"/><rect class="cls-5" x="770.465" y="916.061" width="4.655" height="36.884" transform="translate(1059.851 1798.982) rotate(180)"/><polygon class="cls-5" points="198.823 878.266 116.608 878.266 116.608 846.423 111.953 846.423 111.953 882.922 112.077 882.922 116.608 882.922 198.823 882.922 198.823 878.266"/><rect class="cls-5" x="679.902" y="916.061" width="4.655" height="36.884" transform="translate(878.725 1798.982) rotate(180)"/><rect class="cls-5" x="671.197" y="916.061" width="4.655" height="36.884" transform="translate(861.314 1798.982) rotate(180)"/><rect class="cls-5" x="666.541" y="916.061" width="4.655" height="36.884" transform="translate(852.003 1798.982) rotate(180)"/><rect class="cls-5" x="661.886" y="916.061" width="4.655" height="36.884" transform="translate(842.692 1798.982) rotate(180)"/><rect class="cls-5" x="657.804" y="916.061" width="4.655" height="36.884" transform="translate(834.529 1798.982) rotate(180)"/><rect class="cls-5" x="653.149" y="916.061" width="4.655" height="36.884" transform="translate(825.218 1798.982) rotate(180)"/><rect class="cls-5" x="675.852" y="916.061" width="4.655" height="36.884" transform="translate(870.625 1798.982) rotate(180)"/><rect class="cls-5" x="571.105" y="916.061" width="4.655" height="36.884" transform="translate(661.131 1798.982) rotate(180)"/><rect class="cls-5" x="566.45" y="916.061" width="4.655" height="36.884" transform="translate(651.82 1798.982) rotate(180)"/><rect class="cls-5" x="561.794" y="916.061" width="4.655" height="36.884" transform="translate(642.509 1798.982) rotate(180)"/><rect class="cls-5" x="557.712" y="916.061" width="4.655" height="36.884" transform="translate(634.346 1798.982) rotate(180)"/><rect class="cls-5" x="553.057" y="916.061" width="4.655" height="36.884" transform="translate(625.035 1798.982) rotate(180)"/><rect class="cls-5" x="575.76" y="916.061" width="4.655" height="36.884" transform="translate(670.442 1798.982) rotate(180)"/><rect class="cls-5" x="729.017" y="281.866" width="4.563" height="100.805" transform="translate(577.832 -469.053) rotate(90)"/><path class="cls-8" d="M507.837,177.786s-11.661.812-12.41,13.441" transform="translate(-485.735 -70.023)"/><rect class="cls-5" x="653.029" y="1.072" width="4.214" height="185.345" transform="translate(263.146 -631.415) rotate(90)"/><rect class="cls-8" x="748.553" y="287.033" width="14.464" height="14.464" transform="translate(564.316 -531.543) rotate(90)"/><rect class="cls-8" x="718.324" y="270.212" width="12.414" height="48.043" transform="translate(533.031 -500.321) rotate(90)"/><rect class="cls-5" x="499.082" y="293.467" width="3.742" height="10.206" transform="translate(313.788 -272.407) rotate(90)"/><rect class="cls-5" x="557.254" y="317.316" width="49.908" height="7.712" transform="translate(417.645 -331.059) rotate(90)"/><rect class="cls-5" x="538.316" y="306.09" width="6.826" height="73.245" transform="translate(398.707 -269.04) rotate(90)"/><rect class="cls-5" x="592.402" y="332.54" width="4.223" height="16.899" transform="translate(449.769 -323.547) rotate(90)"/><rect class="cls-5" x="531.288" y="311.015" width="3.167" height="73.765" transform="translate(395.035 -254.997) rotate(90)"/><rect class="cls-5" x="81.7" y="276.102" width="4.223" height="27.312"/><rect class="cls-5" x="81.908" y="317.195" width="4.223" height="9.433"/><rect class="cls-5" x="585.298" y="342.608" width="3.742" height="30.606" transform="translate(459.345 -299.281) rotate(90)"/><rect class="cls-7" x="491.39" y="332.409" width="13.717" height="13.717" transform="translate(351.781 -229.004) rotate(90)"/><rect class="cls-7" x="481.276" y="172.506" width="24.456" height="4.228" transform="translate(182.39 -388.907) rotate(90)"/><rect class="cls-7" x="450.636" y="251.314" width="85.898" height="4.391" transform="translate(261.36 -310.099) rotate(90)"/><rect class="cls-7" x="480.373" y="362.233" width="26.07" height="4.038" transform="translate(371.925 -199.18) rotate(90)"/><rect class="cls-7" x="480.156" y="414.156" width="26.319" height="4.223" transform="translate(423.849 -147.071) rotate(90)"/><rect class="cls-7" x="480.063" y="456.52" width="26.691" height="4.038" transform="translate(466.213 -104.893) rotate(90)"/><rect class="cls-7" x="480.87" y="503.757" width="25.077" height="4.038" transform="translate(513.45 -57.656) rotate(90)"/><rect class="cls-7" x="480.001" y="550.436" width="26.815" height="4.038" transform="translate(560.128 -10.977) rotate(90)"/><rect class="cls-7" x="480.933" y="596.679" width="24.951" height="4.038" transform="translate(606.371 35.266) rotate(90)"/><rect class="cls-7" x="480.294" y="645.362" width="26.07" height="3.879" transform="translate(654.895 83.949) rotate(90)"/><rect class="cls-7" x="480.249" y="692.255" width="26.319" height="4.038" transform="translate(701.948 130.842) rotate(90)"/><rect class="cls-7" x="480.56" y="739.135" width="25.511" height="4.223" transform="translate(748.828 177.908) rotate(90)"/><rect class="cls-7" x="480.405" y="787.459" width="25.822" height="4.223" transform="translate(797.152 226.232) rotate(90)"/><rect class="cls-7" x="480.263" y="833.472" width="25.946" height="4.064" transform="translate(843.006 272.245) rotate(90)"/><rect class="cls-7" x="480.822" y="879.406" width="24.829" height="4.064" transform="translate(888.939 318.178) rotate(90)"/><rect class="cls-5" x="486.235" y="754.002" width="4.223" height="164.183" transform="translate(490.958 1602.164) rotate(180)"/><rect class="cls-7" x="572.517" y="113.916" width="4.223" height="27.31" transform="translate(216.465 -517.081) rotate(90)"/><rect class="cls-7" x="732.228" y="113.357" width="4.223" height="28.428" transform="translate(376.175 -676.792) rotate(90)"/><rect class="cls-5" x="780.661" y="97.388" width="4.22" height="44.847" transform="translate(416.848 -732.983) rotate(90)"/><rect class="cls-7" x="802.742" y="117.701" width="13.717" height="13.717" transform="translate(448.426 -755.064) rotate(90)"/><rect class="cls-7" x="801.189" y="177.164" width="26.319" height="4.223" transform="translate(507.889 -705.095) rotate(90)"/><rect class="cls-7" x="800.94" y="223.346" width="26.815" height="4.223" transform="translate(554.071 -658.913) rotate(90)"/><rect class="cls-7" x="800.94" y="270.025" width="26.815" height="4.223" transform="translate(600.749 -612.235) rotate(90)"/><rect class="cls-7" x="801.933" y="316.951" width="24.829" height="4.223" transform="translate(647.676 -565.308) rotate(90)"/><rect class="cls-5" x="829.542" y="108.841" width="6.858" height="24.579" transform="translate(468.367 -781.864) rotate(90)"/><polyline class="cls-8" points="353.197 77.223 353.197 59.037 359.526 59.037"/><polyline class="cls-8" points="353.197 101.307 353.197 83.121 359.526 83.121"/><polyline class="cls-8" points="353.197 123.902 353.197 105.715 359.526 105.715"/><polyline class="cls-8" points="353.197 132.592 353.197 129.303 359.526 129.303"/><polyline class="cls-8" points="353.197 154.379 353.197 136.192 359.526 136.192"/><polyline class="cls-8" points="353.197 177.222 353.197 159.036 359.526 159.036"/><polyline class="cls-8" points="353.197 200.313 353.197 182.126 359.526 182.126"/><polyline class="cls-8" points="353.197 224.211 353.197 206.024 359.526 206.024"/><polyline class="cls-8" points="353.197 247.301 353.197 229.115 359.526 229.115"/><polyline class="cls-8" points="353.319 264.588 353.319 250.871 359.648 250.871"/><polyline class="cls-8" points="359.526 132.251 353.197 132.251 334.947 132.251"/><line class="cls-8" x1="347.237" y1="59.037" x2="334.947" y2="59.037"/><line class="cls-8" x1="347.36" y1="82.437" x2="335.071" y2="82.437"/><line class="cls-8" x1="347.237" y1="105.715" x2="334.947" y2="105.715"/><line class="cls-8" x1="347.237" y1="129.303" x2="334.947" y2="129.303"/><line class="cls-8" x1="347.237" y1="136.192" x2="334.947" y2="136.192"/><line class="cls-8" x1="347.237" y1="159.036" x2="334.947" y2="159.036"/><line class="cls-8" x1="347.237" y1="182.126" x2="334.947" y2="182.126"/><line class="cls-8" x1="347.237" y1="206.024" x2="334.947" y2="206.024"/><line class="cls-8" x1="347.237" y1="229.115" x2="334.947" y2="229.115"/><line class="cls-8" x1="347.36" y1="250.871" x2="335.071" y2="250.871"/><line class="cls-8" x1="334.947" y1="43.455" x2="330.725" y2="47.678"/><line class="cls-8" x1="334.947" y1="61.395" x2="330.725" y2="61.395"/><line class="cls-8" x1="335.382" y1="64.549" x2="331.159" y2="64.549"/><line class="cls-8" x1="335.382" y1="67.704" x2="331.159" y2="67.704"/><line class="cls-8" x1="335.382" y1="70.858" x2="331.159" y2="70.858"/><line class="cls-8" x1="335.382" y1="74.368" x2="331.159" y2="74.368"/><line class="cls-8" x1="335.382" y1="74.012" x2="331.159" y2="74.012"/><line class="cls-8" x1="334.947" y1="77.167" x2="330.725" y2="77.167"/><line class="cls-8" x1="334.947" y1="80.321" x2="330.725" y2="80.321"/><line class="cls-8" x1="334.947" y1="83.476" x2="330.725" y2="83.476"/><line class="cls-8" x1="335.382" y1="86.63" x2="331.159" y2="86.63"/><line class="cls-8" x1="335.382" y1="89.784" x2="331.159" y2="89.784"/><line class="cls-8" x1="335.382" y1="92.939" x2="331.159" y2="92.939"/><line class="cls-8" x1="335.382" y1="96.093" x2="331.159" y2="96.093"/><line class="cls-8" x1="327.002" y1="43.455" x2="327.002" y2="47.678"/><line class="cls-8" x1="323.588" y1="43.455" x2="323.588" y2="47.678"/><line class="cls-8" x1="320.174" y1="43.455" x2="320.174" y2="47.678"/><line class="cls-8" x1="316.76" y1="43.455" x2="316.76" y2="47.678"/><line class="cls-8" x1="313.346" y1="43.455" x2="313.346" y2="47.678"/><rect class="cls-7" x="747.406" y="117.701" width="13.717" height="13.717" transform="translate(393.09 -699.728) rotate(90)"/><rect class="cls-7" x="783.315" y="106.527" width="5.028" height="26.505" transform="translate(419.873 -736.072) rotate(90)"/><line class="cls-8" x1="286.407" y1="43.455" x2="286.407" y2="47.678"/><line class="cls-8" x1="282.981" y1="43.455" x2="282.981" y2="47.678"/><line class="cls-8" x1="279.554" y1="43.455" x2="279.554" y2="47.678"/><line class="cls-8" x1="279.501" y1="43.02" x2="279.501" y2="47.242"/><line class="cls-8" x1="276.128" y1="43.455" x2="276.128" y2="47.678"/><line class="cls-8" x1="269.275" y1="43.455" x2="269.275" y2="47.678"/><line class="cls-8" x1="272.701" y1="43.455" x2="272.701" y2="47.678"/><line class="cls-8" x1="321.602" y1="61.395" x2="321.602" y2="125.392"/><line class="cls-8" x1="320.174" y1="68.471" x2="320.174" y2="122.971"/><line class="cls-8" x1="313.098" y1="68.875" x2="320.174" y2="68.875"/><line class="cls-8" x1="313.098" y1="122.598" x2="320.174" y2="122.598"/><line class="cls-8" x1="313.098" y1="66.485" x2="313.098" y2="139.59"/><line class="cls-8" x1="330.725" y1="139.404" x2="313.098" y2="139.404"/><line class="cls-8" x1="334.947" y1="122.788" x2="331.253" y2="122.788"/><line class="cls-8" x1="334.947" y1="125.942" x2="331.253" y2="125.942"/><line class="cls-8" x1="334.947" y1="129.096" x2="331.253" y2="129.096"/><line class="cls-8" x1="334.947" y1="132.251" x2="331.253" y2="132.251"/><line class="cls-8" x1="334.947" y1="135.405" x2="331.253" y2="135.405"/><line class="cls-8" x1="334.947" y1="138.56" x2="331.253" y2="138.56"/><line class="cls-8" x1="334.947" y1="141.714" x2="331.253" y2="141.714"/><line class="cls-8" x1="335.118" y1="169.746" x2="330.725" y2="169.746"/><line class="cls-8" x1="335.118" y1="172.901" x2="330.725" y2="172.901"/><line class="cls-8" x1="335.118" y1="176.055" x2="330.725" y2="176.055"/><line class="cls-8" x1="335.118" y1="179.209" x2="330.725" y2="179.209"/><line class="cls-8" x1="335.118" y1="182.364" x2="330.725" y2="182.364"/><line class="cls-8" x1="335.118" y1="185.518" x2="330.725" y2="185.518"/><line class="cls-8" x1="335.118" y1="188.673" x2="330.725" y2="188.673"/><line class="cls-8" x1="335.033" y1="215.559" x2="330.64" y2="215.559"/><line class="cls-8" x1="335.033" y1="218.714" x2="330.64" y2="218.714"/><line class="cls-8" x1="335.033" y1="221.868" x2="330.64" y2="221.868"/><line class="cls-8" x1="335.033" y1="225.023" x2="330.64" y2="225.023"/><line class="cls-8" x1="335.033" y1="228.177" x2="330.64" y2="228.177"/><line class="cls-8" x1="335.033" y1="231.331" x2="330.64" y2="231.331"/><line class="cls-8" x1="335.033" y1="234.486" x2="330.64" y2="234.486"/><line class="cls-8" x1="335.033" y1="237.494" x2="330.64" y2="237.494"/><line class="cls-8" x1="335.109" y1="262.199" x2="330.716" y2="262.199"/><rect class="cls-7" x="731.298" y="307.517" width="8.194" height="9.683" rx="2.333" ry="2.333" transform="translate(562.019 -493.059) rotate(90)"/><rect class="cls-8" x="731.36" y="307.207" width="8.442" height="6.828" transform="translate(560.467 -494.983) rotate(90)"/><rect class="cls-7" x="709.449" y="308.448" width="8.194" height="9.683" rx="2.333" ry="2.333" transform="translate(541.101 -470.279) rotate(90)"/><rect class="cls-8" x="709.511" y="308.138" width="8.442" height="6.828" transform="translate(539.549 -472.203) rotate(90)"/><rect class="cls-7" x="491.39" y="115.435" width="13.717" height="13.717" transform="translate(134.807 -445.978) rotate(90)"/><polygon class="cls-8" points="163.425 140.571 175.431 140.571 181.434 130.174 175.431 119.777 163.425 119.777 157.422 130.174 163.425 140.571"/><rect class="cls-7" x="648.304" y="193.339" width="13.717" height="13.717" transform="translate(369.625 -524.989) rotate(90)"/><polygon class="cls-5" points="10.046 179.271 91.128 179.271 91.128 175.048 10.046 175.048 10.046 161.021 5.716 161.021 5.716 184.608 10.046 184.608 10.046 179.271"/><line class="cls-8" x1="5.716" y1="165.858" x2="1.247" y2="165.858"/><line class="cls-8" x1="5.716" y1="116.78" x2="1.247" y2="116.78"/><line class="cls-8" x1="5.716" y1="140.537" x2="1.247" y2="140.537"/><line class="cls-8" x1="5.716" y1="169.956" x2="1.247" y2="169.956"/><line class="cls-8" x1="5.716" y1="174.054" x2="1.247" y2="174.054"/><line class="cls-8" x1="5.716" y1="178.151" x2="1.247" y2="178.151"/><line class="cls-8" x1="5.716" y1="182.249" x2="1.247" y2="182.249"/><line class="cls-8" x1="5.716" y1="186.346" x2="1.247" y2="186.346"/><line class="cls-8" x1="22.102" y1="92.369" x2="1.247" y2="92.369"/><line class="cls-8" x1="22.102" y1="88.893" x2="10.046" y2="88.893"/><line class="cls-8" x1="22.102" y1="68.037" x2="9.693" y2="63.195"/><rect class="cls-7" x="522.967" y="104.899" width="4.378" height="25.45" transform="translate(157.045 -477.555) rotate(90)"/><line class="cls-8" x1="55.806" y1="40.96" x2="55.806" y2="45.462"/><line class="cls-8" x1="59.966" y1="40.933" x2="59.966" y2="45.435"/><line class="cls-8" x1="68.285" y1="40.987" x2="68.285" y2="45.489"/><line class="cls-8" x1="51.646" y1="40.879" x2="51.646" y2="45.381"/><line class="cls-8" x1="26.696" y1="40.849" x2="26.696" y2="45.412"/><line class="cls-8" x1="22.102" y1="40.957" x2="22.102" y2="45.52"/><line class="cls-8" x1="17.633" y1="40.849" x2="17.633" y2="45.412"/><line class="cls-7" x1="13.663" y1="40.849" x2="13.663" y2="45.412"/><line class="cls-8" x1="72.848" y1="15.523" x2="66.174" y2="15.523"/><rect class="cls-8" x="555.479" y="80.519" width="2.762" height="2.762" transform="translate(153.025 -544.982) rotate(90)"/><rect class="cls-7" x="552.39" y="69.982" width="10.057" height="11.018" transform="translate(147.174 -551.95) rotate(90)"/><path class="cls-8" d="M654.235,125.335H672.7A18.032,18.032,0,0,0,654.67,107.3c-.146,0-.29.008-.435.011Z" transform="translate(-485.735 -70.023)"/><path class="cls-8" d="M654.235,125.335V107.3A17.824,17.824,0,0,0,636.2,124.911c0,.142.008.283.011.424Z" transform="translate(-485.735 -70.023)"/><path class="cls-8" d="M619.261,125.459H636.2c0-7.971-7.407-14.432-16.543-14.432-.134,0-.266.006-.4.009Z" transform="translate(-485.735 -70.023)"/><path class="cls-8" d="M688.592,125.459V111.027c-8.495,0-15.381,6.309-15.381,14.092,0,.114.007.226.009.34Z" transform="translate(-485.735 -70.023)"/><line class="cls-8" x1="272.13" y1="15.617" x2="266.297" y2="15.617"/><line class="cls-8" x1="272.13" y1="17.944" x2="266.297" y2="17.944"/><line class="cls-8" x1="270.237" y1="15.617" x2="270.237" y2="17.944"/><line class="cls-8" x1="268.53" y1="15.617" x2="268.53" y2="17.944"/><path class="cls-7" d="M597.561,244.965l.548-.014V223.589h-.748l0,.745v19.892h-.125a20.289,20.289,0,0,1-20.262-19.894l.024-.745h-.773v.372a21.035,21.035,0,0,0,21.011,21.011C597.348,244.972,597.455,244.969,597.561,244.965Z" transform="translate(-485.735 -70.023)"/><path class="cls-7" d="M549.786,932.937l.535-.011V916.249h-.73l0,.582v15.53h-.122c-10.788,0-19.587-6.94-19.781-15.531l.024-.582h-.755v.291c0,9.045,9.2,16.4,20.511,16.4C549.578,932.943,549.682,932.94,549.786,932.937Z" transform="translate(-485.735 -70.023)"/><path class="cls-7" d="M508.892,933.252l-.556-.011V915.934h.758l0,.6v16.115h.127c11.194,0,20.325-7.2,20.526-16.117l-.025-.6h.783v.3c0,9.386-9.548,17.022-21.285,17.022C509.108,933.258,509,933.255,508.892,933.252Z" transform="translate(-485.735 -70.023)"/><path class="cls-7" d="M753.5,933.252l.517-.011V916.255h-.705l0,.592v15.817H753.2c-10.424,0-18.926-7.069-19.114-15.818l.023-.592h-.729v.3c0,9.212,8.891,16.707,19.82,16.707C753.3,933.258,753.4,933.255,753.5,933.252Z" transform="translate(-485.735 -70.023)"/><path class="cls-7" d="M713.984,933.572l-.537-.011V915.934h.732l0,.615v16.414h.122c10.817,0,19.64-7.335,19.834-16.415l-.024-.615h.757v.307c0,9.559-9.226,17.337-20.567,17.337C714.192,933.578,714.087,933.575,713.984,933.572Z" transform="translate(-485.735 -70.023)"/><rect class="cls-8" x="545.544" y="194.049" width="2.29" height="59.08" transform="translate(284.543 -393.123) rotate(90)"/><polyline class="cls-8" points="85.923 142.523 22.102 142.523 22.102 164.257 86.907 164.257"/><line class="cls-8" x1="84.02" y1="132.285" x2="84.02" y2="175.048"/><line class="cls-8" x1="79.339" y1="132.285" x2="79.339" y2="175.048"/><line class="cls-8" x1="74.658" y1="132.285" x2="74.658" y2="175.048"/><line class="cls-8" x1="69.977" y1="132.285" x2="69.977" y2="175.048"/><line class="cls-8" x1="65.297" y1="132.285" x2="65.297" y2="175.048"/><line class="cls-8" x1="60.616" y1="132.285" x2="60.616" y2="175.048"/><line class="cls-8" x1="55.935" y1="132.285" x2="55.935" y2="175.048"/><line class="cls-8" x1="51.254" y1="132.285" x2="51.254" y2="175.048"/><line class="cls-8" x1="46.574" y1="132.285" x2="46.574" y2="175.048"/><line class="cls-8" x1="41.893" y1="132.285" x2="41.893" y2="175.048"/><line class="cls-8" x1="37.212" y1="132.285" x2="37.212" y2="175.048"/><line class="cls-8" x1="32.531" y1="132.285" x2="32.531" y2="175.048"/><line class="cls-8" x1="52.146" y1="154.71" x2="60.616" y2="175.048"/><line class="cls-8" x1="54.876" y1="154.71" x2="63.443" y2="175.048"/><line class="cls-8" x1="9.693" y1="120.333" x2="24.214" y2="120.333"/><line class="cls-8" x1="24.214" y1="120.333" x2="24.214" y2="123.84"/><line class="cls-8" x1="22.476" y1="120.333" x2="22.476" y2="123.84"/><line class="cls-8" x1="104.411" y1="226.435" x2="104.411" y2="230.177"/><line class="cls-8" x1="117.228" y1="226.195" x2="106.273" y2="222.224"/><line class="cls-8" x1="104.411" y1="230.177" x2="114.094" y2="234.887"/><line class="cls-8" x1="116.737" y1="264.527" x2="114.094" y2="234.887"/><polyline class="cls-8" points="116.737 264.527 120.361 264.527 124.693 259.468 122.102 256.861 118.905 256.861"/><polyline class="cls-8" points="117.012 249.707 120.798 249.707 124.693 254.067 122.102 256.861"/><polyline class="cls-8" points="114.244 236.566 115.416 236.566 115.416 233.77 112.375 233.77"/><polyline class="cls-8" points="92.617 276.102 115.416 278.244 116.737 286.016"/><line class="cls-8" x1="92.617" y1="286.016" x2="92.617" y2="289.759"/><rect class="cls-8" x="598.795" y="222.903" width="3.483" height="4.854" transform="translate(340.132 -445.229) rotate(90)"/><g class="cls-9"><path class="cls-8" d="M903.134,490.465V475.093c7.412,0,13.42,6.72,13.42,15.01,0,.121-.006.241-.008.362Z" transform="translate(-485.735 -70.023)"/></g><polygon class="cls-5" points="83.812 330.851 80.955 330.851 80.955 344.755 77.223 344.755 77.223 330.851 74.658 330.851 74.658 347.734 83.812 347.734 83.812 330.851"/><rect class="cls-5" x="556.209" y="464.792" width="28.613" height="2.7" transform="translate(550.923 -174.397) rotate(90)"/><rect class="cls-5" x="529.847" y="359.064" width="3.167" height="72.008" transform="translate(440.764 -206.387) rotate(90)"/><line class="cls-8" x1="77.433" y1="323.461" x2="77.433" y2="326.628"/><line class="cls-8" x1="74.235" y1="323.461" x2="74.235" y2="326.628"/><line class="cls-8" x1="71.037" y1="323.461" x2="71.037" y2="326.628"/><line class="cls-8" x1="67.839" y1="323.461" x2="67.839" y2="326.628"/><line class="cls-8" x1="64.641" y1="323.461" x2="64.641" y2="326.628"/><line class="cls-8" x1="61.443" y1="323.461" x2="61.443" y2="326.628"/><line class="cls-8" x1="58.245" y1="323.461" x2="58.245" y2="326.628"/><line class="cls-8" x1="55.047" y1="323.461" x2="55.047" y2="326.628"/><line class="cls-8" x1="51.849" y1="323.461" x2="51.849" y2="326.628"/><line class="cls-8" x1="48.651" y1="323.461" x2="48.651" y2="326.628"/><line class="cls-8" x1="45.453" y1="323.461" x2="45.453" y2="326.628"/><line class="cls-8" x1="42.255" y1="323.461" x2="42.255" y2="326.628"/><line class="cls-8" x1="39.057" y1="323.461" x2="39.057" y2="326.628"/><line class="cls-8" x1="35.86" y1="323.461" x2="35.86" y2="326.628"/><line class="cls-8" x1="32.662" y1="323.461" x2="32.662" y2="326.628"/><line class="cls-8" x1="29.464" y1="323.461" x2="29.464" y2="326.628"/><line class="cls-8" x1="26.266" y1="323.461" x2="26.266" y2="326.628"/><line class="cls-8" x1="23.068" y1="323.461" x2="23.068" y2="326.628"/><line class="cls-8" x1="19.87" y1="323.461" x2="19.87" y2="326.628"/><line class="cls-8" x1="16.672" y1="323.461" x2="16.672" y2="326.628"/><line class="cls-8" x1="13.474" y1="323.461" x2="13.474" y2="326.628"/><rect class="cls-5" x="535.552" y="446.836" width="3.167" height="64.059" transform="translate(530.266 -128.294) rotate(90)"/><line class="cls-8" x1="80.999" y1="407.258" x2="80.999" y2="410.425"/><line class="cls-8" x1="77.786" y1="407.258" x2="77.786" y2="410.425"/><line class="cls-8" x1="74.574" y1="407.258" x2="74.574" y2="410.425"/><line class="cls-8" x1="71.361" y1="407.258" x2="71.361" y2="410.425"/><line class="cls-8" x1="68.148" y1="407.258" x2="68.148" y2="410.425"/><line class="cls-8" x1="64.936" y1="407.258" x2="64.936" y2="410.425"/><line class="cls-8" x1="61.723" y1="407.258" x2="61.723" y2="410.425"/><line class="cls-8" x1="58.51" y1="407.258" x2="58.51" y2="410.425"/><line class="cls-8" x1="55.298" y1="407.258" x2="55.298" y2="410.425"/><line class="cls-8" x1="52.085" y1="407.258" x2="52.085" y2="410.425"/><line class="cls-8" x1="48.872" y1="407.258" x2="48.872" y2="410.425"/><line class="cls-8" x1="45.66" y1="407.258" x2="45.66" y2="410.425"/><line class="cls-8" x1="42.447" y1="407.258" x2="42.447" y2="410.425"/><line class="cls-8" x1="39.234" y1="407.258" x2="39.234" y2="410.425"/><line class="cls-8" x1="36.022" y1="407.258" x2="36.022" y2="410.425"/><line class="cls-8" x1="32.809" y1="407.258" x2="32.809" y2="410.425"/><line class="cls-8" x1="29.596" y1="407.258" x2="29.596" y2="410.425"/><line class="cls-8" x1="26.384" y1="407.258" x2="26.384" y2="410.425"/><line class="cls-8" x1="23.171" y1="407.258" x2="23.171" y2="410.425"/><rect class="cls-7" x="491.39" y="475.702" width="13.717" height="13.717" transform="translate(495.074 -85.711) rotate(90)"/><rect class="cls-7" x="538.658" y="475.08" width="2.421" height="21.604" transform="translate(540.016 -124.01) rotate(90)"/><rect class="cls-7" x="558.287" y="292.325" width="2.421" height="19.336" transform="translate(375.756 -327.528) rotate(90)"/><rect class="cls-7" x="514.511" y="292.325" width="2.421" height="19.336" transform="translate(331.98 -283.752) rotate(90)"/><rect class="cls-8" x="546.803" y="303.374" width="23.929" height="27.747" transform="translate(390.28 -311.544) rotate(90)"/><line class="cls-8" x1="86.907" y1="235.259" x2="59.159" y2="259.188"/><line class="cls-8" x1="59.159" y1="235.259" x2="86.907" y2="259.188"/><rect class="cls-8" x="504.711" y="303.374" width="23.929" height="27.747" transform="translate(348.188 -269.451) rotate(90)"/><line class="cls-8" x1="44.814" y1="235.259" x2="17.067" y2="259.188"/><line class="cls-8" x1="17.067" y1="235.259" x2="44.814" y2="259.188"/><rect class="cls-8" x="557.356" y="324.107" width="4.283" height="20.298" transform="translate(408.018 -295.265) rotate(90)"/><rect class="cls-8" x="514.534" y="324.107" width="4.283" height="20.298" transform="translate(365.196 -252.443) rotate(90)"/><rect class="cls-5" x="593.79" y="571.687" width="2.791" height="22.803" transform="translate(692.539 -82.121) rotate(90)"/><polygon class="cls-5" points="83.912 514.461 83.912 511.669 79.235 511.669 79.235 541.15 81.908 541.15 81.908 514.461 83.912 514.461"/><line class="cls-8" x1="107.304" y1="529.833" x2="81.7" y2="529.833"/><line class="cls-8" x1="103.045" y1="529.833" x2="103.045" y2="541.15"/><line class="cls-8" x1="81.7" y1="529.833" x2="103.045" y2="541.15"/><rect class="cls-8" x="593.614" y="602.314" width="6.903" height="10.814" transform="translate(719.052 -59.367) rotate(90)"/><rect class="cls-8" x="544.971" y="710.257" width="2.29" height="62.263" transform="translate(801.769 125.249) rotate(90)"/><polyline class="cls-8" points="83.759 660.323 19.938 660.323 19.938 682.057 84.742 682.057"/><line class="cls-8" x1="81.855" y1="650.085" x2="81.855" y2="692.848"/><line class="cls-8" x1="77.174" y1="650.085" x2="77.174" y2="692.848"/><line class="cls-8" x1="72.494" y1="650.085" x2="72.494" y2="692.848"/><line class="cls-8" x1="67.813" y1="650.085" x2="67.813" y2="692.848"/><line class="cls-8" x1="63.132" y1="650.085" x2="63.132" y2="692.848"/><line class="cls-8" x1="58.451" y1="650.085" x2="58.451" y2="692.848"/><line class="cls-8" x1="53.771" y1="650.085" x2="53.771" y2="692.848"/><line class="cls-8" x1="49.09" y1="650.085" x2="49.09" y2="692.848"/><line class="cls-8" x1="44.409" y1="650.085" x2="44.409" y2="692.848"/><line class="cls-8" x1="39.728" y1="650.085" x2="39.728" y2="692.848"/><line class="cls-8" x1="35.048" y1="650.085" x2="35.048" y2="692.848"/><line class="cls-8" x1="30.367" y1="650.085" x2="30.367" y2="692.848"/><line class="cls-8" x1="49.982" y1="672.51" x2="58.451" y2="692.848"/><line class="cls-8" x1="52.711" y1="672.51" x2="61.279" y2="692.848"/><rect class="cls-5" x="535.02" y="676.733" width="3.476" height="82.661" transform="translate(769.086 111.282) rotate(90)"/><polygon class="cls-5" points="120.853 693.593 120.853 644.068 113.388 644.068 113.388 693.593 16.392 693.593 16.392 700.451 113.388 700.451 120.853 700.451 120.853 693.593"/><path class="cls-7" d="M598.579,720.407l.548.014v21.363h-.748l0-.745V721.146h-.125A20.289,20.289,0,0,0,578,741.038l.024.745h-.773v-.372A21.035,21.035,0,0,1,598.257,720.4C598.366,720.4,598.473,720.4,598.579,720.407Z" transform="translate(-485.735 -70.023)"/><path class="cls-7" d="M598.579,694.111l.548.014v21.363h-.748l0-.745V694.85h-.125A20.289,20.289,0,0,0,578,714.742l.024.745h-.773v-.372A21.035,21.035,0,0,1,598.257,694.1C598.366,694.1,598.473,694.107,598.579,694.111Z" transform="translate(-485.735 -70.023)"/><polygon class="cls-5" points="120.853 541.15 120.361 541.15 116.54 541.15 8.327 541.15 8.327 545.373 116.54 545.373 116.54 575.291 99.569 575.291 99.569 579.016 116.54 579.016 118.687 579.016 120.853 579.016 120.853 541.15"/><polygon class="cls-5" points="120.715 599.164 120.715 594.162 120.715 591.927 116.737 591.927 111.331 591.927 111.331 579.016 109.451 579.016 109.451 591.927 109.451 594.162 111.331 594.162 116.737 594.162 116.737 599.164 120.715 599.164"/><line class="cls-8" x1="118.687" y1="579.016" x2="118.687" y2="591.927"/><path class="cls-8" d="M558.228,645.315v15.021s6.964.124,10.937-4.842" transform="translate(-485.735 -70.023)"/><path class="cls-8" d="M584.96,645.315v15.021s-6.964.124-10.937-4.842" transform="translate(-485.735 -70.023)"/><polygon class="cls-5" points="72.494 575.291 48.872 575.291 48.872 545.373 46.932 545.373 46.932 579.016 48.872 579.016 72.494 579.016 72.494 575.291"/><rect class="cls-5" x="539.569" y="629.374" width="29.919" height="1.962" transform="translate(699.149 5.804) rotate(90)"/><polyline class="cls-8" points="54.217 545.373 63.132 547.731 67.813 572.56"/><rect class="cls-5" x="515.518" y="646.703" width="4.184" height="44.683" transform="translate(700.92 81.412) rotate(90)"/><rect class="cls-5" x="530.179" y="673.016" width="16.35" height="4.223" transform="translate(727.748 66.75) rotate(90)"/><rect class="cls-5" x="533.009" y="708.775" width="10.692" height="4.223" transform="translate(763.506 102.508) rotate(90)"/><rect class="cls-8" x="500.987" y="678.236" width="34.784" height="30.517" transform="translate(726.138 105.092) rotate(90)"/><line class="cls-8" x1="47.902" y1="606.079" x2="17.386" y2="640.863"/><line class="cls-8" x1="17.386" y1="606.079" x2="47.902" y2="640.863"/><rect class="cls-8" x="487.944" y="691.383" width="20.608" height="4.223" transform="translate(706.008 125.223) rotate(90)"/><polygon class="cls-5" points="181.799 696.705 181.799 682.802 180.837 682.802 179.875 682.802 162.569 682.802 162.569 684.787 179.875 684.787 179.875 696.705 181.799 696.705"/><polyline class="cls-8" points="162.915 678.58 176.151 682.802 176.151 696.705"/><line class="cls-8" x1="165.614" y1="684.787" x2="165.614" y2="686.734"/><line class="cls-8" x1="174.397" y1="687.146" x2="179.814" y2="687.146"/><line class="cls-8" x1="174.397" y1="689.753" x2="179.814" y2="689.753"/><polygon class="cls-5" points="315.333 825.318 327.807 825.318 327.807 829.695 332.03 829.695 332.03 825.318 332.03 822.215 327.807 822.215 315.333 822.215 312.229 822.215 312.229 825.318 312.229 840.993 315.333 840.993 315.333 825.318"/><rect class="cls-7" x="805.579" y="898.816" width="11.762" height="12.634" transform="translate(1230.859 23.649) rotate(90)"/><line class="cls-5" x1="316.14" y1="841.457" x2="316.14" y2="845.555"/><line class="cls-5" x1="320.091" y1="841.457" x2="320.091" y2="845.555"/><line class="cls-5" x1="324.043" y1="841.395" x2="324.043" y2="845.493"/><line class="cls-5" x1="327.994" y1="841.457" x2="327.994" y2="845.555"/><line class="cls-5" x1="331.946" y1="841.489" x2="331.946" y2="845.586"/><line class="cls-5" x1="335.897" y1="841.489" x2="335.897" y2="845.586"/><line class="cls-5" x1="339.849" y1="841.426" x2="339.849" y2="845.524"/><line class="cls-5" x1="343.8" y1="841.489" x2="343.8" y2="845.586"/><line class="cls-5" x1="347.752" y1="841.489" x2="347.752" y2="845.586"/><line class="cls-5" x1="371.461" y1="841.504" x2="371.461" y2="845.602"/><line class="cls-5" x1="375.412" y1="841.504" x2="375.412" y2="845.602"/><line class="cls-5" x1="379.364" y1="841.442" x2="379.364" y2="845.54"/><line class="cls-5" x1="383.315" y1="841.504" x2="383.315" y2="845.602"/><line class="cls-5" x1="387.267" y1="841.536" x2="387.267" y2="845.633"/><line class="cls-5" x1="391.218" y1="841.536" x2="391.218" y2="845.633"/><line class="cls-5" x1="395.17" y1="841.473" x2="395.17" y2="845.571"/><line class="cls-5" x1="399.121" y1="841.536" x2="399.121" y2="845.633"/><line class="cls-5" x1="403.073" y1="841.536" x2="403.073" y2="845.633"/><line class="cls-5" x1="421.025" y1="841.41" x2="421.025" y2="845.508"/><line class="cls-5" x1="424.976" y1="841.41" x2="424.976" y2="845.508"/><line class="cls-5" x1="428.928" y1="841.348" x2="428.928" y2="845.446"/><line class="cls-5" x1="432.879" y1="841.41" x2="432.879" y2="845.508"/><line class="cls-5" x1="436.831" y1="841.442" x2="436.831" y2="845.54"/><line class="cls-5" x1="440.782" y1="841.442" x2="440.782" y2="845.54"/><line class="cls-5" x1="444.734" y1="841.379" x2="444.734" y2="845.477"/><line class="cls-5" x1="448.685" y1="841.442" x2="448.685" y2="845.54"/><line class="cls-5" x1="452.637" y1="841.442" x2="452.637" y2="845.54"/><rect class="cls-7" x="904.302" y="891.082" width="4.857" height="35.847" transform="translate(1330.001 -67.749) rotate(90)"/><rect class="cls-7" x="843.012" y="897.376" width="4.982" height="23.385" transform="translate(1268.836 -6.458) rotate(90)"/><line class="cls-5" x1="312.229" y1="841.457" x2="312.229" y2="845.493"/><line class="cls-8" x1="284.731" y1="840.993" x2="284.731" y2="845.911"/><rect class="cls-7" x="931.747" y="905.215" width="9.296" height="3.952" transform="translate(1357.851 -99.228) rotate(90)"/><polygon class="cls-8" points="191.933 269.803 189.326 269.803 189.326 275.926 176.563 275.926 176.563 277.773 189.326 277.773 190.906 277.773 191.933 277.773 191.933 269.803"/><circle class="cls-8" cx="178.649" cy="274.35" r="1.179"/><line class="cls-8" x1="190.164" y1="265.053" x2="178.062" y2="260.492"/><line class="cls-8" x1="190.071" y1="268.98" x2="190.071" y2="265.053"/><line class="cls-8" x1="182.172" y1="268.98" x2="182.172" y2="265.053"/><circle class="cls-8" cx="180.574" cy="267.428" r="1.179"/><polygon class="cls-5" points="417.399 416.136 415.828 416.136 415.828 368.839 412.662 368.839 412.662 416.136 360.273 416.136 360.273 420.359 417.399 420.359 417.399 416.136"/><rect class="cls-7" x="895.635" y="455.404" width="8.69" height="3.166" transform="translate(871.232 -513.016) rotate(90)"/><rect class="cls-7" x="894.766" y="441.872" width="10.428" height="3.166" transform="translate(857.701 -526.547) rotate(90)"/><rect class="cls-7" x="864.754" y="435.136" width="73.617" height="4.223" transform="translate(1317.391 804.471) rotate(180)"/><path class="cls-7" d="M843.525,630l.386.01v15.045h-.527l0-.525V630.52H843.3a14.288,14.288,0,0,0-14.27,14.01l.017.525H828.5v-.262a14.814,14.814,0,0,1,14.8-14.8C843.375,629.994,843.451,630,843.525,630Z" transform="translate(-485.735 -70.023)"/><path class="cls-7" d="M843.346,611.836l.386.01v15.045h-.527l0-.525V612.357h-.088a14.288,14.288,0,0,0-14.27,14.01l.017.525h-.544v-.262a14.814,14.814,0,0,1,14.8-14.8C843.2,611.831,843.272,611.834,843.346,611.836Z" transform="translate(-485.735 -70.023)"/><path class="cls-7" d="M921.981,751.966l.386.01v15.045h-.527l0-.525V752.487h-.088a14.288,14.288,0,0,0-14.27,14.01l.017.525h-.544v-.262a14.814,14.814,0,0,1,14.8-14.8C921.831,751.961,921.906,751.964,921.981,751.966Z" transform="translate(-485.735 -70.023)"/><rect class="cls-6" x="401.244" y="697.497" width="20.023" height="2.38"/><path class="cls-7" d="M906.5,768.021V769.4H887.479v-1.379H906.5m1-1H886.479V770.4H907.5v-3.379Z" transform="translate(-485.735 -70.023)"/><rect class="cls-6" x="436.626" y="697.429" width="1.872" height="2.379"/><path class="cls-7" d="M923.732,767.952v1.379h-.873v-1.379h.873m1-1H921.86v3.379h2.873v-3.379Z" transform="translate(-485.735 -70.023)"/><line class="cls-5" x1="452.637" y1="828.981" x2="448.685" y2="828.981"/><rect class="cls-7" x="834.059" y="592.895" width="26.627" height="4.223" transform="translate(956.644 -322.389) rotate(90)"/><polygon class="cls-5" points="342.277 556.608 206.335 556.608 206.335 511.669 384.978 511.669 384.978 507.446 206.335 507.446 203.159 507.446 202.112 507.446 202.112 560.831 202.361 560.831 206.335 560.831 342.277 560.831 342.277 556.608"/><rect class="cls-5" x="916.554" y="486.159" width="17.607" height="4.223" transform="translate(1364.979 906.518) rotate(180)"/><rect class="cls-7" x="891.381" y="480.015" width="89.758" height="4.223" transform="translate(932.651 -524.157) rotate(90)"/><g class="cls-10"><path class="cls-8" d="M939.007,612.689H924.078c0-7.727,6.527-13.992,14.578-13.992.118,0,.234.006.351.008Z" transform="translate(-485.735 -70.023)"/><path class="cls-8" d="M939.007,584.706H924.078c0,7.727,6.527,13.992,14.578,13.992.118,0,.234-.006.351-.008Z" transform="translate(-485.735 -70.023)"/></g><rect class="cls-5" x="158.347" y="596.662" width="4.223" height="199.863"/><rect class="cls-5" x="158.347" y="824.522" width="4.223" height="17.618"/><rect class="cls-5" x="158.347" y="395.957" width="4.223" height="60.993"/><rect class="cls-5" x="158.347" y="265.053" width="4.223" height="103.086"/><rect class="cls-5" x="158.347" y="485.343" width="4.223" height="83.43"/><g class="cls-11"><path class="cls-8" d="M648.649,866.572H633.72c0,7.727,6.527,13.992,14.578,13.992.118,0,.234-.006.351-.008Z" transform="translate(-485.735 -70.023)"/><path class="cls-8" d="M648.649,894.555H633.72c0-7.727,6.527-13.992,14.578-13.992.118,0,.234.006.351.008Z" transform="translate(-485.735 -70.023)"/></g><g class="cls-12"><path class="cls-8" d="M647.7,666.817h14.929c0-7.727-6.527-13.992-14.578-13.992-.118,0-.234.006-.351.008Z" transform="translate(-485.735 -70.023)"/><path class="cls-8" d="M647.7,638.834h14.929c0,7.727-6.527,13.992-14.578,13.992-.118,0-.234-.006-.351-.008Z" transform="translate(-485.735 -70.023)"/></g><g class="cls-13"><path class="cls-8" d="M647.7,555.087h14.929c0-7.727-6.527-13.992-14.578-13.992-.118,0-.234.006-.351.008Z" transform="translate(-485.735 -70.023)"/><path class="cls-8" d="M647.7,527.1h14.929c0,7.727-6.527,13.992-14.578,13.992-.118,0-.234-.006-.351-.008Z" transform="translate(-485.735 -70.023)"/></g><g class="cls-14"><path class="cls-8" d="M576.959,247.167v13.8a13.209,13.209,0,0,0,12.93-13.471c0-.109-.005-.216-.008-.325Z" transform="translate(-485.735 -70.023)"/><path class="cls-8" d="M602.819,247.167v13.8a13.209,13.209,0,0,1-12.93-13.471c0-.109.005-.216.008-.325Z" transform="translate(-485.735 -70.023)"/></g><g class="cls-15"><path class="cls-8" d="M602.963,283.682h14.929c0-7.727-6.527-13.992-14.578-13.992-.118,0-.234.006-.351.008Z" transform="translate(-485.735 -70.023)"/><path class="cls-8" d="M602.963,255.7h14.929c0,7.727-6.527,13.992-14.578,13.992-.118,0-.234-.006-.351-.008Z" transform="translate(-485.735 -70.023)"/></g><rect class="cls-5" x="9.693" y="326.628" width="88.357" height="4.223"/><g class="cls-16"><path class="cls-8" d="M602.551,402.009V381.443c-10.359,0-18.756,8.991-18.756,20.081,0,.162.008.323.011.484Z" transform="translate(-485.735 -70.023)"/></g><g class="cls-17"><path class="cls-8" d="M569.91,432.529H554.392a14.966,14.966,0,0,1,15.153-14.771c.122,0,.243.006.365.009Z" transform="translate(-485.735 -70.023)"/></g><g class="cls-18"><path class="cls-8" d="M602.275,432.529V452.8c-10.212,0-18.491-8.864-18.491-19.8,0-.16.008-.318.011-.477Z" transform="translate(-485.735 -70.023)"/></g><g class="cls-19"><path class="cls-8" d="M606.592,516H591.663c0-7.727,6.527-13.992,14.578-13.992.118,0,.234.006.351.008Z" transform="translate(-485.735 -70.023)"/><path class="cls-8" d="M606.592,488.02H591.663c0,7.727,6.527,13.992,14.578,13.992.118,0,.234-.006.351-.008Z" transform="translate(-485.735 -70.023)"/></g><g class="cls-20"><path class="cls-8" d="M606.45,599.856V584.484c-7.412,0-13.42,6.72-13.42,15.01,0,.121.006.241.008.362Z" transform="translate(-485.735 -70.023)"/></g><g class="cls-21"><path class="cls-8" d="M602.472,697.182H617.4c0-7.727-6.527-13.992-14.578-13.992-.118,0-.234.006-.351.008Z" transform="translate(-485.735 -70.023)"/><path class="cls-8" d="M602.472,669.2H617.4c0,7.727-6.527,13.992-14.578,13.992-.118,0-.234-.006-.351-.008Z" transform="translate(-485.735 -70.023)"/></g><g class="cls-22"><path class="cls-8" d="M602.472,901.551H617.4c0-7.727-6.527-13.992-14.578-13.992-.118,0-.234.006-.351.008Z" transform="translate(-485.735 -70.023)"/><path class="cls-8" d="M602.472,873.568H617.4c0,7.727-6.527,13.992-14.578,13.992-.118,0-.234-.006-.351-.008Z" transform="translate(-485.735 -70.023)"/></g><g class="cls-23"><path class="cls-8" d="M613.754,912.1v14.929c7.727,0,13.992-6.527,13.992-14.578,0-.118-.006-.234-.008-.351Z" transform="translate(-485.735 -70.023)"/><path class="cls-8" d="M641.737,912.1v14.929c-7.727,0-13.992-6.527-13.992-14.578,0-.118.006-.234.008-.351Z" transform="translate(-485.735 -70.023)"/></g><g class="cls-24"><path class="cls-8" d="M647.7,466.019h14.929c0-7.71-6.527-13.96-14.578-13.96-.118,0-.234.006-.351.008Z" transform="translate(-485.735 -70.023)"/><path class="cls-8" d="M647.7,438.1h14.929c0,7.71-6.527,13.96-14.578,13.96-.118,0-.234-.006-.351-.008Z" transform="translate(-485.735 -70.023)"/></g></svg>