<svg id="组_1" data-name="组 1" xmlns="http://www.w3.org/2000/svg" xmlns:xlink="http://www.w3.org/1999/xlink" viewBox="0 0 510.341 902.666"><defs><style>.cls-1,.cls-7{fill:none;}.cls-2{fill:#eaeaea;}.cls-3{fill:#d0eae5;}.cls-4,.cls-5{fill:#fff;}.cls-4,.cls-7{stroke:#adadad;stroke-miterlimit:10;}.cls-6{fill:#adadad;}.cls-8{clip-path:url(#clip-path);}.cls-9{clip-path:url(#clip-path-2);}.cls-10{clip-path:url(#clip-path-3);}.cls-11{clip-path:url(#clip-path-4);}.cls-12{clip-path:url(#clip-path-5);}.cls-13{clip-path:url(#clip-path-6);}.cls-14{clip-path:url(#clip-path-7);}.cls-15{clip-path:url(#clip-path-8);}.cls-16{clip-path:url(#clip-path-9);}.cls-17{clip-path:url(#clip-path-10);}.cls-18{clip-path:url(#clip-path-11);}.cls-19{clip-path:url(#clip-path-12);}.cls-20{clip-path:url(#clip-path-13);}.cls-21{clip-path:url(#clip-path-14);}.cls-22{clip-path:url(#clip-path-15);}</style><clipPath id="clip-path" transform="translate(-466.814 -126.532)"><rect class="cls-1" x="640.604" y="662.577" width="33.371" height="18.607" transform="translate(1329.17 14.591) rotate(90)"/></clipPath><clipPath id="clip-path-2" transform="translate(-466.814 -126.532)"><rect class="cls-1" x="640.276" y="505.017" width="33.371" height="18.607" transform="translate(1171.281 -142.641) rotate(90)"/></clipPath><clipPath id="clip-path-3" transform="translate(-466.814 -126.532)"><rect class="cls-1" x="640.195" y="505.076" width="33.371" height="18.607" transform="translate(1171.26 -142.501) rotate(90)"/></clipPath><clipPath id="clip-path-4" transform="translate(-466.814 -126.532)"><rect class="cls-1" x="640.195" y="344.718" width="33.371" height="18.607" transform="translate(1010.902 -302.859) rotate(90)"/></clipPath><clipPath id="clip-path-5" transform="translate(-466.814 -126.532)"><rect class="cls-1" x="654.347" y="142.787" width="29.68" height="44.872" transform="translate(834.41 -503.965) rotate(90)"/></clipPath><clipPath id="clip-path-6" transform="translate(-466.814 -126.532)"><rect class="cls-1" x="608.065" y="191.442" width="28.77" height="38.683" transform="translate(833.234 -411.668) rotate(90)"/></clipPath><clipPath id="clip-path-7" transform="translate(-466.814 -126.532)"><rect class="cls-1" x="487.544" y="149.468" width="21.627" height="34.709" transform="translate(665.18 -331.536) rotate(90)"/></clipPath><clipPath id="clip-path-8" transform="translate(-466.814 -126.532)"><rect class="cls-1" x="557.578" y="285.527" width="49.022" height="36.714" transform="translate(885.972 -278.205) rotate(90)"/></clipPath><clipPath id="clip-path-9" transform="translate(-466.814 -126.532)"><rect class="cls-1" x="570.536" y="416.926" width="27.852" height="37.03" transform="translate(1019.903 -149.021) rotate(90)"/></clipPath><clipPath id="clip-path-10" transform="translate(-466.814 -126.532)"><rect class="cls-1" x="570.536" y="481.559" width="27.852" height="37.03" transform="translate(84.388 1084.536) rotate(-90)"/></clipPath><clipPath id="clip-path-11" transform="translate(-466.814 -126.532)"><rect class="cls-1" x="537.467" y="463.802" width="21.627" height="29.22"/></clipPath><clipPath id="clip-path-12" transform="translate(-466.814 -126.532)"><rect class="cls-1" x="549.98" y="597.207" width="77.753" height="24.297" transform="translate(1198.212 20.499) rotate(90)"/></clipPath><clipPath id="clip-path-13" transform="translate(-466.814 -126.532)"><rect class="cls-1" x="558.041" y="751.938" width="49.022" height="36.714" transform="translate(1352.846 187.743) rotate(90)"/></clipPath><clipPath id="clip-path-14" transform="translate(-466.814 -126.532)"><rect class="cls-1" x="575.975" y="875.125" width="32.581" height="18.607" transform="translate(-292.163 1476.694) rotate(-90)"/></clipPath><clipPath id="clip-path-15" transform="translate(-466.814 -126.532)"><rect class="cls-1" x="603.58" y="892.501" width="31.509" height="46.558" transform="translate(1535.114 296.445) rotate(90)"/></clipPath></defs><title>会议_3栋2楼</title><polygon class="cls-2" points="507.448 899.386 505.056 568.791 424.035 568.791 424.6 253.222 373.089 253.222 369.313 7.674 305.313 5.285 305.313 10.345 84.434 16.468 68.891 0.024 7.951 0.5 6.404 723.87 7.771 899.386 507.448 899.386"/><rect class="cls-2" x="366.92" y="2.892" width="4.785" height="248.977"/><rect class="cls-2" x="807.768" y="859.425" width="332.988" height="4.785" transform="translate(1369.265 -238.977) rotate(90)"/><rect class="cls-2" x="745.803" y="944.243" width="163.346" height="4.785" transform="translate(1307.298 -7.373) rotate(90)"/><rect class="cls-2" x="502.119" y="95.173" width="4.785" height="68.504" transform="translate(167.122 -501.619) rotate(90)"/><rect class="cls-2" x="646.617" y="28.884" width="4.785" height="225.135" transform="translate(323.647 -634.09) rotate(90)"/><rect class="cls-2" x="528.353" y="173.101" width="4.785" height="90.026" transform="translate(282.046 -439.164) rotate(90)"/><rect class="cls-2" x="575.149" y="314.943" width="4.785" height="38.296" transform="translate(444.818 -369.984) rotate(90)"/><rect class="cls-2" x="520.26" y="320.698" width="4.24" height="27.33" transform="translate(389.929 -314.55) rotate(90)"/><rect class="cls-2" x="533.174" y="387.088" width="4.785" height="121.601" transform="translate(516.641 -214.21) rotate(90)"/><rect class="cls-2" x="534.297" y="479.366" width="4.785" height="126.943" transform="translate(612.713 -120.384) rotate(90)"/><polygon class="cls-2" points="133.347 323.749 133.347 93.974 132.998 93.974 129.553 93.974 4.15 93.974 4.15 98.759 129.553 98.759 129.553 323.749 133.347 323.749"/><rect class="cls-2" x="469.981" y="127.032" width="4.785" height="889.145" transform="translate(477.932 1016.677) rotate(180)"/><rect class="cls-2" x="720.642" y="772.685" width="4.785" height="507.241" transform="translate(1282.526 176.739) rotate(90)"/><rect class="cls-2" x="823.295" y="212.735" width="15.542" height="15.542" transform="translate(584.759 -737.092) rotate(90)"/><rect class="cls-2" x="534.833" y="127.429" width="17.287" height="15.542" transform="translate(211.863 -534.808) rotate(90)"/><rect class="cls-2" x="470.19" y="212.735" width="15.542" height="15.542" transform="translate(231.654 -383.987) rotate(90)"/><rect class="cls-2" x="470.19" y="694.901" width="15.542" height="15.542" transform="translate(713.82 98.178) rotate(90)"/><rect class="cls-2" x="466.814" y="853.44" width="15.542" height="15.542" transform="translate(868.982 260.094) rotate(90)"/><rect class="cls-2" x="469.099" y="1012.766" width="15.542" height="15.542" transform="translate(1030.593 417.135) rotate(90)"/><rect class="cls-2" x="647.986" y="853.44" width="15.542" height="15.542" transform="translate(1050.155 78.921) rotate(90)"/><rect class="cls-2" x="961.112" y="1013.153" width="15.542" height="15.542" transform="translate(1522.994 -74.491) rotate(90)"/><rect class="cls-2" x="824.47" y="375.131" width="15.542" height="15.542" transform="translate(748.33 -575.871) rotate(90)"/><rect class="cls-2" x="824.47" y="534.47" width="15.542" height="15.542" transform="translate(907.669 -416.532) rotate(90)"/><rect class="cls-2" x="959.844" y="725.351" width="28.836" height="4.785" transform="translate(1235.191 -373.051) rotate(90)"/><rect class="cls-2" x="958.614" y="777.676" width="31.296" height="4.785" transform="translate(1287.517 -320.726) rotate(90)"/><rect class="cls-2" x="958.614" y="830.847" width="31.296" height="4.785" transform="translate(1340.688 -267.554) rotate(90)"/><rect class="cls-2" x="958.614" y="887.256" width="31.296" height="4.785" transform="translate(1397.096 -211.146) rotate(90)"/><rect class="cls-2" x="958.614" y="937.656" width="31.296" height="4.785" transform="translate(1447.497 -160.746) rotate(90)"/><rect class="cls-2" x="958.614" y="991.671" width="31.296" height="4.785" transform="translate(1501.512 -106.73) rotate(90)"/><rect class="cls-2" x="806.679" y="1010.339" width="4.785" height="31.158" transform="translate(1368.176 90.315) rotate(90)"/><rect class="cls-2" x="746" y="1010.727" width="4.785" height="31.158" transform="translate(1307.884 151.381) rotate(90)"/><rect class="cls-2" x="685.321" y="1010.727" width="4.785" height="31.158" transform="translate(1247.205 212.06) rotate(90)"/><rect class="cls-2" x="624.642" y="1010.727" width="4.785" height="31.158" transform="translate(1186.526 272.739) rotate(90)"/><rect class="cls-2" x="563.963" y="1010.339" width="4.785" height="31.158" transform="translate(1125.46 333.03) rotate(90)"/><rect class="cls-2" x="503.285" y="1010.339" width="4.785" height="31.158" transform="translate(1064.781 393.709) rotate(90)"/><rect class="cls-2" x="647.986" y="1012.768" width="15.542" height="15.542" transform="translate(1209.483 238.25) rotate(90)"/><rect class="cls-2" x="478.906" y="328.58" width="4.24" height="11.565" transform="translate(348.575 -273.196) rotate(90)"/><rect class="cls-2" x="544.82" y="355.603" width="56.549" height="8.739" transform="translate(466.253 -339.654) rotate(90)"/><rect class="cls-2" x="523.362" y="342.407" width="7.735" height="82.992" transform="translate(444.318 -269.859) rotate(90)"/><rect class="cls-2" x="584.645" y="372.854" width="4.785" height="19.148" transform="translate(502.652 -331.142) rotate(90)"/><rect class="cls-2" x="89.542" y="261.715" width="4.785" height="30.947"/><rect class="cls-2" x="89.777" y="308.275" width="4.785" height="10.689"/><rect class="cls-2" x="576.595" y="384.261" width="4.24" height="34.679" transform="translate(513.502 -303.648) rotate(90)"/><rect class="cls-2" x="470.19" y="372.705" width="15.542" height="15.542" transform="translate(391.624 -224.018) rotate(90)"/><rect class="cls-2" x="458.73" y="191.523" width="27.711" height="4.791" transform="translate(199.691 -405.2) rotate(90)"/><rect class="cls-2" x="424.014" y="280.818" width="97.329" height="4.976" transform="translate(289.17 -315.905) rotate(90)"/><rect class="cls-2" x="457.708" y="406.497" width="29.54" height="4.575" transform="translate(414.449 -190.225) rotate(90)"/><rect class="cls-2" x="457.462" y="465.331" width="29.821" height="4.785" transform="translate(473.283 -131.182) rotate(90)"/><rect class="cls-2" x="457.356" y="513.333" width="30.243" height="4.575" transform="translate(521.284 -83.39) rotate(90)"/><rect class="cls-2" x="458.271" y="566.856" width="28.414" height="4.575" transform="translate(574.807 -29.867) rotate(90)"/><rect class="cls-2" x="457.286" y="619.746" width="30.384" height="4.575" transform="translate(627.697 23.023) rotate(90)"/><rect class="cls-2" x="458.342" y="672.142" width="28.271" height="4.575" transform="translate(680.094 75.42) rotate(90)"/><rect class="cls-2" x="457.618" y="727.304" width="29.54" height="4.395" transform="translate(735.075 130.581) rotate(90)"/><rect class="cls-2" x="457.567" y="780.438" width="29.821" height="4.575" transform="translate(788.389 183.715) rotate(90)"/><rect class="cls-2" x="457.92" y="833.557" width="28.906" height="4.785" transform="translate(841.508 237.044) rotate(90)"/><rect class="cls-2" x="457.744" y="888.311" width="29.258" height="4.785" transform="translate(896.263 291.799) rotate(90)"/><rect class="cls-2" x="457.583" y="940.448" width="29.399" height="4.605" transform="translate(948.219 343.935) rotate(90)"/><rect class="cls-2" x="458.216" y="992.494" width="28.133" height="4.605" transform="translate(1000.265 395.981) rotate(90)"/><rect class="cls-2" x="562.114" y="125.979" width="4.785" height="30.944" transform="translate(239.144 -549.587) rotate(90)"/><rect class="cls-2" x="622.435" y="125.979" width="4.785" height="30.944" transform="translate(299.466 -609.909) rotate(90)"/><rect class="cls-2" x="682.757" y="125.979" width="4.785" height="30.944" transform="translate(359.787 -670.23) rotate(90)"/><rect class="cls-2" x="743.078" y="125.346" width="4.785" height="32.211" transform="translate(420.108 -730.551) rotate(90)"/><rect class="cls-2" x="797.957" y="106.408" width="4.782" height="50.815" transform="translate(465.349 -795.065) rotate(90)"/><rect class="cls-2" x="823.295" y="129.107" width="15.542" height="15.542" transform="translate(501.13 -820.721) rotate(90)"/><rect class="cls-2" x="821.216" y="190.893" width="29.821" height="4.785" transform="translate(562.598 -769.373) rotate(90)"/><rect class="cls-2" x="820.935" y="249.129" width="30.384" height="4.785" transform="translate(620.834 -711.138) rotate(90)"/><rect class="cls-2" x="820.935" y="302.019" width="30.384" height="4.785" transform="translate(673.724 -658.248) rotate(90)"/><rect class="cls-2" x="822.06" y="355.19" width="28.133" height="4.785" transform="translate(726.895 -605.076) rotate(90)"/><rect class="cls-2" x="760.277" y="128.931" width="15.542" height="15.542" transform="translate(437.936 -757.878) rotate(90)"/><rect class="cls-2" x="800.964" y="116.764" width="5.697" height="30.032" transform="translate(468.778 -798.565) rotate(90)"/><line class="cls-2" x1="361.368" y1="18.435" x2="361.368" y2="90.949"/><rect class="cls-2" x="470.19" y="126.857" width="15.542" height="15.542" transform="translate(145.776 -469.866) rotate(90)"/><polygon class="cls-2" points="8.352 151.997 100.223 151.997 100.223 147.213 8.352 147.213 8.352 131.319 3.446 131.319 3.446 158.045 8.352 158.045 8.352 151.997"/><rect class="cls-2" x="505.97" y="114.919" width="4.96" height="28.836" transform="translate(170.973 -505.645) rotate(90)"/><path class="cls-2" d="M599.57,319.689h-22.4c0-11.6,9.795-21,21.877-21,.177,0,.351.009.527.013Z" transform="translate(-466.814 -126.532)"/><path class="cls-2" d="M599.57,287.982H588.489a10.609,10.609,0,0,0,10.82,10.385c.087,0,.174,0,.261-.006Z" transform="translate(-466.814 -126.532)"/><path class="cls-2" d="M600.723,868.772H583.808c0,8.756,7.4,15.854,16.518,15.854.134,0,.265-.007.4-.01Z" transform="translate(-466.814 -126.532)"/><path class="cls-2" d="M600.723,900.479H583.808c0-8.756,7.4-15.854,16.518-15.854.134,0,.265.007.4.01Z" transform="translate(-466.814 -126.532)"/><path class="cls-2" d="M590.491,254.476l.621.016V278.7h-.847l0-.844v-22.54l-.142,0a22.989,22.989,0,0,0-22.958,22.541l.028.844h-.876v-.422a23.834,23.834,0,0,1,23.806-23.807C590.249,254.467,590.37,254.471,590.491,254.476Z" transform="translate(-466.814 -126.532)"/><rect class="cls-2" x="531.551" y="215.932" width="2.595" height="66.942" transform="translate(315.438 -409.977) rotate(90)"/><polyline class="cls-2" points="94.326 110.36 22.012 110.36 22.012 134.986 95.441 134.986"/><line class="cls-2" x1="92.17" y1="98.759" x2="92.17" y2="147.213"/><line class="cls-2" x1="86.866" y1="98.759" x2="86.866" y2="147.213"/><line class="cls-2" x1="81.562" y1="98.759" x2="81.562" y2="147.213"/><line class="cls-2" x1="76.259" y1="98.759" x2="76.259" y2="147.213"/><line class="cls-2" x1="70.955" y1="98.759" x2="70.955" y2="147.213"/><line class="cls-2" x1="65.651" y1="98.759" x2="65.651" y2="147.213"/><line class="cls-2" x1="60.348" y1="98.759" x2="60.348" y2="147.213"/><line class="cls-2" x1="55.044" y1="98.759" x2="55.044" y2="147.213"/><line class="cls-2" x1="49.74" y1="98.759" x2="49.74" y2="147.213"/><line class="cls-2" x1="44.437" y1="98.759" x2="44.437" y2="147.213"/><line class="cls-2" x1="39.133" y1="98.759" x2="39.133" y2="147.213"/><line class="cls-2" x1="33.829" y1="98.759" x2="33.829" y2="147.213"/><line class="cls-2" x1="56.055" y1="124.168" x2="65.651" y2="147.213"/><line class="cls-2" x1="59.147" y1="124.168" x2="68.855" y2="147.213"/><line class="cls-2" x1="115.275" y1="205.438" x2="115.275" y2="209.678"/><line class="cls-2" x1="129.798" y1="205.166" x2="117.385" y2="200.667"/><polyline class="cls-2" points="101.911 261.715 127.744 264.141 129.241 272.948"/><line class="cls-2" x1="101.911" y1="272.948" x2="101.911" y2="277.188"/><rect class="cls-2" x="591.889" y="273.946" width="3.946" height="5.5" transform="translate(403.744 -443.698) rotate(90)"/><path class="cls-2" d="M596.676,450.281V427.308c-11.571,0-20.952,10.043-20.952,22.432,0,.181.009.36.013.541Z" transform="translate(-466.814 -126.532)"/><polygon class="cls-2" points="91.934 323.749 88.698 323.749 88.698 339.503 84.469 339.503 84.469 323.749 81.562 323.749 81.562 342.879 91.934 342.879 91.934 323.749"/><path class="cls-2" d="M559.16,486.148H541.577a16.957,16.957,0,0,1,17.169-16.737c.139,0,.276.007.414.01Z" transform="translate(-466.814 -126.532)"/><rect class="cls-2" x="535.196" y="514.265" width="49.301" height="3.06" transform="translate(608.827 -170.584) rotate(90)"/><rect class="cls-2" x="513.954" y="402.719" width="3.589" height="81.967" transform="translate(492.637 -198.579) rotate(90)"/><line class="cls-2" x1="85.06" y1="315.375" x2="85.06" y2="318.964"/><line class="cls-2" x1="81.42" y1="315.375" x2="81.42" y2="318.964"/><line class="cls-2" x1="77.78" y1="315.375" x2="77.78" y2="318.964"/><line class="cls-2" x1="74.14" y1="315.375" x2="74.14" y2="318.964"/><line class="cls-2" x1="70.499" y1="315.375" x2="70.499" y2="318.964"/><line class="cls-2" x1="66.859" y1="315.375" x2="66.859" y2="318.964"/><line class="cls-2" x1="63.219" y1="315.375" x2="63.219" y2="318.964"/><line class="cls-2" x1="59.579" y1="315.375" x2="59.579" y2="318.964"/><line class="cls-2" x1="55.938" y1="315.375" x2="55.938" y2="318.964"/><line class="cls-2" x1="52.298" y1="315.375" x2="52.298" y2="318.964"/><line class="cls-2" x1="48.658" y1="315.375" x2="48.658" y2="318.964"/><line class="cls-2" x1="45.018" y1="315.375" x2="45.018" y2="318.964"/><line class="cls-2" x1="41.378" y1="315.375" x2="41.378" y2="318.964"/><line class="cls-2" x1="37.737" y1="315.375" x2="37.737" y2="318.964"/><line class="cls-2" x1="34.097" y1="315.375" x2="34.097" y2="318.964"/><line class="cls-2" x1="30.457" y1="315.375" x2="30.457" y2="318.964"/><line class="cls-2" x1="26.817" y1="315.375" x2="26.817" y2="318.964"/><line class="cls-2" x1="23.177" y1="315.375" x2="23.177" y2="318.964"/><line class="cls-2" x1="19.536" y1="315.375" x2="19.536" y2="318.964"/><line class="cls-2" x1="15.896" y1="315.375" x2="15.896" y2="318.964"/><line class="cls-2" x1="12.256" y1="315.375" x2="12.256" y2="318.964"/><rect class="cls-2" x="520.23" y="502.359" width="3.589" height="72.583" transform="translate(593.861 -109.906) rotate(90)"/><line class="cls-2" x1="88.747" y1="410.324" x2="88.747" y2="413.913"/><line class="cls-2" x1="85.107" y1="410.324" x2="85.107" y2="413.913"/><line class="cls-2" x1="81.467" y1="410.324" x2="81.467" y2="413.913"/><line class="cls-2" x1="77.827" y1="410.324" x2="77.827" y2="413.913"/><line class="cls-2" x1="74.186" y1="410.324" x2="74.186" y2="413.913"/><line class="cls-2" x1="70.546" y1="410.324" x2="70.546" y2="413.913"/><line class="cls-2" x1="66.906" y1="410.324" x2="66.906" y2="413.913"/><line class="cls-2" x1="63.266" y1="410.324" x2="63.266" y2="413.913"/><line class="cls-2" x1="59.625" y1="410.324" x2="59.625" y2="413.913"/><line class="cls-2" x1="55.985" y1="410.324" x2="55.985" y2="413.913"/><line class="cls-2" x1="52.345" y1="410.324" x2="52.345" y2="413.913"/><line class="cls-2" x1="48.705" y1="410.324" x2="48.705" y2="413.913"/><line class="cls-2" x1="45.065" y1="410.324" x2="45.065" y2="413.913"/><line class="cls-2" x1="41.424" y1="410.324" x2="41.424" y2="413.913"/><line class="cls-2" x1="37.784" y1="410.324" x2="37.784" y2="413.913"/><line class="cls-2" x1="34.144" y1="410.324" x2="34.144" y2="413.913"/><line class="cls-2" x1="30.504" y1="410.324" x2="30.504" y2="413.913"/><line class="cls-2" x1="26.864" y1="410.324" x2="26.864" y2="413.913"/><line class="cls-2" x1="23.223" y1="410.324" x2="23.223" y2="413.913"/><rect class="cls-2" x="470.19" y="535.066" width="15.542" height="15.542" transform="translate(553.985 -61.656) rotate(90)"/><rect class="cls-2" x="545.99" y="327.287" width="2.743" height="21.909" transform="translate(418.789 -335.653) rotate(90)"/><rect class="cls-2" x="496.389" y="327.287" width="2.743" height="21.909" transform="translate(369.188 -286.052) rotate(90)"/><rect class="cls-2" x="532.978" y="339.806" width="27.113" height="31.44" transform="translate(435.246 -317.542) rotate(90)"/><line class="cls-2" x1="95.441" y1="215.436" x2="64.001" y2="242.55"/><line class="cls-2" x1="64.001" y1="215.436" x2="95.441" y2="242.55"/><rect class="cls-2" x="485.284" y="339.806" width="27.113" height="31.44" transform="translate(387.552 -269.848) rotate(90)"/><line class="cls-2" x1="47.747" y1="215.436" x2="16.307" y2="242.55"/><line class="cls-2" x1="16.307" y1="215.436" x2="47.747" y2="242.55"/><rect class="cls-2" x="544.935" y="363.298" width="4.853" height="22.999" transform="translate(455.345 -299.097) rotate(90)"/><rect class="cls-2" x="496.414" y="363.298" width="4.853" height="22.999" transform="translate(406.824 -250.576) rotate(90)"/><rect class="cls-2" x="530.902" y="801.679" width="2.595" height="70.548" transform="translate(902.339 178.222) rotate(90)"/><polyline class="cls-2" points="91.874 697.91 19.56 697.91 19.56 722.536 92.988 722.536"/><line class="cls-2" x1="89.717" y1="686.309" x2="89.717" y2="734.763"/><line class="cls-2" x1="84.414" y1="686.309" x2="84.414" y2="734.763"/><line class="cls-2" x1="79.11" y1="686.309" x2="79.11" y2="734.763"/><line class="cls-2" x1="73.806" y1="686.309" x2="73.806" y2="734.763"/><line class="cls-2" x1="68.503" y1="686.309" x2="68.503" y2="734.763"/><line class="cls-2" x1="63.199" y1="686.309" x2="63.199" y2="734.763"/><line class="cls-2" x1="57.895" y1="686.309" x2="57.895" y2="734.763"/><line class="cls-2" x1="52.592" y1="686.309" x2="52.592" y2="734.763"/><line class="cls-2" x1="47.288" y1="686.309" x2="47.288" y2="734.763"/><line class="cls-2" x1="41.984" y1="686.309" x2="41.984" y2="734.763"/><line class="cls-2" x1="36.681" y1="686.309" x2="36.681" y2="734.763"/><line class="cls-2" x1="31.377" y1="686.309" x2="31.377" y2="734.763"/><line class="cls-2" x1="53.602" y1="711.719" x2="63.199" y2="734.763"/><line class="cls-2" x1="56.695" y1="711.719" x2="66.403" y2="734.763"/><rect class="cls-2" x="519.627" y="762.85" width="3.939" height="93.661" transform="translate(864.463 161.553) rotate(90)"/><path class="cls-2" d="M591.644,830.385l.621-.016V806.164h-.847l0,.844v22.54l-.142,0a22.989,22.989,0,0,1-22.958-22.541l.028-.844h-.876v.422a23.834,23.834,0,0,0,23.806,23.807C591.4,830.393,591.524,830.389,591.644,830.385Z" transform="translate(-466.814 -126.532)"/><polygon class="cls-2" points="133.749 625.236 133.749 622.1 133.749 619.568 129.241 619.568 123.115 619.568 123.115 604.939 120.985 604.939 120.985 619.568 120.985 622.1 123.115 622.1 129.241 622.1 129.241 625.236 133.749 625.236"/><line class="cls-2" x1="131.45" y1="604.939" x2="131.45" y2="619.568"/><path class="cls-2" d="M545.924,727.251v17.02s7.891.141,12.392-5.486" transform="translate(-466.814 -126.532)"/><path class="cls-2" d="M576.213,727.251v17.02s-7.891.141-12.392-5.486" transform="translate(-466.814 -126.532)"/><rect class="cls-2" x="499" y="711.311" width="38.12" height="2.198" transform="translate(763.656 67.819) rotate(90)"/><rect class="cls-2" x="530.431" y="715.978" width="4.22" height="26.765" transform="translate(795.088 70.287) rotate(90)"/><rect class="cls-2" x="524.781" y="709.189" width="33.9" height="2.223" transform="translate(785.218 42.037) rotate(90)"/><polyline class="cls-2" points="58.401 566.818 68.503 569.491 73.806 597.624"/><polygon class="cls-2" points="58.984 643.762 58.984 625.236 58.401 625.236 54.199 625.236 7.771 625.236 7.771 629.977 54.199 629.977 54.199 643.762 58.984 643.762"/><rect class="cls-2" x="517.348" y="799.156" width="12.115" height="4.785" transform="translate(858.14 151.611) rotate(90)"/><rect class="cls-2" x="481.065" y="764.553" width="39.412" height="34.578" transform="translate(815.799 154.539) rotate(90)"/><line class="cls-2" x1="51.246" y1="635.604" x2="16.668" y2="675.016"/><line class="cls-2" x1="16.668" y1="635.604" x2="51.246" y2="675.016"/><rect class="cls-2" x="466.286" y="779.45" width="23.35" height="4.785" transform="translate(792.99 177.348) rotate(90)"/><rect class="cls-2" x="826.191" y="1014.487" width="13.327" height="14.315" transform="translate(1387.686 62.257) rotate(90)"/><rect class="cls-2" x="926.974" y="1009.62" width="5.503" height="33.372" transform="translate(1489.217 -29.952) rotate(90)"/><rect class="cls-2" x="866.295" y="1009.62" width="5.503" height="33.372" transform="translate(1428.538 30.727) rotate(90)"/><rect class="cls-2" x="969.149" y="1021.042" width="10.533" height="4.477" transform="translate(1530.883 -77.667) rotate(90)"/><polygon class="cls-2" points="84.434 16.468 80.548 16.468 80.548 29.899 8.168 29.899 8.168 33.838 84.434 33.838 84.434 16.468"/><line class="cls-2" x1="80.548" y1="16.468" x2="8.168" y2="29.899"/><line class="cls-2" x1="7.951" y1="16.468" x2="81.562" y2="16.468"/><path class="cls-2" d="M481.907,156.455v16.916c8.756,0,15.854-7.4,15.854-16.518,0-.134-.007-.265-.01-.4Z" transform="translate(-466.814 -126.532)"/><path class="cls-2" d="M513.614,156.455v16.916c-8.756,0-15.854-7.4-15.854-16.518,0-.134.007-.265.01-.4Z" transform="translate(-466.814 -126.532)"/><polygon class="cls-2" points="495.809 567.525 426.992 567.525 426.992 248.599 421.642 248.599 421.642 567.525 181.849 567.525 181.849 572.31 495.809 572.31 495.809 567.525"/><rect class="cls-2" x="824.47" y="694.057" width="15.542" height="15.542" transform="translate(1067.256 -256.945) rotate(90)"/><rect class="cls-2" x="961.508" y="694.057" width="15.542" height="15.542" transform="translate(1204.293 -393.983) rotate(90)"/><rect class="cls-2" x="876.29" y="408.995" width="29.118" height="4.785" transform="translate(835.422 -605.994) rotate(90)"/><rect class="cls-2" x="876.855" y="462.617" width="29.118" height="4.785" transform="translate(889.609 -552.937) rotate(90)"/><rect class="cls-2" x="876.855" y="516.239" width="29.118" height="4.785" transform="translate(943.231 -499.314) rotate(90)"/><rect class="cls-2" x="876.855" y="569.861" width="29.118" height="4.785" transform="translate(996.853 -445.692) rotate(90)"/><rect class="cls-2" x="876.29" y="677.106" width="29.118" height="4.785" transform="translate(1103.533 -337.883) rotate(90)"/><rect class="cls-2" x="876.29" y="623.484" width="29.118" height="4.785" transform="translate(1049.911 -391.505) rotate(90)"/><rect class="cls-2" x="860.169" y="351.375" width="9.881" height="57.394" transform="translate(778.367 -611.57) rotate(90)"/><polygon class="cls-2" points="359.876 888.449 373.199 888.449 373.199 883.18 354.01 883.18 354.01 897.381 359.876 897.381 359.876 888.449"/><rect class="cls-2" x="821.122" y="1009.413" width="5.269" height="5.866" transform="translate(1369.289 62.057) rotate(90)"/><rect class="cls-2" x="647.986" y="849.068" width="19.914" height="19.914" transform="translate(1050.155 74.549) rotate(90)"/><rect class="cls-2" x="632.802" y="884.167" width="35.226" height="4.857" transform="translate(1070.196 109.648) rotate(90)"/><polygon class="cls-2" points="196.672 901.778 196.672 777.675 196.672 773.737 191.887 773.737 156.771 773.737 156.771 777.675 191.887 777.675 191.887 901.778 196.672 901.778"/><line class="cls-2" x1="196.715" y1="742.45" x2="196.715" y2="773.737"/><line class="cls-2" x1="186.029" y1="742.45" x2="196.715" y2="773.737"/><rect class="cls-2" x="129.241" y="773.737" width="4.509" height="128.216"/><path class="cls-2" d="M623.866,900.269v20.256a19.569,19.569,0,0,1-19.353-19.779c0-.16.008-.318.012-.477Z" transform="translate(-466.814 -126.532)"/><rect class="cls-2" x="599.766" y="901.067" width="4.853" height="3.257" transform="translate(1038.074 173.97) rotate(90)"/><rect class="cls-2" x="753.8" y="780.884" width="146.782" height="4.213" transform="translate(1143.367 -170.732) rotate(90)"/><path class="cls-2" d="M825.084,868.936H845.34a19.569,19.569,0,0,1-19.779,19.353c-.16,0-.318-.008-.477-.012Z" transform="translate(-466.814 -126.532)"/><path class="cls-2" d="M825.084,709.6H845.34a19.569,19.569,0,0,1-19.779,19.353c-.16,0-.318-.008-.477-.012Z" transform="translate(-466.814 -126.532)"/><rect class="cls-2" x="898.652" y="799.366" width="4.785" height="124.212" transform="translate(1295.702 -166.105) rotate(90)"/><rect class="cls-2" x="961.112" y="853.701" width="15.542" height="15.542" transform="translate(1363.541 -233.944) rotate(90)"/><rect class="cls-2" x="825.084" y="853.701" width="15.542" height="15.542" transform="translate(1227.513 -97.916) rotate(90)"/><rect class="cls-2" x="736.03" y="80.611" width="4.785" height="179.519" transform="translate(441.98 -694.584) rotate(90)"/><rect class="cls-2" x="647.986" y="143.844" width="4.785" height="550.213" transform="translate(833.944 711.369) rotate(180)"/><rect class="cls-2" x="647.986" y="535.066" width="15.542" height="15.542" transform="translate(731.781 -239.452) rotate(90)"/><rect class="cls-2" x="647.986" y="375.131" width="15.542" height="15.542" transform="translate(571.846 -399.388) rotate(90)"/><rect class="cls-2" x="647.986" y="694.057" width="15.542" height="15.542" transform="translate(890.772 -80.462) rotate(90)"/><rect class="cls-2" x="647.986" y="212.735" width="15.542" height="15.542" transform="translate(409.45 -561.783) rotate(90)"/><path class="cls-2" d="M647.3,369.947h16.916c0-8.756-7.4-15.854-16.518-15.854-.134,0-.265.007-.4.01Z" transform="translate(-466.814 -126.532)"/><path class="cls-2" d="M647.3,338.24h16.916c0,8.756-7.4,15.854-16.518,15.854-.134,0-.265-.007-.4-.01Z" transform="translate(-466.814 -126.532)"/><path class="cls-2" d="M647.3,530.379h16.916c0-8.756-7.4-15.854-16.518-15.854-.134,0-.265.007-.4.01Z" transform="translate(-466.814 -126.532)"/><path class="cls-2" d="M647.3,498.672h16.916c0,8.756-7.4,15.854-16.518,15.854-.134,0-.265-.007-.4-.01Z" transform="translate(-466.814 -126.532)"/><path class="cls-2" d="M647.3,687.718h16.916c0-8.756-7.4-15.854-16.518-15.854-.134,0-.265.007-.4.01Z" transform="translate(-466.814 -126.532)"/><path class="cls-2" d="M647.3,656.01h16.916c0,8.756-7.4,15.854-16.518,15.854-.134,0-.265-.007-.4-.01Z" transform="translate(-466.814 -126.532)"/><line class="cls-2" x1="422.207" y1="415.601" x2="180.486" y2="415.601"/><polyline class="cls-2" points="411.094 420.913 398.629 408.448 386.373 420.704 373.825 408.156 357.656 408.156 343.578 422.234 331.196 407.938 321.982 422.234 307.686 407.938 294.06 422.234"/><polyline class="cls-2" points="255.146 422.749 245.729 408.671 231.651 422.749 219.269 408.453 210.055 422.749 195.759 408.453"/><rect class="cls-2" x="806.352" y="159.394" width="8.461" height="35.199" transform="translate(520.763 -760.121) rotate(90)"/><rect class="cls-2" x="687.718" y="159.332" width="8.461" height="35.323" transform="translate(402.128 -641.487) rotate(90)"/><path class="cls-2" d="M652.966,181.224V153.636a26.859,26.859,0,0,1,26.779,26.939c0,.218-.011.433-.016.649Z" transform="translate(-466.814 -126.532)"/><polygon class="cls-2" points="133.842 359.616 129.241 359.616 129.241 359.616 91.502 359.616 91.502 364.401 129.241 364.401 129.241 484.286 7.771 484.286 7.771 489.071 129.241 489.071 129.241 742.45 133.842 742.45 133.842 359.616"/><path class="cls-2" d="M600.311,606.841H583.4c0-8.756,7.4-15.854,16.518-15.854.134,0,.265.007.4.01Z" transform="translate(-466.814 -126.532)"/><polygon class="cls-2" points="118.651 519.695 128.709 519.695 128.709 515.053 114.463 515.053 114.463 562.029 118.651 562.029 118.651 519.695"/><rect class="cls-2" x="588.872" y="670.914" width="3.135" height="10.166" transform="translate(799.623 -40.974) rotate(90)"/><path class="cls-2" d="M600.414,619.5H583.5c0,8.756,7.4,15.854,16.518,15.854.134,0,.265-.007.4-.01Z" transform="translate(-466.814 -126.532)"/><path class="cls-2" d="M600.311,786.02h-10.7a10.246,10.246,0,0,1,10.449-10.029c.084,0,.168,0,.252.006Z" transform="translate(-466.814 -126.532)"/><path class="cls-2" d="M600.311,754.313H577.658c0,11.726,9.9,21.231,22.12,21.231.179,0,.355-.009.533-.013Z" transform="translate(-466.814 -126.532)"/><path class="cls-2" d="M595.832,486.148v22.973c-11.571,0-20.952-10.043-20.952-22.432,0-.181.009-.36.013-.541Z" transform="translate(-466.814 -126.532)"/><polygon class="cls-2" points="133.904 734.763 133.904 678.647 125.446 678.647 125.446 734.763 15.542 734.763 15.542 742.534 125.446 742.534 133.904 742.534 133.904 734.763"/><polygon class="cls-2" points="133.904 562.033 133.347 562.033 129.018 562.033 13.156 562.033 13.156 563.442 13.156 566.818 13.156 568.369 18.427 568.369 18.427 566.819 129.018 566.818 129.018 600.719 109.789 600.719 109.789 604.939 129.018 604.939 131.45 604.939 133.904 604.939 133.904 562.033"/><line class="cls-2" x1="371.532" y1="101.498" x2="186.381" y2="101.498"/><rect class="cls-2" x="564.776" y="142.081" width="4.785" height="161.636" transform="translate(323.253 -470.802) rotate(90)"/><path class="cls-2" d="M639.54,225.728V208.812c-8.756,0-15.854,7.4-15.854,16.518,0,.134.007.265.01.4Z" transform="translate(-466.814 -126.532)"/><path class="cls-2" d="M607.832,225.728V208.812c8.756,0,15.854,7.4,15.854,16.518,0,.134-.007.265-.01.4Z" transform="translate(-466.814 -126.532)"/><polygon class="cls-3" points="507.448 899.386 506.261 735.285 505.056 568.791 446.226 568.791 181.33 568.791 181.33 415.601 424.309 415.601 424.6 253.222 373.089 253.222 369.313 7.674 305.313 5.285 305.313 10.345 84.434 16.468 68.891 0.025 7.951 0.5 7.404 256.37 133.842 256.37 133.842 566.818 18.426 566.818 13.156 575.296 6.717 577.652 6.404 723.87 6.55 742.534 134.028 742.534 134.028 773.947 195.759 773.947 195.759 899.386 358.27 899.386 507.448 899.386"/><rect class="cls-4" x="366.92" y="2.892" width="4.785" height="248.977"/><rect class="cls-4" x="807.768" y="859.425" width="332.988" height="4.785" transform="translate(1369.265 -238.977) rotate(90)"/><rect class="cls-5" x="358.199" y="762.561" width="3.784" height="138.715"/><path class="cls-6" d="M828.3,889.594v137.715h-2.785V889.594H828.3m1-1h-4.785v139.715H829.3V888.594Z" transform="translate(-466.814 -126.532)"/><rect class="cls-4" x="502.119" y="95.173" width="4.785" height="68.504" transform="translate(167.122 -501.619) rotate(90)"/><rect class="cls-4" x="646.617" y="28.884" width="4.785" height="225.135" transform="translate(323.647 -634.09) rotate(90)"/><rect class="cls-4" x="528.353" y="173.101" width="4.785" height="90.026" transform="translate(282.046 -439.164) rotate(90)"/><rect class="cls-4" x="575.149" y="314.943" width="4.785" height="38.296" transform="translate(444.818 -369.984) rotate(90)"/><rect class="cls-4" x="520.26" y="320.698" width="4.24" height="27.33" transform="translate(389.929 -314.55) rotate(90)"/><rect class="cls-4" x="521.857" y="398.405" width="4.785" height="98.968" transform="translate(505.324 -202.893) rotate(90)"/><rect class="cls-4" x="534.297" y="479.366" width="4.785" height="126.943" transform="translate(612.713 -120.384) rotate(90)"/><polygon class="cls-4" points="133.347 161.702 133.347 93.974 132.998 93.974 129.553 93.974 4.15 93.974 4.15 98.759 129.553 98.759 129.553 161.702 133.347 161.702"/><rect class="cls-4" x="469.981" y="127.032" width="4.785" height="889.145" transform="translate(477.932 1016.677) rotate(180)"/><rect class="cls-4" x="720.642" y="772.685" width="4.785" height="507.241" transform="translate(1282.526 176.739) rotate(90)"/><rect class="cls-6" x="823.295" y="212.735" width="15.542" height="15.542" transform="translate(584.759 -737.092) rotate(90)"/><rect class="cls-6" x="534.833" y="127.429" width="17.287" height="15.542" transform="translate(211.863 -534.808) rotate(90)"/><rect class="cls-6" x="470.19" y="212.735" width="15.542" height="15.542" transform="translate(231.654 -383.987) rotate(90)"/><rect class="cls-6" x="470.19" y="694.901" width="15.542" height="15.542" transform="translate(713.82 98.178) rotate(90)"/><rect class="cls-6" x="469.099" y="1012.766" width="15.542" height="15.542" transform="translate(1030.593 417.135) rotate(90)"/><rect class="cls-6" x="961.112" y="1013.153" width="15.542" height="15.542" transform="translate(1522.994 -74.491) rotate(90)"/><rect class="cls-6" x="824.47" y="375.131" width="15.542" height="15.542" transform="translate(748.33 -575.871) rotate(90)"/><rect class="cls-6" x="824.47" y="534.47" width="15.542" height="15.542" transform="translate(907.669 -416.532) rotate(90)"/><rect class="cls-6" x="959.844" y="725.351" width="28.836" height="4.785" transform="translate(1235.191 -373.051) rotate(90)"/><rect class="cls-6" x="958.614" y="777.676" width="31.296" height="4.785" transform="translate(1287.517 -320.726) rotate(90)"/><rect class="cls-6" x="958.614" y="830.847" width="31.296" height="4.785" transform="translate(1340.688 -267.554) rotate(90)"/><rect class="cls-6" x="958.614" y="887.256" width="31.296" height="4.785" transform="translate(1397.096 -211.146) rotate(90)"/><rect class="cls-6" x="958.614" y="937.656" width="31.296" height="4.785" transform="translate(1447.497 -160.746) rotate(90)"/><rect class="cls-6" x="958.614" y="991.671" width="31.296" height="4.785" transform="translate(1501.512 -106.73) rotate(90)"/><rect class="cls-6" x="805.561" y="1011.457" width="4.785" height="28.923" transform="translate(1367.058 91.432) rotate(90)"/><rect class="cls-6" x="746" y="1010.727" width="4.785" height="31.158" transform="translate(1307.884 151.381) rotate(90)"/><rect class="cls-6" x="685.321" y="1010.727" width="4.785" height="31.158" transform="translate(1247.205 212.06) rotate(90)"/><rect class="cls-6" x="624.642" y="1010.727" width="4.785" height="31.158" transform="translate(1186.526 272.739) rotate(90)"/><rect class="cls-6" x="563.963" y="1010.339" width="4.785" height="31.158" transform="translate(1125.46 333.03) rotate(90)"/><rect class="cls-6" x="503.285" y="1010.339" width="4.785" height="31.158" transform="translate(1064.781 393.709) rotate(90)"/><rect class="cls-6" x="647.986" y="1012.768" width="15.542" height="15.542" transform="translate(1209.483 238.25) rotate(90)"/><rect class="cls-4" x="478.906" y="328.58" width="4.24" height="11.565" transform="translate(348.575 -273.196) rotate(90)"/><rect class="cls-4" x="544.82" y="355.603" width="56.549" height="8.739" transform="translate(466.253 -339.654) rotate(90)"/><rect class="cls-4" x="523.362" y="342.407" width="7.735" height="82.992" transform="translate(444.318 -269.859) rotate(90)"/><rect class="cls-4" x="583.17" y="374.329" width="7.735" height="19.148" transform="translate(504.127 -329.667) rotate(90)"/><rect class="cls-4" x="89.542" y="261.715" width="4.785" height="30.947"/><rect class="cls-4" x="89.777" y="308.275" width="4.785" height="10.689"/><rect class="cls-4" x="576.595" y="384.261" width="4.24" height="34.679" transform="translate(513.502 -303.648) rotate(90)"/><rect class="cls-6" x="470.19" y="372.705" width="15.542" height="15.542" transform="translate(391.624 -224.018) rotate(90)"/><rect class="cls-6" x="458.73" y="191.523" width="27.711" height="4.791" transform="translate(199.691 -405.2) rotate(90)"/><rect class="cls-6" x="424.014" y="280.818" width="97.329" height="4.976" transform="translate(289.17 -315.905) rotate(90)"/><rect class="cls-6" x="457.708" y="406.497" width="29.54" height="4.575" transform="translate(414.449 -190.225) rotate(90)"/><rect class="cls-6" x="457.462" y="465.331" width="29.821" height="4.785" transform="translate(473.283 -131.182) rotate(90)"/><rect class="cls-6" x="457.356" y="513.333" width="30.243" height="4.575" transform="translate(521.284 -83.39) rotate(90)"/><rect class="cls-6" x="458.271" y="566.856" width="28.414" height="4.575" transform="translate(574.807 -29.867) rotate(90)"/><rect class="cls-6" x="457.286" y="619.746" width="30.384" height="4.575" transform="translate(627.697 23.023) rotate(90)"/><rect class="cls-6" x="458.342" y="672.142" width="28.271" height="4.575" transform="translate(680.094 75.42) rotate(90)"/><rect class="cls-6" x="457.618" y="727.304" width="29.54" height="4.395" transform="translate(735.075 130.581) rotate(90)"/><rect class="cls-6" x="457.567" y="780.438" width="29.821" height="4.575" transform="translate(788.389 183.715) rotate(90)"/><rect class="cls-6" x="457.92" y="833.557" width="28.906" height="4.785" transform="translate(841.508 237.044) rotate(90)"/><rect class="cls-6" x="457.744" y="888.311" width="29.258" height="4.785" transform="translate(896.263 291.799) rotate(90)"/><rect class="cls-6" x="457.583" y="940.448" width="29.399" height="4.605" transform="translate(948.219 343.935) rotate(90)"/><rect class="cls-6" x="458.216" y="992.494" width="28.133" height="4.605" transform="translate(1000.265 395.981) rotate(90)"/><rect class="cls-6" x="562.114" y="125.979" width="4.785" height="30.944" transform="translate(239.144 -549.587) rotate(90)"/><rect class="cls-6" x="622.435" y="125.979" width="4.785" height="30.944" transform="translate(299.466 -609.909) rotate(90)"/><rect class="cls-6" x="682.757" y="125.979" width="4.785" height="30.944" transform="translate(359.787 -670.23) rotate(90)"/><rect class="cls-6" x="743.078" y="125.346" width="4.785" height="32.211" transform="translate(420.108 -730.551) rotate(90)"/><rect class="cls-4" x="797.957" y="106.408" width="4.782" height="50.815" transform="translate(465.349 -795.065) rotate(90)"/><rect class="cls-6" x="823.295" y="129.107" width="15.542" height="15.542" transform="translate(501.13 -820.721) rotate(90)"/><rect class="cls-6" x="821.216" y="190.893" width="29.821" height="4.785" transform="translate(562.598 -769.373) rotate(90)"/><rect class="cls-6" x="820.935" y="249.129" width="30.384" height="4.785" transform="translate(620.834 -711.138) rotate(90)"/><rect class="cls-6" x="820.935" y="302.019" width="30.384" height="4.785" transform="translate(673.724 -658.248) rotate(90)"/><rect class="cls-6" x="822.06" y="355.19" width="28.133" height="4.785" transform="translate(726.895 -605.076) rotate(90)"/><rect class="cls-6" x="760.277" y="128.931" width="15.542" height="15.542" transform="translate(437.936 -757.878) rotate(90)"/><rect class="cls-6" x="800.964" y="116.764" width="5.697" height="30.032" transform="translate(468.778 -798.565) rotate(90)"/><line class="cls-7" x1="361.368" y1="18.435" x2="361.368" y2="90.949"/><rect class="cls-6" x="470.19" y="126.857" width="15.542" height="15.542" transform="translate(145.776 -469.866) rotate(90)"/><polygon class="cls-4" points="8.352 151.997 100.223 151.997 100.223 147.213 8.352 147.213 8.352 131.319 3.446 131.319 3.446 158.045 8.352 158.045 8.352 151.997"/><rect class="cls-6" x="505.97" y="114.919" width="4.96" height="28.836" transform="translate(170.973 -505.645) rotate(90)"/><path class="cls-6" d="M590.491,254.476l.621.016V278.7h-.847l0-.844v-22.54l-.142,0a22.989,22.989,0,0,0-22.958,22.541l.028.844h-.876v-.422a23.834,23.834,0,0,1,23.806-23.807C590.249,254.467,590.37,254.471,590.491,254.476Z" transform="translate(-466.814 -126.532)"/><rect class="cls-7" x="531.551" y="215.932" width="2.595" height="66.942" transform="translate(315.438 -409.977) rotate(90)"/><polyline class="cls-7" points="94.326 110.36 22.012 110.36 22.012 134.986 95.441 134.986"/><line class="cls-7" x1="92.17" y1="98.759" x2="92.17" y2="147.213"/><line class="cls-7" x1="86.866" y1="98.759" x2="86.866" y2="147.213"/><line class="cls-7" x1="81.562" y1="98.759" x2="81.562" y2="147.213"/><line class="cls-7" x1="76.259" y1="98.759" x2="76.259" y2="147.213"/><line class="cls-7" x1="70.955" y1="98.759" x2="70.955" y2="147.213"/><line class="cls-7" x1="65.651" y1="98.759" x2="65.651" y2="147.213"/><line class="cls-7" x1="60.348" y1="98.759" x2="60.348" y2="147.213"/><line class="cls-7" x1="55.044" y1="98.759" x2="55.044" y2="147.213"/><line class="cls-7" x1="49.74" y1="98.759" x2="49.74" y2="147.213"/><line class="cls-7" x1="44.437" y1="98.759" x2="44.437" y2="147.213"/><line class="cls-7" x1="39.133" y1="98.759" x2="39.133" y2="147.213"/><line class="cls-7" x1="33.829" y1="98.759" x2="33.829" y2="147.213"/><line class="cls-7" x1="56.055" y1="124.168" x2="65.651" y2="147.213"/><line class="cls-7" x1="59.147" y1="124.168" x2="68.855" y2="147.213"/><line class="cls-7" x1="115.275" y1="205.438" x2="115.275" y2="209.678"/><line class="cls-7" x1="129.798" y1="205.166" x2="117.385" y2="200.667"/><polyline class="cls-7" points="101.911 261.715 127.744 264.141 129.241 272.948"/><line class="cls-7" x1="101.911" y1="272.948" x2="101.911" y2="277.188"/><rect class="cls-4" x="591.537" y="273.946" width="3.946" height="5.5" transform="translate(403.392 -443.346) rotate(90)"/><polygon class="cls-4" points="91.934 323.749 88.698 323.749 88.698 339.503 84.469 339.503 84.469 323.749 81.562 323.749 81.562 342.879 91.934 342.879 91.934 323.749"/><rect class="cls-4" x="535.196" y="514.265" width="49.301" height="3.06" transform="translate(608.827 -170.584) rotate(90)"/><rect class="cls-4" x="513.954" y="402.719" width="3.589" height="81.967" transform="translate(492.637 -198.579) rotate(90)"/><line class="cls-7" x1="85.06" y1="315.375" x2="85.06" y2="318.964"/><line class="cls-7" x1="81.42" y1="315.375" x2="81.42" y2="318.964"/><line class="cls-7" x1="77.78" y1="315.375" x2="77.78" y2="318.964"/><line class="cls-7" x1="74.14" y1="315.375" x2="74.14" y2="318.964"/><line class="cls-7" x1="70.499" y1="315.375" x2="70.499" y2="318.964"/><line class="cls-7" x1="66.859" y1="315.375" x2="66.859" y2="318.964"/><line class="cls-7" x1="63.219" y1="315.375" x2="63.219" y2="318.964"/><line class="cls-7" x1="59.579" y1="315.375" x2="59.579" y2="318.964"/><line class="cls-7" x1="55.938" y1="315.375" x2="55.938" y2="318.964"/><line class="cls-7" x1="52.298" y1="315.375" x2="52.298" y2="318.964"/><line class="cls-7" x1="48.658" y1="315.375" x2="48.658" y2="318.964"/><line class="cls-7" x1="45.018" y1="315.375" x2="45.018" y2="318.964"/><line class="cls-7" x1="41.378" y1="315.375" x2="41.378" y2="318.964"/><line class="cls-7" x1="37.737" y1="315.375" x2="37.737" y2="318.964"/><line class="cls-7" x1="34.097" y1="315.375" x2="34.097" y2="318.964"/><line class="cls-7" x1="30.457" y1="315.375" x2="30.457" y2="318.964"/><line class="cls-7" x1="26.817" y1="315.375" x2="26.817" y2="318.964"/><line class="cls-7" x1="23.177" y1="315.375" x2="23.177" y2="318.964"/><line class="cls-7" x1="19.536" y1="315.375" x2="19.536" y2="318.964"/><line class="cls-7" x1="15.896" y1="315.375" x2="15.896" y2="318.964"/><line class="cls-7" x1="12.256" y1="315.375" x2="12.256" y2="318.964"/><rect class="cls-4" x="520.23" y="502.359" width="3.589" height="72.583" transform="translate(593.861 -109.906) rotate(90)"/><line class="cls-7" x1="88.747" y1="410.324" x2="88.747" y2="413.913"/><line class="cls-7" x1="85.107" y1="410.324" x2="85.107" y2="413.913"/><line class="cls-7" x1="81.467" y1="410.324" x2="81.467" y2="413.913"/><line class="cls-7" x1="77.827" y1="410.324" x2="77.827" y2="413.913"/><line class="cls-7" x1="74.186" y1="410.324" x2="74.186" y2="413.913"/><line class="cls-7" x1="70.546" y1="410.324" x2="70.546" y2="413.913"/><line class="cls-7" x1="66.906" y1="410.324" x2="66.906" y2="413.913"/><line class="cls-7" x1="63.266" y1="410.324" x2="63.266" y2="413.913"/><line class="cls-7" x1="59.625" y1="410.324" x2="59.625" y2="413.913"/><line class="cls-7" x1="55.985" y1="410.324" x2="55.985" y2="413.913"/><line class="cls-7" x1="52.345" y1="410.324" x2="52.345" y2="413.913"/><line class="cls-7" x1="48.705" y1="410.324" x2="48.705" y2="413.913"/><line class="cls-7" x1="45.065" y1="410.324" x2="45.065" y2="413.913"/><line class="cls-7" x1="41.424" y1="410.324" x2="41.424" y2="413.913"/><line class="cls-7" x1="37.784" y1="410.324" x2="37.784" y2="413.913"/><line class="cls-7" x1="34.144" y1="410.324" x2="34.144" y2="413.913"/><line class="cls-7" x1="30.504" y1="410.324" x2="30.504" y2="413.913"/><line class="cls-7" x1="26.864" y1="410.324" x2="26.864" y2="413.913"/><line class="cls-7" x1="23.223" y1="410.324" x2="23.223" y2="413.913"/><rect class="cls-6" x="470.19" y="535.066" width="15.542" height="15.542" transform="translate(553.985 -61.656) rotate(90)"/><rect class="cls-6" x="545.99" y="327.287" width="2.743" height="21.909" transform="translate(418.789 -335.653) rotate(90)"/><rect class="cls-6" x="496.389" y="327.287" width="2.743" height="21.909" transform="translate(369.188 -286.052) rotate(90)"/><rect class="cls-7" x="532.978" y="339.806" width="27.113" height="31.44" transform="translate(435.246 -317.542) rotate(90)"/><line class="cls-7" x1="95.441" y1="215.436" x2="64.001" y2="242.55"/><line class="cls-7" x1="64.001" y1="215.436" x2="95.441" y2="242.55"/><rect class="cls-7" x="485.284" y="339.806" width="27.113" height="31.44" transform="translate(387.552 -269.848) rotate(90)"/><line class="cls-7" x1="47.747" y1="215.436" x2="16.307" y2="242.55"/><line class="cls-7" x1="16.307" y1="215.436" x2="47.747" y2="242.55"/><rect class="cls-7" x="544.935" y="363.298" width="4.853" height="22.999" transform="translate(455.345 -299.097) rotate(90)"/><rect class="cls-7" x="496.414" y="363.298" width="4.853" height="22.999" transform="translate(406.824 -250.576) rotate(90)"/><rect class="cls-7" x="530.902" y="801.679" width="2.595" height="70.548" transform="translate(902.339 178.222) rotate(90)"/><polyline class="cls-7" points="91.874 697.91 19.56 697.91 19.56 722.536 92.988 722.536"/><line class="cls-7" x1="89.717" y1="686.309" x2="89.717" y2="734.763"/><line class="cls-7" x1="84.414" y1="686.309" x2="84.414" y2="734.763"/><line class="cls-7" x1="79.11" y1="686.309" x2="79.11" y2="734.763"/><line class="cls-7" x1="73.806" y1="686.309" x2="73.806" y2="734.763"/><line class="cls-7" x1="68.503" y1="686.309" x2="68.503" y2="734.763"/><line class="cls-7" x1="63.199" y1="686.309" x2="63.199" y2="734.763"/><line class="cls-7" x1="57.895" y1="686.309" x2="57.895" y2="734.763"/><line class="cls-7" x1="52.592" y1="686.309" x2="52.592" y2="734.763"/><line class="cls-7" x1="47.288" y1="686.309" x2="47.288" y2="734.763"/><line class="cls-7" x1="41.984" y1="686.309" x2="41.984" y2="734.763"/><line class="cls-7" x1="36.681" y1="686.309" x2="36.681" y2="734.763"/><line class="cls-7" x1="31.377" y1="686.309" x2="31.377" y2="734.763"/><line class="cls-7" x1="53.602" y1="711.719" x2="63.199" y2="734.763"/><line class="cls-7" x1="56.695" y1="711.719" x2="66.403" y2="734.763"/><rect class="cls-7" x="519.627" y="762.85" width="3.939" height="93.661" transform="translate(864.463 161.553) rotate(90)"/><path class="cls-6" d="M591.668,831.229l.6-.016V807.008h-.815l0,.844v22.54l-.136,0c-12.039,0-21.859-10.073-22.076-22.541l.027-.844h-.842v.422c0,13.127,10.269,23.807,22.891,23.807C591.436,831.237,591.552,831.233,591.668,831.229Z" transform="translate(-466.814 -126.532)"/><polygon class="cls-4" points="133.749 625.236 133.749 622.1 133.749 619.568 129.241 619.568 123.115 619.568 123.115 604.939 120.985 604.939 120.985 619.568 120.985 622.1 123.115 622.1 129.241 622.1 129.241 625.236 133.749 625.236"/><line class="cls-7" x1="131.45" y1="604.939" x2="131.45" y2="619.568"/><path class="cls-7" d="M545.924,727.251v17.02s7.891.141,12.392-5.486" transform="translate(-466.814 -126.532)"/><path class="cls-7" d="M576.213,727.251v17.02s-7.891.141-12.392-5.486" transform="translate(-466.814 -126.532)"/><rect class="cls-4" x="499" y="711.311" width="38.12" height="2.198" transform="translate(763.656 67.819) rotate(90)"/><rect class="cls-4" x="529.332" y="714.879" width="4.22" height="28.963" transform="translate(793.989 71.386) rotate(90)"/><rect class="cls-4" x="524.781" y="709.189" width="33.9" height="2.223" transform="translate(785.218 42.037) rotate(90)"/><polyline class="cls-7" points="58.401 566.818 68.503 569.491 73.806 597.624"/><polygon class="cls-4" points="58.984 643.762 58.984 625.236 58.401 625.236 54.199 625.236 7.771 625.236 7.771 629.977 54.199 629.977 54.199 643.762 58.984 643.762"/><rect class="cls-4" x="517.348" y="799.156" width="12.115" height="4.785" transform="translate(858.14 151.611) rotate(90)"/><rect class="cls-7" x="481.065" y="764.553" width="39.412" height="34.578" transform="translate(815.799 154.539) rotate(90)"/><line class="cls-7" x1="51.246" y1="635.604" x2="16.668" y2="675.016"/><line class="cls-7" x1="16.668" y1="635.604" x2="51.246" y2="675.016"/><rect class="cls-7" x="466.286" y="779.45" width="23.35" height="4.785" transform="translate(792.99 177.348) rotate(90)"/><rect class="cls-6" x="824.964" y="1014.487" width="13.327" height="14.315" transform="translate(1386.458 63.485) rotate(90)"/><rect class="cls-6" x="926.974" y="1009.62" width="5.503" height="33.372" transform="translate(1489.217 -29.952) rotate(90)"/><rect class="cls-6" x="866.295" y="1009.62" width="5.503" height="33.372" transform="translate(1428.538 30.727) rotate(90)"/><rect class="cls-6" x="969.149" y="1021.042" width="10.533" height="4.477" transform="translate(1530.883 -77.667) rotate(90)"/><polygon class="cls-4" points="84.434 16.468 80.548 16.468 80.548 29.899 46.991 29.899 46.991 33.838 84.434 33.838 84.434 16.468"/><line class="cls-7" x1="80.548" y1="16.468" x2="8.168" y2="29.899"/><line class="cls-7" x1="7.951" y1="16.468" x2="81.562" y2="16.468"/><polygon class="cls-5" points="182.349 571.81 182.349 568.024 422.142 568.024 422.142 249.099 426.492 249.099 426.492 568.024 495.309 568.024 495.309 571.81 182.349 571.81"/><path class="cls-6" d="M892.806,376.131V695.057h68.817v2.785H649.663v-2.785H889.456V376.131h3.35m1-1h-5.35V694.057H648.663v4.785h313.96v-4.785H893.806V375.131Z" transform="translate(-466.814 -126.532)"/><rect class="cls-6" x="824.47" y="694.057" width="15.542" height="15.542" transform="translate(1067.256 -256.945) rotate(90)"/><rect class="cls-6" x="961.508" y="694.057" width="15.542" height="15.542" transform="translate(1204.293 -393.983) rotate(90)"/><rect class="cls-6" x="876.29" y="408.995" width="29.118" height="4.785" transform="translate(835.422 -605.994) rotate(90)"/><rect class="cls-6" x="876.855" y="462.617" width="29.118" height="4.785" transform="translate(889.609 -552.937) rotate(90)"/><rect class="cls-6" x="876.855" y="516.239" width="29.118" height="4.785" transform="translate(943.231 -499.314) rotate(90)"/><rect class="cls-6" x="876.855" y="569.861" width="29.118" height="4.785" transform="translate(996.853 -445.692) rotate(90)"/><rect class="cls-6" x="876.29" y="677.106" width="29.118" height="4.785" transform="translate(1103.533 -337.883) rotate(90)"/><rect class="cls-6" x="876.29" y="623.484" width="29.118" height="4.785" transform="translate(1049.911 -391.505) rotate(90)"/><rect class="cls-6" x="860.169" y="351.375" width="9.881" height="57.394" transform="translate(778.367 -611.57) rotate(90)"/><polygon class="cls-5" points="354.51 896.881 354.51 883.68 372.699 883.68 372.699 887.949 359.376 887.949 359.376 896.881 354.51 896.881"/><path class="cls-6" d="M839.013,1010.712v3.269H825.69v8.932h-3.866v-12.2h17.189m1-1H820.824v14.2h5.866v-8.932h13.323v-5.269Z" transform="translate(-466.814 -126.532)"/><rect class="cls-6" x="821.122" y="1009.413" width="5.269" height="5.866" transform="translate(1369.289 62.057) rotate(90)"/><rect class="cls-4" x="647.986" y="849.068" width="19.914" height="19.914" transform="translate(1050.155 74.549) rotate(90)"/><rect class="cls-4" x="632.802" y="884.167" width="35.226" height="4.857" transform="translate(1070.196 109.648) rotate(90)"/><polygon class="cls-4" points="196.672 901.778 196.672 777.675 196.672 773.737 191.887 773.737 156.771 773.737 156.771 777.675 191.887 777.675 191.887 901.778 196.672 901.778"/><line class="cls-7" x1="196.715" y1="742.45" x2="196.715" y2="773.737"/><line class="cls-7" x1="186.029" y1="742.45" x2="196.715" y2="773.737"/><rect class="cls-4" x="129.241" y="773.493" width="4.509" height="128.216"/><rect class="cls-4" x="600.159" y="900.43" width="4.853" height="4.043" transform="translate(1038.224 173.333) rotate(90)"/><rect class="cls-5" x="358.156" y="602.92" width="3.214" height="126.43"/><path class="cls-6" d="M827.684,729.952V855.382H825.47V729.952h2.213m1-1H824.47V856.382h4.213V728.952Z" transform="translate(-466.814 -126.532)"/><rect class="cls-5" x="372.625" y="733.047" width="123.212" height="3.785"/><path class="cls-6" d="M962.15,860.079v2.785H839.938v-2.785H962.15m1-1H838.938v4.785H963.15v-4.785Z" transform="translate(-466.814 -126.532)"/><rect class="cls-6" x="961.112" y="853.701" width="15.542" height="15.542" transform="translate(1363.541 -233.944) rotate(90)"/><rect class="cls-6" x="824.47" y="853.701" width="15.542" height="15.542" transform="translate(1226.899 -97.302) rotate(90)"/><rect class="cls-4" x="751.571" y="96.152" width="4.785" height="148.437" transform="translate(457.521 -710.125) rotate(90)"/><rect class="cls-4" x="647.986" y="143.844" width="4.785" height="84.186" transform="translate(833.944 245.342) rotate(180)"/><line class="cls-7" x1="422.207" y1="415.601" x2="181.33" y2="415.601"/><polyline class="cls-7" points="411.094 420.913 398.629 408.448 386.373 420.704 373.825 408.156 357.656 408.156 343.578 422.234 331.196 407.938 321.982 422.234 307.686 407.938 294.06 422.234"/><polyline class="cls-7" points="255.146 422.749 245.729 408.671 231.651 422.749 219.269 408.453 210.055 422.749 195.759 408.453"/><rect class="cls-4" x="806.352" y="159.394" width="8.461" height="35.199" transform="translate(520.763 -760.121) rotate(90)"/><rect class="cls-4" x="690.447" y="162.061" width="8.461" height="29.865" transform="translate(404.857 -644.216) rotate(90)"/><polygon class="cls-4" points="118.651 519.695 128.709 519.695 128.709 515.053 114.463 515.053 114.463 562.029 118.651 562.029 118.651 519.695"/><rect class="cls-4" x="588.872" y="670.914" width="3.135" height="10.166" transform="translate(799.623 -40.974) rotate(90)"/><polygon class="cls-4" points="133.904 734.763 133.904 680.335 125.446 680.335 125.446 734.763 15.542 734.763 15.542 742.534 125.446 742.534 133.904 742.534 133.904 734.763"/><polygon class="cls-4" points="133.904 562.033 133.347 562.033 129.018 562.033 13.156 562.033 13.156 563.442 13.156 566.818 13.156 568.369 18.427 568.369 18.427 566.819 129.018 566.818 129.018 600.719 109.789 600.719 109.789 604.939 129.018 604.939 131.45 604.939 133.904 604.939 133.904 562.033"/><line class="cls-7" x1="371.532" y1="101.498" x2="186.381" y2="101.498"/><rect class="cls-4" x="544.277" y="161.736" width="4.785" height="122.326" transform="translate(302.754 -450.303) rotate(90)"/><rect class="cls-6" x="470.19" y="854.073" width="15.542" height="15.542" transform="translate(872.991 257.351) rotate(90)"/><rect class="cls-4" x="796.915" y="175.916" width="68.086" height="5.552" transform="translate(542.836 -778.798) rotate(90)"/><rect class="cls-6" x="647.986" y="853.44" width="15.542" height="15.542" transform="translate(1050.155 78.921) rotate(90)"/><path class="cls-6" d="M845.57,709.6v-.422h-21.1v.844h20.251A19.138,19.138,0,0,1,827,728.458v0h-.057c-.519.041-2.472,0-2.472,0v.892l.587.013c.1,0,.207.007.312.007A20.014,20.014,0,0,0,845.57,709.6Z" transform="translate(-466.814 -126.532)"/><path class="cls-6" d="M845.57,868.937v-.422h-21.1v.844h20.251A19.138,19.138,0,0,1,827,887.8v0h-.057c-.519.041-2.472,0-2.472,0v.892l.587.013c.1,0,.207.007.312.007A20.014,20.014,0,0,0,845.57,868.937Z" transform="translate(-466.814 -126.532)"/><rect class="cls-4" x="639.755" y="695.949" width="21.247" height="4.785" transform="translate(881.906 -78.57) rotate(90)"/><g class="cls-8"><path class="cls-7" d="M647.3,687.718h16.916c0-8.756-7.4-15.854-16.518-15.854-.134,0-.265.007-.4.01Z" transform="translate(-466.814 -126.532)"/><path class="cls-7" d="M647.3,656.01h16.916c0,8.756-7.4,15.854-16.518,15.854-.134,0-.265-.007-.4-.01Z" transform="translate(-466.814 -126.532)"/></g><g class="cls-9"><path class="cls-7" d="M646.971,530.157h16.916c0-8.756-7.4-15.854-16.518-15.854-.134,0-.265.007-.4.01Z" transform="translate(-466.814 -126.532)"/><path class="cls-7" d="M646.971,498.45h16.916c0,8.756-7.4,15.854-16.518,15.854-.134,0-.265-.007-.4-.01Z" transform="translate(-466.814 -126.532)"/></g><g class="cls-10"><path class="cls-7" d="M646.891,530.217h16.916c0-8.756-7.4-15.854-16.518-15.854-.134,0-.265.007-.4.01Z" transform="translate(-466.814 -126.532)"/><path class="cls-7" d="M646.891,498.51h16.916c0,8.756-7.4,15.854-16.518,15.854-.134,0-.265-.007-.4-.01Z" transform="translate(-466.814 -126.532)"/></g><rect class="cls-4" x="647.986" y="227.434" width="4.785" height="110.806" transform="translate(833.944 439.141) rotate(180)"/><rect class="cls-6" x="647.986" y="212.735" width="15.542" height="15.542" transform="translate(409.45 -561.783) rotate(90)"/><rect class="cls-4" x="647.986" y="369.947" width="4.785" height="128.262" transform="translate(833.944 741.624) rotate(180)"/><rect class="cls-6" x="647.986" y="375.131" width="15.542" height="15.542" transform="translate(571.846 -399.388) rotate(90)"/><rect class="cls-6" x="647.986" y="694.057" width="15.542" height="15.542" transform="translate(890.772 -80.462) rotate(90)"/><rect class="cls-4" x="587.741" y="590.98" width="125.275" height="4.785" transform="translate(776.938 -183.538) rotate(90)"/><rect class="cls-6" x="647.986" y="535.066" width="15.542" height="15.542" transform="translate(731.781 -239.452) rotate(90)"/><g class="cls-11"><path class="cls-7" d="M646.891,369.859h16.916c0-8.756-7.4-15.854-16.518-15.854-.134,0-.265.007-.4.01Z" transform="translate(-466.814 -126.532)"/><path class="cls-7" d="M646.891,338.151h16.916c0,8.756-7.4,15.854-16.518,15.854-.134,0-.265-.007-.4-.01Z" transform="translate(-466.814 -126.532)"/></g><g class="cls-12"><path class="cls-7" d="M652.641,181.224V153.636a26.859,26.859,0,0,1,26.779,26.939c0,.218-.011.433-.016.649Z" transform="translate(-466.814 -126.532)"/></g><g class="cls-13"><path class="cls-7" d="M639.54,225.728V208.812c-8.756,0-15.854,7.4-15.854,16.518,0,.134.007.265.01.4Z" transform="translate(-466.814 -126.532)"/><path class="cls-7" d="M607.832,225.728V208.812c8.756,0,15.854,7.4,15.854,16.518,0,.134-.007.265-.01.4Z" transform="translate(-466.814 -126.532)"/></g><rect class="cls-4" x="641.233" y="218.813" width="4.662" height="8.048" transform="translate(399.587 -547.259) rotate(90)"/><rect class="cls-4" x="476.379" y="154.842" width="3.915" height="7.142" transform="translate(169.935 -446.456) rotate(90)"/><g class="cls-14"><path class="cls-7" d="M482.1,155.223v16.916c8.756,0,15.854-7.4,15.854-16.518,0-.134-.007-.265-.01-.4Z" transform="translate(-466.814 -126.532)"/><path class="cls-7" d="M513.808,155.223v16.916c-8.756,0-15.854-7.4-15.854-16.518,0-.134.007-.265.01-.4Z" transform="translate(-466.814 -126.532)"/></g><g class="cls-15"><path class="cls-7" d="M601.047,319.553h-22.4c0-11.321,9.795-20.5,21.877-20.5.177,0,.351.009.527.012Z" transform="translate(-466.814 -126.532)"/><path class="cls-7" d="M601.047,288.6H589.966c0,5.6,4.844,10.138,10.82,10.138.087,0,.174,0,.261-.006Z" transform="translate(-466.814 -126.532)"/></g><polygon class="cls-4" points="133.347 193.156 129.553 193.156 129.553 318.964 127.871 318.964 127.871 323.749 129.553 323.749 129.553 323.749 133.347 323.749 133.347 193.156"/><g class="cls-16"><path class="cls-7" d="M594.685,450.281V427.308c-11.571,0-20.952,10.043-20.952,22.432,0,.181.009.36.013.541Z" transform="translate(-466.814 -126.532)"/></g><g class="cls-17"><path class="cls-7" d="M594.685,485.234v22.973c-11.571,0-20.952-10.043-20.952-22.432,0-.181.009-.36.013-.541Z" transform="translate(-466.814 -126.532)"/></g><rect class="cls-4" x="563.632" y="480.832" width="4.785" height="15.417" transform="translate(587.752 -204.016) rotate(90)"/><g class="cls-18"><path class="cls-7" d="M559.859,486.148H541.731c0-9.131,7.925-16.533,17.7-16.533.143,0,.284.007.427.01Z" transform="translate(-466.814 -126.532)"/></g><polygon class="cls-4" points="133.842 463.886 133.842 359.616 129.241 359.616 127.794 359.616 127.794 364.401 129.241 364.401 129.241 463.886 133.842 463.886"/><polygon class="cls-4" points="133.842 492.965 133.842 480.766 129.241 480.766 129.241 484.286 7.771 484.286 7.771 489.071 129.241 489.071 129.241 492.965 133.842 492.965"/><rect class="cls-4" x="129.241" y="508.818" width="4.601" height="118.962"/><rect class="cls-4" x="129.241" y="659.488" width="4.601" height="82.962"/><g class="cls-19"><path class="cls-7" d="M602,606.841H585.083c0-8.756,7.4-15.854,16.518-15.854.134,0,.265.007.4.01Z" transform="translate(-466.814 -126.532)"/><path class="cls-7" d="M602.1,619.5H585.186c0,8.756,7.4,15.854,16.518,15.854.134,0,.265-.007.4-.01Z" transform="translate(-466.814 -126.532)"/></g><g class="cls-20"><path class="cls-7" d="M601.51,785.963h-22.4c0-11.321,9.795-20.5,21.877-20.5.177,0,.351.009.527.012Z" transform="translate(-466.814 -126.532)"/><path class="cls-7" d="M601.51,755.01H590.429c0,5.6,4.844,10.138,10.82,10.138.087,0,.174,0,.261-.006Z" transform="translate(-466.814 -126.532)"/></g><g class="cls-21"><path class="cls-7" d="M602.255,868.966H585.34c0,8.549,7.4,15.479,16.518,15.479.134,0,.265-.007.4-.009Z" transform="translate(-466.814 -126.532)"/><path class="cls-7" d="M602.255,899.923H585.34c0-8.549,7.4-15.479,16.518-15.479.134,0,.265.007.4.009Z" transform="translate(-466.814 -126.532)"/></g><g class="cls-22"><path class="cls-7" d="M623.866,899.041V919.3a19.569,19.569,0,0,1-19.353-19.779c0-.16.008-.318.012-.477Z" transform="translate(-466.814 -126.532)"/></g></svg>