<svg id="组_1" data-name="组 1" xmlns="http://www.w3.org/2000/svg" viewBox="0 0 1212 580"><defs><style>.cls-1{fill:#eaeaea;fill-rule:evenodd;}.cls-2{fill:#d0eae5;}.cls-3{fill:#fff;}.cls-3,.cls-4{stroke:#adadad;stroke-miterlimit:10;}.cls-4{fill:none;}</style></defs><title>会议_1栋1楼</title><path class="cls-1" d="M1242,713V871H1115V846h-20.013a30.5,30.5,0,1,1-30.487-31c.5,0,1,.014,1.5.038V808H963v56H512V808H414v7.038c.5-.024,1-.038,1.5-.038a30.5,30.5,0,1,1-30.487,31H365v25H238V713H136V341H748V303h91v38h502V713Z" transform="translate(-132.5 -299.5)"/><polygon class="cls-2" points="1024.833 414.167 1024.833 358.5 753.5 358.5 753.5 414.167 469.833 414.167 469.833 358.5 198.5 358.5 198.5 413.5 105.5 413.5 105.5 455.5 198.5 455.5 198.5 522.5 280 522.5 280 508.167 378.833 508.167 378.833 564.5 830.5 564.5 830.5 508.167 953 508.167 953 531.5 1017 531.5 1017 460.5 1109.5 460.5 1109.5 414.167 1024.833 414.167"/><polygon class="cls-3" points="910.667 400.75 955.667 400.75 955.667 406.5 955.667 429.5 951.167 429.5 951.167 406.5 910.667 406.5 910.667 509 904.917 509 904.917 400.75 910.667 400.75"/><rect class="cls-3" x="951.167" y="448.5" width="4.5" height="22.5"/><rect class="cls-3" x="951.167" y="487.75" width="4.5" height="33.5"/><rect class="cls-4" x="1058.167" y="728.084" width="25.5" height="25.5" transform="translate(2009.333 1182.167) rotate(-180)"/><line class="cls-4" x1="951.167" y1="428.584" x2="925.667" y2="454.084"/><line class="cls-4" x1="951.167" y1="454.084" x2="925.667" y2="428.584"/><rect class="cls-4" x="1058.167" y="766.584" width="25.5" height="25.5" transform="translate(2009.333 1259.167) rotate(-180)"/><line class="cls-4" x1="951.167" y1="467.084" x2="925.667" y2="492.584"/><line class="cls-4" x1="951.167" y1="492.584" x2="925.667" y2="467.084"/><polygon class="cls-3" points="302 399 257 399 257 404.75 257 427.75 261.5 427.75 261.5 404.75 302 404.75 302 507.25 307.75 507.25 307.75 399 302 399"/><rect class="cls-3" x="257" y="446.75" width="4.5" height="22.5"/><rect class="cls-3" x="257" y="486" width="4.5" height="33.5"/><rect class="cls-4" x="261.5" y="426.833" width="25.5" height="25.5"/><line class="cls-4" x1="261.5" y1="426.833" x2="287" y2="452.333"/><line class="cls-4" x1="261.5" y1="452.333" x2="287" y2="426.833"/><rect class="cls-4" x="261.5" y="465.333" width="25.5" height="25.5"/><line class="cls-4" x1="261.5" y1="465.333" x2="287" y2="490.833"/><line class="cls-4" x1="261.5" y1="490.833" x2="287" y2="465.333"/><line class="cls-4" x1="124" y1="413.667" x2="137.5" y2="435.333"/><line class="cls-4" x1="161.667" y1="435" x2="137.5" y2="435"/><line class="cls-4" x1="156.667" y1="435" x2="156.667" y2="453.125"/><line class="cls-4" x1="161.333" y1="435" x2="161.333" y2="453.125"/><line class="cls-4" x1="129.25" y1="413.625" x2="129.25" y2="422.125"/><line class="cls-4" x1="133.063" y1="413.625" x2="133.063" y2="428.706"/><line class="cls-4" x1="136.875" y1="413.5" x2="136.875" y2="434.25"/><line class="cls-4" x1="140.688" y1="413.625" x2="140.688" y2="435"/><line class="cls-4" x1="144.5" y1="413.625" x2="144.5" y2="435"/><line class="cls-4" x1="148.313" y1="413.625" x2="148.313" y2="435"/><line class="cls-4" x1="152.125" y1="413.5" x2="152.125" y2="435"/><line class="cls-4" x1="155.938" y1="413.625" x2="155.938" y2="435"/><line class="cls-4" x1="159.75" y1="413.5" x2="159.75" y2="435"/><line class="cls-4" x1="1091.375" y1="416.354" x2="1077.875" y2="438.021"/><line class="cls-4" x1="1053.708" y1="437.688" x2="1077.875" y2="437.688"/><line class="cls-4" x1="1058.708" y1="437.688" x2="1058.708" y2="455.813"/><line class="cls-4" x1="1054.042" y1="437.688" x2="1054.042" y2="455.813"/><line class="cls-4" x1="1086.125" y1="416.313" x2="1086.125" y2="424.813"/><line class="cls-4" x1="1082.313" y1="416.313" x2="1082.312" y2="431.393"/><line class="cls-4" x1="1078.5" y1="416.188" x2="1078.5" y2="436.938"/><line class="cls-4" x1="1074.688" y1="416.313" x2="1074.687" y2="437.688"/><line class="cls-4" x1="1070.875" y1="416.313" x2="1070.875" y2="437.688"/><line class="cls-4" x1="1067.063" y1="416.313" x2="1067.062" y2="437.688"/><line class="cls-4" x1="1063.25" y1="416.188" x2="1063.25" y2="437.688"/><line class="cls-4" x1="1059.438" y1="416.313" x2="1059.437" y2="437.688"/><line class="cls-4" x1="1055.625" y1="416.188" x2="1055.625" y2="437.688"/><path class="cls-3" d="M842,338V300H745v38H133V716H235V874H368V849h14.192A33.5,33.5,0,1,0,417,812.033V811h91.333v56H696v-6H515V805h-.667v-.333H409.5V819H334V752H241V716h93V661H599.333v55.667H889V661h265.333v54.667H1239V755h-92.5v73h-58V804.667H960V861H780v6H966V811h97v1.033A33.5,33.5,0,1,0,1097.809,849H1112v25h133V716h99V338Zm397,530H1118V843h-25.965l-.048,2.951A27.5,27.5,0,1,1,1064.5,818c.453,0,.9.013,1.353.034l3.147.155v-7.522h13.5V834h70V761H1239ZM328,758v67h87.5v-7a27.5,27.5,0,1,1-27.488,27.951L387.965,843H362v25H241V758Zm1010-48H1160.333V655H883v55.667H605.333V655H328v55H139V344H751V306h85v38h502Z" transform="translate(-132.5 -299.5)"/><path class="cls-3" d="M780.466,850.2a13.8,13.8,0,0,0,0,27.6Z" transform="translate(-132.5 -299.5)"/><path class="cls-3" d="M695.333,850.2a13.8,13.8,0,0,1,0,27.6Z" transform="translate(-132.5 -299.5)"/></svg>