<svg id="组_1" data-name="组 1" xmlns="http://www.w3.org/2000/svg" xmlns:xlink="http://www.w3.org/1999/xlink" viewBox="0 0 1212 542"><defs><style>.cls-1,.cls-5{fill:none;}.cls-2{fill:#eaeaea;fill-rule:evenodd;}.cls-3{fill:#d0eae5;}.cls-4{fill:#fff;}.cls-4,.cls-5{stroke:#adadad;stroke-miterlimit:10;}.cls-6{clip-path:url(#clip-path);}.cls-7{clip-path:url(#clip-path-2);}.cls-8{clip-path:url(#clip-path-3);}.cls-9{clip-path:url(#clip-path-4);}.cls-10{clip-path:url(#clip-path-5);}.cls-11{clip-path:url(#clip-path-6);}.cls-12{clip-path:url(#clip-path-7);}</style><clipPath id="clip-path" transform="translate(-113.5 -288.5)"><rect class="cls-1" x="567.75" y="573.875" width="37.25" height="55"/></clipPath><clipPath id="clip-path-2" transform="translate(-113.5 -288.5)"><rect class="cls-1" x="1131.083" y="323" width="31.167" height="43.25"/></clipPath><clipPath id="clip-path-3" transform="translate(-113.5 -288.5)"><rect class="cls-1" x="584.75" y="316.75" width="21.125" height="51.625"/></clipPath><clipPath id="clip-path-4" transform="translate(-113.5 -288.5)"><rect class="cls-1" x="318" y="661.833" width="44.833" height="22.667"/></clipPath><clipPath id="clip-path-5" transform="translate(-113.5 -288.5)"><rect class="cls-1" x="1036.167" y="594.167" width="39.333" height="46.167"/></clipPath><clipPath id="clip-path-6" transform="translate(-113.5 -288.5)"><rect class="cls-1" x="1075.5" y="661.833" width="49.667" height="19.167"/></clipPath><clipPath id="clip-path-7" transform="translate(-113.5 -288.5)"><rect class="cls-1" x="1135.167" y="590.667" width="26.833" height="45.667"/></clipPath></defs><title>会议_1栋6楼</title><path class="cls-2" d="M117,292V664H219V822H346V797h20.013A30.5,30.5,0,1,0,396.5,766c-.5,0-1,.014-1.5.038V759h26V667h597v92h29v7.038c-.5-.024-1-.038-1.5-.038a30.5,30.5,0,1,0,30.487,31H1096v25h127V664h99V292Z" transform="translate(-113.5 -288.5)"/><polygon class="cls-3" points="105.5 375.5 105.5 417.5 198.5 417.5 198.5 484.5 280 484.5 280 470.167 308.5 470.167 308.5 378.5 904.5 378.5 904.5 470.167 953 470.167 953 493.5 1017 493.5 1017 422.5 1109.5 422.5 1109.5 376.167 105.5 375.5"/><rect class="cls-3" x="6.167" y="3.5" width="1043.043" height="372"/><rect class="cls-4" x="951.167" y="411.5" width="4.5" height="22.5"/><rect class="cls-4" x="951.167" y="450.75" width="4.5" height="32.5"/><rect class="cls-5" x="1039.167" y="680.084" width="25.5" height="25.5" transform="translate(1990.333 1097.167) rotate(-180)"/><line class="cls-5" x1="951.167" y1="391.584" x2="925.667" y2="417.084"/><line class="cls-5" x1="951.167" y1="417.084" x2="925.667" y2="391.584"/><rect class="cls-5" x="1039.167" y="718.584" width="25.5" height="25.5" transform="translate(1990.333 1174.167) rotate(-180)"/><line class="cls-5" x1="951.167" y1="430.084" x2="925.667" y2="455.584"/><line class="cls-5" x1="951.167" y1="455.584" x2="925.667" y2="430.084"/><rect class="cls-4" x="257" y="410.75" width="4.5" height="22.5"/><rect class="cls-4" x="257" y="450" width="4.5" height="31.5"/><rect class="cls-5" x="261.5" y="390.833" width="25.5" height="25.5"/><line class="cls-5" x1="261.5" y1="390.833" x2="287" y2="416.333"/><line class="cls-5" x1="261.5" y1="416.333" x2="287" y2="390.833"/><rect class="cls-5" x="261.5" y="429.333" width="25.5" height="25.5"/><line class="cls-5" x1="261.5" y1="429.333" x2="287" y2="454.833"/><line class="cls-5" x1="261.5" y1="454.833" x2="287" y2="429.333"/><line class="cls-5" x1="124" y1="375.667" x2="137.5" y2="397.333"/><line class="cls-5" x1="161.667" y1="397" x2="137.5" y2="397"/><line class="cls-5" x1="156.667" y1="397" x2="156.667" y2="415.125"/><line class="cls-5" x1="161.333" y1="397" x2="161.333" y2="415.125"/><line class="cls-5" x1="129.25" y1="375.625" x2="129.25" y2="384.125"/><line class="cls-5" x1="133.063" y1="375.625" x2="133.063" y2="390.706"/><line class="cls-5" x1="136.875" y1="375.5" x2="136.875" y2="396.25"/><line class="cls-5" x1="140.688" y1="375.625" x2="140.688" y2="397"/><line class="cls-5" x1="144.5" y1="375.625" x2="144.5" y2="397"/><line class="cls-5" x1="148.313" y1="375.625" x2="148.313" y2="397"/><line class="cls-5" x1="152.125" y1="375.5" x2="152.125" y2="397"/><line class="cls-5" x1="155.938" y1="375.625" x2="155.938" y2="397"/><line class="cls-5" x1="159.75" y1="375.5" x2="159.75" y2="397"/><line class="cls-5" x1="1091.375" y1="378.354" x2="1077.875" y2="400.021"/><line class="cls-5" x1="1053.708" y1="399.688" x2="1077.875" y2="399.688"/><line class="cls-5" x1="1058.708" y1="399.688" x2="1058.708" y2="417.813"/><line class="cls-5" x1="1054.042" y1="399.688" x2="1054.042" y2="417.813"/><line class="cls-5" x1="1086.125" y1="378.313" x2="1086.125" y2="386.813"/><line class="cls-5" x1="1082.313" y1="378.313" x2="1082.312" y2="393.393"/><line class="cls-5" x1="1078.5" y1="378.188" x2="1078.5" y2="398.938"/><line class="cls-5" x1="1074.688" y1="378.313" x2="1074.687" y2="399.688"/><line class="cls-5" x1="1070.875" y1="378.313" x2="1070.875" y2="399.688"/><line class="cls-5" x1="1067.063" y1="378.313" x2="1067.062" y2="399.688"/><line class="cls-5" x1="1063.25" y1="378.188" x2="1063.25" y2="399.688"/><line class="cls-5" x1="1059.438" y1="378.313" x2="1059.437" y2="399.688"/><line class="cls-5" x1="1055.625" y1="378.188" x2="1055.625" y2="399.688"/><rect class="cls-4" x="1106.79" y="6.5" width="5.669" height="366"/><rect class="cls-4" x="1269.645" y="549.1" width="5.669" height="93.04" transform="translate(1754.6 -965.36) rotate(90)"/><rect class="cls-4" x="1269.645" y="488.72" width="5.669" height="93.04" transform="translate(1694.22 -1025.739) rotate(90)"/><rect class="cls-4" x="1269.645" y="427.917" width="5.669" height="93.04" transform="translate(1633.417 -1086.542) rotate(90)"/><rect class="cls-4" x="1269.645" y="367.114" width="5.669" height="93.04" transform="translate(1572.614 -1147.345) rotate(90)"/><rect class="cls-4" x="1269.645" y="305.311" width="5.669" height="93.04" transform="translate(1510.811 -1209.148) rotate(90)"/><g class="cls-6"><path class="cls-5" d="M591.991,593.6a13.8,13.8,0,0,0,13.8,13.8V593.6Z" transform="translate(-113.5 -288.5)"/><path class="cls-5" d="M591.991,621.462a13.8,13.8,0,0,1,13.8-13.8v13.8Z" transform="translate(-113.5 -288.5)"/></g><g class="cls-7"><path class="cls-5" d="M1149.241,335.065a13.8,13.8,0,0,0,13.8,13.8v-13.8Z" transform="translate(-113.5 -288.5)"/><path class="cls-5" d="M1149.241,362.929a13.8,13.8,0,0,1,13.8-13.8v13.8Z" transform="translate(-113.5 -288.5)"/></g><g class="cls-8"><path class="cls-5" d="M592.826,331a13.8,13.8,0,0,0,13.8,13.8V331Z" transform="translate(-113.5 -288.5)"/><path class="cls-5" d="M592.826,358.864a13.8,13.8,0,0,1,13.8-13.8v13.8Z" transform="translate(-113.5 -288.5)"/></g><g class="cls-9"><path class="cls-5" d="M329.842,674.93a13.8,13.8,0,0,0,13.8-13.8h-13.8Z" transform="translate(-113.5 -288.5)"/><path class="cls-5" d="M357.705,674.93a13.8,13.8,0,0,1-13.8-13.8h13.8Z" transform="translate(-113.5 -288.5)"/></g><g class="cls-10"><path class="cls-5" d="M1048.924,604.766a13.8,13.8,0,0,1-13.8,13.8v-13.8Z" transform="translate(-113.5 -288.5)"/><path class="cls-5" d="M1048.924,632.63a13.8,13.8,0,0,0-13.8-13.8v13.8Z" transform="translate(-113.5 -288.5)"/></g><g class="cls-11"><path class="cls-5" d="M1086.842,674.525a13.8,13.8,0,0,0,13.8-13.8h-13.8Z" transform="translate(-113.5 -288.5)"/><path class="cls-5" d="M1114.705,674.525a13.8,13.8,0,0,1-13.8-13.8h13.8Z" transform="translate(-113.5 -288.5)"/></g><g class="cls-12"><path class="cls-5" d="M1149.241,604.5a13.8,13.8,0,0,0,13.8,13.8V604.5Z" transform="translate(-113.5 -288.5)"/><path class="cls-5" d="M1149.241,632.365a13.8,13.8,0,0,1,13.8-13.8v13.8Z" transform="translate(-113.5 -288.5)"/></g><rect class="cls-4" x="487.29" y="6.375" width="5.669" height="36.125"/><rect class="cls-4" x="487.29" y="70.364" width="5.669" height="234.735"/><rect class="cls-4" x="487.29" y="332.962" width="5.669" height="39.935"/><rect class="cls-4" x="921.893" y="343.865" width="5.669" height="28.862"/><polygon class="cls-4" points="927.562 277.333 925.936 277.333 921.893 277.333 921.893 316.266 927.562 316.266 927.562 283.003 1043.54 283.003 1043.54 277.333 927.562 277.333"/><path class="cls-4" d="M823,289H114V667H216V825H349V800h14.192A33.5,33.5,0,1,0,398,763.033V762l23.5.5-.25-95.233,159.083.4H870l148.417-.559v88.559l.083,6.833,25.5-.5v1.033A33.5,33.5,0,1,0,1078.809,800H1093v25h133V667h99V289ZM424,796.5a27.5,27.5,0,0,1-54.988.451L368.965,794H343v25H222V709h87v67h87.5v-7A27.531,27.531,0,0,1,424,796.5ZM1220,819H1099V794h-25.965l-.048,2.951A27.5,27.5,0,1,1,1045.5,769c.453,0,.9.013,1.353.034l3.147.155v-7.522h13.5V785h70V712H1220Zm99-158H1141.333l-26.628.064v5.681l20.628-.078H1220V706h-92.5v73h-58V755.667h-45.333V667.086l22.749-.086h17.751v14h4.5V666.916l17.675-.067v-5.719l-49.534.119h-13.141l-.184.032L864,661.667l-506.295-.526v5.966l12.795.032v13.11H375v-13.1l40.5.1v88.414h-25V770H315V703H222V667h93l14.842.037v-5.925L222,661H120V295H1319Z" transform="translate(-113.5 -288.5)"/><rect class="cls-4" x="1043.54" y="6.5" width="5.669" height="40.065"/><rect class="cls-4" x="1043.54" y="74.429" width="5.669" height="241.838"/><rect class="cls-4" x="1042.831" y="343.865" width="5.669" height="28.469"/></svg>