<svg id="组_1" data-name="组 1" xmlns="http://www.w3.org/2000/svg" xmlns:xlink="http://www.w3.org/1999/xlink" viewBox="0 0 722.456 924.833"><defs><style>.cls-1,.cls-4{fill:none;}.cls-2{fill:#d0eae5;}.cls-3{fill:#eaeaea;}.cls-4,.cls-6{stroke:#adadad;stroke-miterlimit:10;}.cls-5{clip-path:url(#clip-path);}.cls-6{fill:#fff;}.cls-7{clip-path:url(#clip-path-2);}.cls-8{clip-path:url(#clip-path-3);}.cls-9{clip-path:url(#clip-path-4);}.cls-10{clip-path:url(#clip-path-5);}.cls-11{clip-path:url(#clip-path-6);}.cls-12{clip-path:url(#clip-path-7);}.cls-13{clip-path:url(#clip-path-8);}.cls-14{clip-path:url(#clip-path-9);}.cls-15{clip-path:url(#clip-path-10);}.cls-16{clip-path:url(#clip-path-11);}.cls-17{clip-path:url(#clip-path-12);}.cls-18{clip-path:url(#clip-path-13);}.cls-19{clip-path:url(#clip-path-14);}.cls-20{clip-path:url(#clip-path-15);}.cls-21{clip-path:url(#clip-path-16);}.cls-22{clip-path:url(#clip-path-17);}.cls-23{clip-path:url(#clip-path-18);}.cls-24{clip-path:url(#clip-path-19);}.cls-25{clip-path:url(#clip-path-20);}.cls-26{clip-path:url(#clip-path-21);}.cls-27{clip-path:url(#clip-path-22);}.cls-28{clip-path:url(#clip-path-23);}.cls-29{clip-path:url(#clip-path-24);}.cls-30{clip-path:url(#clip-path-25);}.cls-31{clip-path:url(#clip-path-26);}.cls-32{clip-path:url(#clip-path-27);}.cls-33{clip-path:url(#clip-path-28);}.cls-34{clip-path:url(#clip-path-29);}.cls-35{clip-path:url(#clip-path-30);}.cls-36{clip-path:url(#clip-path-31);}.cls-37{clip-path:url(#clip-path-32);}.cls-38{clip-path:url(#clip-path-33);}.cls-39{clip-path:url(#clip-path-34);}</style><clipPath id="clip-path" transform="translate(-354.972 -77.5)"><rect class="cls-1" x="781.833" y="89.708" width="64.314" height="39.458"/></clipPath><clipPath id="clip-path-2" transform="translate(-354.972 -77.5)"><rect class="cls-1" x="355.063" y="369.625" width="45.875" height="21.75"/></clipPath><clipPath id="clip-path-3" transform="translate(-354.972 -77.5)"><rect class="cls-1" x="618" y="737.167" width="68.5" height="38.833"/></clipPath><clipPath id="clip-path-4" transform="translate(-354.972 -77.5)"><rect class="cls-1" x="802.5" y="808.333" width="29.667" height="71.833"/></clipPath><clipPath id="clip-path-5" transform="translate(-354.972 -77.5)"><rect class="cls-1" x="694.75" y="964.875" width="71.75" height="33.25"/></clipPath><clipPath id="clip-path-6" transform="translate(-354.972 -77.5)"><polygon class="cls-1" points="380.688 641.813 359.563 641.813 359.563 597.063 379.438 597.063 380.688 641.813"/></clipPath><clipPath id="clip-path-7" transform="translate(-354.972 -77.5)"><polygon class="cls-1" points="375.727 471.146 354.602 471.146 354.602 426.396 374.477 426.396 375.727 471.146"/></clipPath><clipPath id="clip-path-8" transform="translate(-354.972 -77.5)"><polygon class="cls-1" points="371.269 325.521 350.144 325.521 350.144 280.771 370.019 280.771 371.269 325.521"/></clipPath><clipPath id="clip-path-9" transform="translate(-354.972 -77.5)"><rect class="cls-1" x="411.25" y="195.875" width="34.125" height="48.625"/></clipPath><clipPath id="clip-path-10" transform="translate(-354.972 -77.5)"><polygon class="cls-1" points="387.173 855.209 387.508 878.707 364.2 874.162 364.344 854.079 387.173 855.209"/></clipPath><clipPath id="clip-path-11" transform="translate(-354.972 -77.5)"><rect class="cls-1" x="442.688" y="361.875" width="50.938" height="29.375"/></clipPath><clipPath id="clip-path-12" transform="translate(-354.972 -77.5)"><rect class="cls-1" x="430.167" y="181.75" width="44.5" height="29.5"/></clipPath><clipPath id="clip-path-13" transform="translate(-354.972 -77.5)"><rect class="cls-1" x="771.621" y="78.833" width="43.167" height="21.75"/></clipPath><clipPath id="clip-path-14" transform="translate(-354.972 -77.5)"><rect class="cls-1" x="781.944" y="163.721" width="64.314" height="39.458"/></clipPath><clipPath id="clip-path-15" transform="translate(-354.972 -77.5)"><rect class="cls-1" x="514.563" y="205.5" width="56.625" height="27.03"/></clipPath><clipPath id="clip-path-16" transform="translate(-354.972 -77.5)"><rect class="cls-1" x="628.125" y="242.469" width="55.727" height="27.03"/></clipPath><clipPath id="clip-path-17" transform="translate(-354.972 -77.5)"><rect class="cls-1" x="545.943" y="351.724" width="36.995" height="18.594"/></clipPath><clipPath id="clip-path-18" transform="translate(-354.972 -77.5)"><rect class="cls-1" x="581.688" y="205.5" width="36.375" height="20.313"/></clipPath><clipPath id="clip-path-19" transform="translate(-354.972 -77.5)"><rect class="cls-1" x="603.75" y="204.5" width="24.375" height="40.5"/></clipPath><clipPath id="clip-path-20" transform="translate(-354.972 -77.5)"><rect class="cls-1" x="756.125" y="203.5" width="24.375" height="40.5"/></clipPath><clipPath id="clip-path-21" transform="translate(-354.972 -77.5)"><rect class="cls-1" x="575.188" y="224.5" width="35.25" height="20.313"/></clipPath><clipPath id="clip-path-22" transform="translate(-354.972 -77.5)"><rect class="cls-1" x="672.424" y="181.156" width="44.5" height="29.5"/></clipPath><clipPath id="clip-path-23" transform="translate(-354.972 -77.5)"><rect class="cls-1" x="708.874" y="180.78" width="44.5" height="29.5"/></clipPath><clipPath id="clip-path-24" transform="translate(-354.972 -77.5)"><rect class="cls-1" x="615.313" y="332.708" width="34.313" height="20.313"/></clipPath><clipPath id="clip-path-25" transform="translate(-354.972 -77.5)"><rect class="cls-1" x="666.321" y="340.602" width="34" height="22.962" transform="translate(331.238 1035.405) rotate(-90)"/></clipPath><clipPath id="clip-path-26" transform="translate(-354.972 -77.5)"><rect class="cls-1" x="648.431" y="506.687" width="55.727" height="27.03"/></clipPath><clipPath id="clip-path-27" transform="translate(-354.972 -77.5)"><rect class="cls-1" x="625.681" y="659.105" width="34.355" height="20.313" transform="translate(1312.12 26.402) rotate(90)"/></clipPath><clipPath id="clip-path-28" transform="translate(-354.972 -77.5)"><rect class="cls-1" x="715.125" y="645.188" width="35.958" height="20.312"/></clipPath><clipPath id="clip-path-29" transform="translate(-354.972 -77.5)"><rect class="cls-1" x="609.025" y="754.684" width="34.355" height="20.313" transform="translate(-138.638 1391.043) rotate(-90)"/></clipPath><clipPath id="clip-path-30" transform="translate(-354.972 -77.5)"><rect class="cls-1" x="501.858" y="778.851" width="34.355" height="20.313" transform="translate(-269.971 1308.043) rotate(-90)"/></clipPath><clipPath id="clip-path-31" transform="translate(-354.972 -77.5)"><rect class="cls-1" x="453.608" y="778.851" width="34.355" height="20.313" transform="translate(-318.221 1259.793) rotate(-90)"/></clipPath><clipPath id="clip-path-32" transform="translate(-354.972 -77.5)"><rect class="cls-1" x="439.962" y="810.319" width="34.355" height="20.313" transform="translate(-363.336 1277.615) rotate(-90)"/></clipPath><clipPath id="clip-path-33" transform="translate(-354.972 -77.5)"><rect class="cls-1" x="515.89" y="808.996" width="34.355" height="20.313" transform="translate(-286.085 1352.22) rotate(-90)"/></clipPath><clipPath id="clip-path-34" transform="translate(-354.972 -77.5)"><rect class="cls-1" x="978.167" y="826.833" width="62.667" height="26.167"/></clipPath></defs><title>会议_2栋1楼</title><path class="cls-2" d="M389.188,992.021h72.667l-.187-24.187,168.436-.978,2.085-68.168h3.605l-.208,65.48,195.2-1.266-3.435,31.118,215.834,2.168,2.5-29.265,31.165-.235-51-756.667H990.188V149.354h30l-2.333-65.832H463.521s-16.5,4.165-18.667,22.165a142.253,142.253,0,0,0-.333,32l1,107.768L364.769,247l13.752,466.353Z" transform="translate(-354.972 -77.5)"/><path class="cls-3" d="M1026.428,207.792H990.761V147.125h30l-2.333-65.832H464.095s-16.5,4.165-18.667,22.165a142.251,142.251,0,0,0-.333,32l1,107.768-80.752,1.546,13.752,466.353,8.068,147.5,80.133-.468V798.25l55.615.334v38.249l110.85-3.893v-55.48H833.842V991.85l209.919,2.109,2.5-29.265,31.165-.235Z" transform="translate(-354.972 -77.5)"/><polygon class="cls-4" points="41.695 809.167 43.017 864.973 74.528 851 73.695 809.167 41.695 809.167"/><line class="cls-4" x1="41.821" y1="812.833" x2="73.804" y2="812.833"/><line class="cls-4" x1="41.821" y1="816.806" x2="73.804" y2="816.806"/><line class="cls-4" x1="41.821" y1="820.778" x2="73.804" y2="820.778"/><line class="cls-4" x1="41.821" y1="824.75" x2="73.804" y2="824.75"/><line class="cls-4" x1="41.821" y1="828.722" x2="73.804" y2="828.722"/><line class="cls-4" x1="41.821" y1="832.694" x2="73.804" y2="832.694"/><line class="cls-4" x1="41.821" y1="836.667" x2="73.804" y2="836.667"/><line class="cls-4" x1="41.821" y1="840.639" x2="73.804" y2="840.639"/><line class="cls-4" x1="42.12" y1="844.611" x2="74.103" y2="844.611"/><line class="cls-4" x1="42.12" y1="848.583" x2="74.103" y2="848.583"/><line class="cls-4" x1="43.12" y1="852.556" x2="71.02" y2="852.556"/><line class="cls-4" x1="42.821" y1="856.528" x2="62.063" y2="856.528"/><line class="cls-4" x1="42.821" y1="860.5" x2="52.778" y2="860.5"/><polygon class="cls-4" points="170.278 56.25 170.278 103.25 206.028 103.25 206.028 66.5 170.278 56.25"/><line class="cls-4" x1="170.278" y1="100.25" x2="206.028" y2="100.25"/><line class="cls-4" x1="170.278" y1="97.021" x2="206.028" y2="97.021"/><line class="cls-4" x1="170.278" y1="93.792" x2="206.028" y2="93.792"/><line class="cls-4" x1="170.278" y1="90.563" x2="206.028" y2="90.563"/><line class="cls-4" x1="170.278" y1="87.333" x2="206.028" y2="87.333"/><line class="cls-4" x1="170.278" y1="84.104" x2="206.028" y2="84.104"/><line class="cls-4" x1="170.278" y1="80.875" x2="206.028" y2="80.875"/><line class="cls-4" x1="170.278" y1="77.646" x2="206.028" y2="77.646"/><line class="cls-4" x1="170.278" y1="74.417" x2="206.028" y2="74.417"/><line class="cls-4" x1="170.278" y1="71.188" x2="206.028" y2="71.188"/><line class="cls-4" x1="171.278" y1="67.958" x2="206.028" y2="67.958"/><line class="cls-4" x1="171.278" y1="64.729" x2="199.528" y2="64.729"/><line class="cls-4" x1="171.278" y1="61.5" x2="187.345" y2="61.5"/><line class="cls-4" x1="170.278" y1="59.25" x2="179.312" y2="59.25"/><polygon class="cls-4" points="286.298 47.819 286.298 88.098 304.981 88.098 304.981 56.603 286.298 47.819"/><line class="cls-4" x1="286.298" y1="85.527" x2="304.981" y2="85.527"/><line class="cls-4" x1="286.298" y1="82.76" x2="304.981" y2="82.76"/><line class="cls-4" x1="286.298" y1="79.992" x2="304.981" y2="79.992"/><line class="cls-4" x1="286.298" y1="77.225" x2="304.981" y2="77.225"/><line class="cls-4" x1="286.298" y1="74.457" x2="304.981" y2="74.457"/><line class="cls-4" x1="286.298" y1="71.69" x2="304.981" y2="71.69"/><line class="cls-4" x1="286.298" y1="68.922" x2="304.981" y2="68.922"/><line class="cls-4" x1="286.298" y1="66.155" x2="304.981" y2="66.155"/><line class="cls-4" x1="286.298" y1="63.388" x2="304.981" y2="63.388"/><line class="cls-4" x1="286.298" y1="60.62" x2="304.981" y2="60.62"/><line class="cls-4" x1="286.821" y1="57.853" x2="304.981" y2="57.853"/><line class="cls-4" x1="286.821" y1="55.085" x2="301.584" y2="55.085"/><line class="cls-4" x1="286.821" y1="52.318" x2="295.217" y2="52.318"/><line class="cls-4" x1="286.298" y1="50.39" x2="291.019" y2="50.39"/><g class="cls-5"><path class="cls-4" d="M837.03,129.818c0-9.828-7.641-17.795-17.067-17.795v17.795Z" transform="translate(-354.972 -77.5)"/></g><rect class="cls-4" x="128.362" y="823.25" width="45.667" height="44.25"/><rect class="cls-4" x="179.695" y="823.25" width="45.667" height="44.25"/><rect class="cls-4" x="113.362" y="827.75" width="8" height="32.75"/><rect class="cls-4" x="231.362" y="827.75" width="8" height="32.75"/><line class="cls-4" x1="128.362" y1="823.25" x2="174.028" y2="867.5"/><line class="cls-4" x1="128.362" y1="867.5" x2="174.028" y2="823.25"/><line class="cls-4" x1="179.695" y1="823.25" x2="225.362" y2="867.5"/><line class="cls-4" x1="179.695" y1="867.5" x2="225.362" y2="823.25"/><path class="cls-6" d="M440.5,214.75h5.669v-4.006l6.447,0v-5.662h-6.447V106.125c0-11.625,7.081-22.456,18.08-22.456h37.417V205.078H470.333v5.649l55.917-.041v-5.608H507.334V83.669h68.331V205.078H560.492v5.583L596,210.635v-5.557H581.334V83.669h41.831V205.078H610.8v5.546l12.368-.009V216h5.669V83.669h31.291l-.292,126.919,34.833-.025v-5.485H665.794V83.669h53.081V205.078h-6.414v5.472l18.569-.014v-5.459h-6.485V83.669H774.58V205.078H748.1v5.446l26.734-.02v4.776H780.5v-6.946h0l-.241-124.664h5.292V78H463.634C451.5,78,439.875,92,440.5,106.25Z" transform="translate(-354.972 -77.5)"/><polygon class="cls-6" points="16.57 280.331 135.194 280.331 135.194 400.167 140.863 400.167 140.863 280.331 198.528 280.331 198.528 274.662 191.118 274.662 191.118 169.5 191.118 168 191.118 163.831 91.198 163.831 91.198 159.75 85.528 159.75 85.528 163.675 7.61 163.675 8.948 209.031 14.387 208.852 13.18 169.345 185.449 169.5 185.449 274.662 16.396 274.662 15.464 244.125 9.984 244.125 13.245 354.642 18.832 354.443 16.57 280.331"/><polygon class="cls-6" points="374.363 587.835 374.363 582.165 374.363 577.25 374.363 429.583 344.363 429.665 344.363 274.437 287.821 274.662 287.821 280.331 338.694 280.331 338.66 435.335 368.694 435.335 368.694 582.165 280.863 582.165 280.863 435.335 304.695 435.335 304.695 429.665 21.129 429.665 19.898 389.344 14.278 389.645 18.286 525.5 24.055 525.5 21.303 435.335 275.193 435.335 275.193 588 374.363 587.835"/><polygon class="cls-6" points="419.859 160.28 419.859 163.831 318.705 163.831 318.705 169.5 419.859 169.5 419.859 235.331 273.863 235.331 273.863 169.5 284.463 169.5 284.463 163.831 273.863 163.831 273.863 161 268.194 161 268.194 163.831 248.427 163.831 248.427 169.5 268.194 169.5 268.194 235.331 233.863 235.331 233.863 169.5 233.932 169.5 233.932 163.831 228.194 163.831 228.194 168 228.194 169.5 228.194 235.331 228.194 241 228.194 274.662 221.028 274.662 221.028 280.331 234.028 280.331 234.028 274.662 233.863 274.662 233.863 241 268.194 241 268.194 274.662 268.194 275.332 268.194 280.331 273.863 280.331 273.863 274.662 273.863 272.428 273.863 241 338.694 241 338.694 261.42 344.363 261.42 344.363 241 407.694 241 407.694 582.165 388.945 582.165 388.945 587.835 407.694 587.835 407.694 588 413.363 588 413.363 587.835 413.528 587.835 413.528 582.165 413.363 582.165 413.363 241 425.528 241 425.528 238.165 425.528 235.331 425.528 169.5 425.528 163.831 425.528 160.28 419.859 160.28"/><path class="cls-6" d="M395.25,858v.168h71.419l.087-33.91h-5.726L461,852.5H386.4l-4-139,.055,0h78.708l-.074,65.186h5.743V713.5h23.456v79.413h-29.22l-.02,16.777H466.8l.031-11.107h56.5V808H529V792.655l-33.043.259V713.5h27.374v65.186H529V713.5h75.2V831.165H529l-.065-8.353-5.67-.043.065,14.065h112.5V776.752h7.024v-5.669h-7.024v-1.961h-5.67v1.961H609.877V713.5h20.288v41.03h5.67V679.583h-5.67v28.249H382.229l-2.145-70.241-5.8.276L380.783,858Zm214.627-81.248h20.288v54.413H609.877Z" transform="translate(-354.972 -77.5)"/><path class="cls-6" d="M710.948,963.774l-75.363.393L635.817,891H456.665v95.165H390.4l-3.41-109.119h-5.646l3.387,114.789h77.6V969.5h167.58v32.33h5.67V969.5h48.33l27.034-.186ZM462.335,896.669h139.08v54.747H462.335Zm167.58,67.5H462.335v-7.083h144.75V896.669h22.83Z" transform="translate(-354.972 -77.5)"/><path class="cls-6" d="M1026.266,204.49,991,204.165V150.5l30.165.165-.006-.165h.006L1018.333,78H808.047v5.669h6.078v46.044h5.669V83.669h193.091l2.386,61.163-169.124-.526V124.04H837.03v5.669h3.448v34.206h-3.084v5.669h8.753v-19.59l139.186.965v53.206H819.794V169.585h.169v-5.669h-5.838v45.923h2.818l203.709.321,41.139,616.26h-31.569v5.669h31.948l8.617,129.078H958.343V832.088H995.98v-5.669h-162.9V771.333h-.289v-.251H677.1v5.669H827.412v55.73h5.669v-.394H952.674V961.166l-119.593,2V866.725h-5.669l-.247,96.443-81.975.428v5.485l81.975-.565V997h219.168V967.006l24.832-.171h5.67Zm14.4,786.842H832.834V968.477l207.83-1.432Z" transform="translate(-354.972 -77.5)"/><g class="cls-7"><path class="cls-4" d="M393.3,391.992c0-9.828-8.148-17.469-18.05-17.469l.341,17.789Z" transform="translate(-354.972 -77.5)"/></g><line class="cls-4" x1="322.129" y1="683.967" x2="287.887" y2="683.967"/><g class="cls-8"><path class="cls-4" d="M659.817,776.777c0-8.455-7.592-15.31-16.958-15.31v15.31Z" transform="translate(-354.972 -77.5)"/><path class="cls-4" d="M660.143,776.777H677.1v-15.31C667.736,761.467,660.143,768.321,660.143,776.777Z" transform="translate(-354.972 -77.5)"/></g><line class="cls-4" x1="462.974" y1="754.982" x2="462.974" y2="789.225"/><g class="cls-9"><path class="cls-4" d="M833.256,849.766c-8.455,0-15.31,7.592-15.31,16.958h15.31Z" transform="translate(-354.972 -77.5)"/><path class="cls-4" d="M833.256,849.44V832.482h-15.31C817.946,841.848,824.8,849.44,833.256,849.44Z" transform="translate(-354.972 -77.5)"/></g><line class="cls-4" x1="355.976" y1="901.777" x2="390.219" y2="901.777"/><g class="cls-10"><path class="cls-4" d="M728.232,963.967c0,8.455,7.592,15.31,16.958,15.31v-15.31Z" transform="translate(-354.972 -77.5)"/><path class="cls-4" d="M727.906,963.967H710.948v15.31C720.314,979.277,727.906,972.423,727.906,963.967Z" transform="translate(-354.972 -77.5)"/></g><g class="cls-11"><path class="cls-6" d="M380.976,620.254c-8.552.286-15.228,8.2-14.912,17.669l15.485-.517Z" transform="translate(-354.972 -77.5)"/><path class="cls-6" d="M380.965,619.924l-.573-17.152-15.485.517C365.223,612.762,372.413,620.209,380.965,619.924Z" transform="translate(-354.972 -77.5)"/></g><g class="cls-12"><path class="cls-6" d="M376.016,449.587c-8.552.286-15.228,8.2-14.912,17.669l15.485-.517Z" transform="translate(-354.972 -77.5)"/><path class="cls-6" d="M376,449.257l-.573-17.152-15.485.517C360.263,442.1,367.452,449.543,376,449.257Z" transform="translate(-354.972 -77.5)"/></g><g class="cls-13"><path class="cls-6" d="M371.557,303.962c-8.552.286-15.228,8.2-14.912,17.669l15.485-.517Z" transform="translate(-354.972 -77.5)"/><path class="cls-6" d="M371.546,303.632l-.573-17.152L355.488,287C355.8,296.47,362.994,303.918,371.546,303.632Z" transform="translate(-354.972 -77.5)"/></g><g class="cls-14"><path class="cls-6" d="M446.046,226.107c-6.627,0-12,4.989-12,11.143h12Z" transform="translate(-354.972 -77.5)"/><path class="cls-6" d="M446.046,225.893V214.75h-12C434.047,220.9,439.419,225.893,446.046,225.893Z" transform="translate(-354.972 -77.5)"/></g><g class="cls-15"><path class="cls-6" d="M371.054,857.991c-.071,9.828,7.513,17.85,16.938,17.917l.128-17.794Z" transform="translate(-354.972 -77.5)"/></g><g class="cls-16"><path class="cls-4" d="M487.231,374.887c-9.828,0-17.795,7.641-17.795,17.067h17.795Z" transform="translate(-354.972 -77.5)"/></g><g class="cls-17"><path class="cls-4" d="M469.683,212.106c0-9.94-7.641-18-17.067-18v18Z" transform="translate(-354.972 -77.5)"/></g><g class="cls-18"><path class="cls-6" d="M796.917,78c0,6.627,4.989,12,11.143,12V78Z" transform="translate(-354.972 -77.5)"/><path class="cls-6" d="M796.7,78H785.56V90C791.714,90,796.7,84.627,796.7,78Z" transform="translate(-354.972 -77.5)"/></g><g class="cls-19"><path class="cls-4" d="M837.14,163.07c0,9.828-7.641,17.795-17.067,17.795V163.07Z" transform="translate(-354.972 -77.5)"/></g><g class="cls-20"><path class="cls-4" d="M543.534,204.583c0,8.455,7.592,15.31,16.958,15.31v-15.31Z" transform="translate(-354.972 -77.5)"/><path class="cls-4" d="M543.208,204.583H526.25v15.31C535.616,219.893,543.208,213.038,543.208,204.583Z" transform="translate(-354.972 -77.5)"/></g><g class="cls-21"><path class="cls-4" d="M656.637,241.552c0,8.455,7.472,15.31,16.689,15.31v-15.31Z" transform="translate(-354.972 -77.5)"/><path class="cls-4" d="M656.316,241.552H639.627v15.31C648.844,256.861,656.316,250.007,656.316,241.552Z" transform="translate(-354.972 -77.5)"/></g><g class="cls-22"><path class="cls-4" d="M564.871,351.093a10.816,10.816,0,0,0,11.079,10.532V351.093Z" transform="translate(-354.972 -77.5)"/><path class="cls-4" d="M564.658,351.093H553.579v10.532A10.816,10.816,0,0,0,564.658,351.093Z" transform="translate(-354.972 -77.5)"/></g><g class="cls-23"><path class="cls-4" d="M596,219.139c8.173,0,14.8-6.354,14.8-14.192H596Z" transform="translate(-354.972 -77.5)"/></g><g class="cls-24"><path class="cls-4" d="M628.8,227.357c-6.627,0-12,4.989-12,11.143h12Z" transform="translate(-354.972 -77.5)"/><path class="cls-4" d="M628.8,227.143V216h-12C616.8,222.154,622.169,227.143,628.8,227.143Z" transform="translate(-354.972 -77.5)"/></g><g class="cls-25"><path class="cls-4" d="M781.171,226.357c-6.627,0-12,4.989-12,11.143h12Z" transform="translate(-354.972 -77.5)"/><path class="cls-4" d="M781.171,226.143V215h-12C769.172,221.154,774.544,226.143,781.171,226.143Z" transform="translate(-354.972 -77.5)"/></g><g class="cls-26"><path class="cls-4" d="M589.057,231.174a14.266,14.266,0,0,1,14.34,14.192h-14.34Z" transform="translate(-354.972 -77.5)"/></g><g class="cls-27"><path class="cls-4" d="M711.941,211.513c0-9.94-7.641-18-17.067-18v18Z" transform="translate(-354.972 -77.5)"/></g><g class="cls-28"><path class="cls-4" d="M748.39,211.136c0-9.94-7.641-18-17.067-18v18Z" transform="translate(-354.972 -77.5)"/></g><g class="cls-29"><path class="cls-4" d="M628.813,339.382a14.076,14.076,0,0,1,13.958,14.192H628.813Z" transform="translate(-354.972 -77.5)"/></g><g class="cls-30"><path class="cls-4" d="M695.469,338.891c-7.738,0-14.01,5.838-14.01,13.04h14.01Z" transform="translate(-354.972 -77.5)"/></g><g class="cls-31"><path class="cls-4" d="M676.943,505.77c0,8.455,7.472,15.31,16.689,15.31V505.77Z" transform="translate(-354.972 -77.5)"/><path class="cls-4" d="M676.622,505.77H659.933v15.31C669.15,521.08,676.622,514.225,676.622,505.77Z" transform="translate(-354.972 -77.5)"/></g><g class="cls-32"><path class="cls-4" d="M646.341,665.6a14.085,14.085,0,0,1-14.192,13.976V665.6Z" transform="translate(-354.972 -77.5)"/></g><g class="cls-33"><path class="cls-4" d="M729.274,651.861A14.415,14.415,0,0,1,743.9,666.053H729.274Z" transform="translate(-354.972 -77.5)"/></g><g class="cls-34"><path class="cls-4" d="M622.72,768.5a14.085,14.085,0,0,1,14.192-13.976V768.5Z" transform="translate(-354.972 -77.5)"/></g><g class="cls-35"><path class="cls-4" d="M515.554,792.667a14.085,14.085,0,0,1,14.192-13.976v13.976Z" transform="translate(-354.972 -77.5)"/></g><g class="cls-36"><path class="cls-4" d="M474.268,792.667a14.085,14.085,0,0,0-14.192-13.976v13.976Z" transform="translate(-354.972 -77.5)"/></g><g class="cls-37"><path class="cls-4" d="M451.5,824.136c0-7.945,7.506-14.385,16.765-14.385v14.385Z" transform="translate(-354.972 -77.5)"/></g><g class="cls-38"><path class="cls-4" d="M538.167,822.812c0-8.227-7.574-14.9-16.917-14.9v14.9Z" transform="translate(-354.972 -77.5)"/></g><g class="cls-39"><path class="cls-4" d="M1013.264,826.083c0,8.455,7.592,15.31,16.958,15.31v-15.31Z" transform="translate(-354.972 -77.5)"/><path class="cls-4" d="M1012.938,826.083H995.98v15.31C1005.346,841.393,1012.938,834.538,1012.938,826.083Z" transform="translate(-354.972 -77.5)"/></g><rect class="cls-6" x="38.119" y="307.936" width="76.564" height="5.669"/><rect class="cls-6" x="17.499" y="307.936" width="3.046" height="5.669"/><rect class="cls-6" x="132.285" y="307.936" width="2.908" height="5.669"/></svg>