<svg id="组_1" data-name="组 1" xmlns="http://www.w3.org/2000/svg" xmlns:xlink="http://www.w3.org/1999/xlink" viewBox="0 0 715.527 924.833"><defs><style>.cls-1,.cls-4{fill:none;}.cls-2{fill:#eaeaea;}.cls-3{fill:#d0eae5;}.cls-4,.cls-5{stroke:#adadad;stroke-miterlimit:10;}.cls-5{fill:#fff;}.cls-6{clip-path:url(#clip-path);}.cls-7{clip-path:url(#clip-path-2);}.cls-8{clip-path:url(#clip-path-3);}.cls-9{clip-path:url(#clip-path-4);}.cls-10{clip-path:url(#clip-path-5);}.cls-11{clip-path:url(#clip-path-6);}.cls-12{clip-path:url(#clip-path-7);}.cls-13{clip-path:url(#clip-path-8);}.cls-14{clip-path:url(#clip-path-9);}.cls-15{clip-path:url(#clip-path-10);}.cls-16{clip-path:url(#clip-path-11);}.cls-17{clip-path:url(#clip-path-12);}.cls-18{clip-path:url(#clip-path-13);}.cls-19{clip-path:url(#clip-path-14);}.cls-20{clip-path:url(#clip-path-15);}.cls-21{clip-path:url(#clip-path-16);}.cls-22{clip-path:url(#clip-path-17);}.cls-23{clip-path:url(#clip-path-18);}.cls-24{clip-path:url(#clip-path-19);}.cls-25{clip-path:url(#clip-path-20);}.cls-26{clip-path:url(#clip-path-21);}</style><clipPath id="clip-path" transform="translate(-366.842 -76.5)"><rect class="cls-1" x="446" y="244.833" width="26" height="55"/></clipPath><clipPath id="clip-path-2" transform="translate(-366.842 -76.5)"><rect class="cls-1" x="480.333" y="252.167" width="37.333" height="43.5"/></clipPath><clipPath id="clip-path-3" transform="translate(-366.842 -76.5)"><rect class="cls-1" x="409.333" y="157.094" width="76.5" height="51.906"/></clipPath><clipPath id="clip-path-4" transform="translate(-366.842 -76.5)"><rect class="cls-1" x="505.5" y="182.333" width="67.2" height="26.667"/></clipPath><clipPath id="clip-path-5" transform="translate(-366.842 -76.5)"><rect class="cls-1" x="586.335" y="205" width="49.665" height="31"/></clipPath><clipPath id="clip-path-6" transform="translate(-366.842 -76.5)"><rect class="cls-1" x="627.177" y="173.167" width="66.99" height="35.833"/></clipPath><clipPath id="clip-path-7" transform="translate(-366.842 -76.5)"><rect class="cls-1" x="588.165" y="227.167" width="45.841" height="28.5"/></clipPath><clipPath id="clip-path-8" transform="translate(-366.842 -76.5)"><rect class="cls-1" x="542.333" y="252.167" width="44.001" height="40.5"/></clipPath><clipPath id="clip-path-9" transform="translate(-366.842 -76.5)"><rect class="cls-1" x="581" y="346.667" width="58" height="40.167"/></clipPath><clipPath id="clip-path-10" transform="translate(-366.842 -76.5)"><rect class="cls-1" x="636.167" y="366.75" width="41.833" height="75.75"/></clipPath><clipPath id="clip-path-11" transform="translate(-366.842 -76.5)"><rect class="cls-1" x="637.167" y="639.333" width="30.833" height="73.5"/></clipPath><clipPath id="clip-path-12" transform="translate(-366.842 -76.5)"><rect class="cls-1" x="583.167" y="721.333" width="56" height="59.833"/></clipPath><clipPath id="clip-path-13" transform="translate(-366.842 -76.5)"><rect class="cls-1" x="532.833" y="781.167" width="31.833" height="46"/></clipPath><clipPath id="clip-path-14" transform="translate(-366.842 -76.5)"><rect class="cls-1" x="428.5" y="752.167" width="87.333" height="40.667"/></clipPath><clipPath id="clip-path-15" transform="translate(-366.842 -76.5)"><rect class="cls-1" x="778" y="766.853" width="59.042" height="137.397"/></clipPath><clipPath id="clip-path-16" transform="translate(-366.842 -76.5)"><rect class="cls-1" x="832.58" y="749.667" width="50.753" height="24.667"/></clipPath><clipPath id="clip-path-17" transform="translate(-366.842 -76.5)"><rect class="cls-1" x="859.667" y="687" width="23.667" height="53.667"/></clipPath><clipPath id="clip-path-18" transform="translate(-366.842 -76.5)"><rect class="cls-1" x="808.667" y="571.333" width="26.748" height="56.667"/></clipPath><clipPath id="clip-path-19" transform="translate(-366.842 -76.5)"><rect class="cls-1" x="796.833" y="457.833" width="37.833" height="60"/></clipPath><clipPath id="clip-path-20" transform="translate(-366.842 -76.5)"><rect class="cls-1" x="849" y="338.167" width="25" height="55.167"/></clipPath><clipPath id="clip-path-21" transform="translate(-366.842 -76.5)"><rect class="cls-1" x="833.5" y="215.167" width="32.833" height="65.833"/></clipPath></defs><title>会议_2栋2楼</title><path class="cls-2" d="M394,988.333h72.667V954H607.333l4-59H635.75l2.418,103.333,46.29,2.278L685.75,963h395.917l-51-756.667H995V145.667h30l-2.333-65.832H468.333S451.833,84,449.667,102a142.253,142.253,0,0,0-.333,32l1,107.768-80.752,1.546,13.752,466.353Z" transform="translate(-366.842 -76.5)"/><path class="cls-3" d="M624.208,893H837.042v70h244.625l-51-756.667H995V145.667h30l-2.333-65.832H468.333S451.833,84,449.667,102a91.932,91.932,0,0,0,1.667,32l-1.211,85.009h.378V350.435H375.267l10.857,357.3H641V831l-112.667,2.106V797.584H471.669L470.5,852.707H388.162L394,988.333h72.667V954H611.333V895h12.874Z" transform="translate(-366.842 -76.5)"/><line class="cls-4" x1="214.756" y1="100.083" x2="143.493" y2="100.083"/><line class="cls-4" x1="214.756" y1="95.083" x2="143.493" y2="95.083"/><line class="cls-4" x1="214.756" y1="89.25" x2="143.493" y2="89.25"/><line class="cls-4" x1="214.756" y1="84.583" x2="143.493" y2="84.583"/><line class="cls-4" x1="214.09" y1="79.25" x2="144.826" y2="79.25"/><line class="cls-4" x1="214.09" y1="73.917" x2="144.826" y2="73.917"/><line class="cls-4" x1="214.09" y1="68.583" x2="144.826" y2="68.583"/><line class="cls-4" x1="214.09" y1="63.25" x2="144.826" y2="63.25"/><line class="cls-4" x1="214.09" y1="58.917" x2="144.826" y2="58.917"/><line class="cls-4" x1="214.09" y1="53.083" x2="144.826" y2="53.083"/><line class="cls-4" x1="214.09" y1="48.083" x2="144.826" y2="48.083"/><line class="cls-4" x1="214.09" y1="38.083" x2="144.826" y2="38.083"/><line class="cls-4" x1="212.756" y1="43.083" x2="143.493" y2="43.083"/><line class="cls-4" x1="197.325" y1="100.083" x2="197.325" y2="19.417"/><line class="cls-4" x1="161.325" y1="100.083" x2="161.325" y2="19.417"/><line class="cls-4" x1="197.325" y1="19.417" x2="161.325" y2="19.417"/><rect class="cls-4" x="542.167" y="110.917" width="7.833" height="65.667" rx="1.75" ry="1.75" transform="translate(725.325 211) rotate(180)"/><rect class="cls-5" x="266.323" y="3.335" width="5.669" height="127.078"/><rect class="cls-5" x="213.823" y="4.534" width="5.669" height="127.078"/><rect class="cls-5" x="139.823" y="3.335" width="5.669" height="127.078"/><polygon class="cls-5" points="273.158 693.416 247.243 693.416 247.243 633.167 241.573 633.167 241.573 759.335 247.243 759.335 247.243 699.085 273.158 699.085 273.158 693.416"/><rect class="cls-5" x="322.116" y="745.249" width="148.085" height="5.669"/><rect class="cls-5" x="218.489" y="174.165" width="5.669" height="101.166"/><rect class="cls-5" x="153.489" y="174.165" width="5.669" height="101.166"/><line class="cls-4" x1="95.49" y1="818.5" x2="24.339" y2="818.5"/><line class="cls-4" x1="24.339" y1="824.333" x2="95.49" y2="824.333"/><line class="cls-4" x1="24.339" y1="829" x2="95.49" y2="829"/><line class="cls-4" x1="24.339" y1="834.333" x2="95.49" y2="834.333"/><line class="cls-4" x1="24.339" y1="839.667" x2="95.49" y2="839.667"/><line class="cls-4" x1="24.339" y1="845" x2="95.49" y2="845"/><line class="cls-4" x1="24.339" y1="850.333" x2="95.49" y2="850.333"/><line class="cls-4" x1="24.339" y1="854.667" x2="95.49" y2="854.667"/><line class="cls-4" x1="24.339" y1="860.5" x2="95.49" y2="860.5"/><line class="cls-4" x1="24.339" y1="865.5" x2="95.49" y2="865.5"/><line class="cls-4" x1="95.49" y1="875.5" x2="24.339" y2="875.5"/><line class="cls-4" x1="24.339" y1="870.5" x2="95.49" y2="870.5"/><line class="cls-4" x1="45.991" y1="813.5" x2="45.991" y2="894.167"/><line class="cls-4" x1="81.991" y1="813.5" x2="81.991" y2="894.167"/><line class="cls-4" x1="45.991" y1="894.167" x2="81.991" y2="894.167"/><rect class="cls-4" x="60.158" y="813.5" width="7.833" height="65.667" rx="1.75" ry="1.75"/><rect class="cls-4" x="489.042" y="899.042" width="44.25" height="45.667" transform="translate(-777.55 1356.542) rotate(-90)"/><line class="cls-4" x1="167.158" y1="867.5" x2="121.491" y2="823.25"/><line class="cls-4" x1="121.491" y1="867.5" x2="167.158" y2="823.25"/><rect class="cls-4" x="540.375" y="899.042" width="44.25" height="45.667" transform="translate(-726.217 1407.875) rotate(-90)"/><line class="cls-4" x1="218.491" y1="867.5" x2="172.825" y2="823.25"/><line class="cls-4" x1="172.825" y1="867.5" x2="218.491" y2="823.25"/><rect class="cls-4" x="106.491" y="827.75" width="8" height="32.75"/><rect class="cls-4" x="224.491" y="827.75" width="8" height="32.75"/><rect class="cls-5" x="80.658" y="127.578" width="9.828" height="5.669"/><rect class="cls-5" x="107.553" y="127.578" width="53.772" height="5.669"/><rect class="cls-5" x="201.124" y="127.578" width="41.78" height="5.669"/><rect class="cls-5" x="260.335" y="127.578" width="15.99" height="5.669"/><rect class="cls-5" x="205.858" y="174.165" width="37.41" height="5.669"/><rect class="cls-5" x="139.823" y="174.165" width="48.968" height="5.669"/><polygon class="cls-5" points="269.993 174.165 268.323 174.165 260.335 174.165 260.335 179.835 268.323 179.835 268.323 269.662 260.335 269.662 260.335 275.332 268.323 275.332 268.323 313.924 273.993 313.924 273.993 174.165 269.993 174.165"/><rect class="cls-5" x="511.489" y="579.668" width="5.669" height="39.828"/><rect class="cls-5" x="511.489" y="659.295" width="5.669" height="40.207"/><rect class="cls-5" x="268.323" y="353.723" width="5.669" height="233.712"/><polygon class="cls-5" points="508.073 353.5 508.073 313.734 502.404 313.734 502.404 353.5 468.573 353.5 462.904 353.5 462.904 359.169 462.904 389.935 468.573 389.935 468.573 359.169 679.158 359.169 679.158 353.5 508.073 353.5"/><polygon class="cls-5" points="508.073 273.935 508.073 234.169 671.158 234.169 671.158 228.5 471.407 228.5 471.407 197.652 465.738 197.652 465.738 234.169 468.158 234.169 471.407 234.169 502.404 234.169 502.404 273.935 508.073 273.935"/><polygon class="cls-5" points="465.738 157.852 471.407 157.852 471.407 3.335 465.738 3.335 465.738 127.578 316.124 127.578 316.124 133.247 465.738 133.247 465.738 157.852"/><rect class="cls-5" x="462.904" y="429.734" width="5.669" height="75.511"/><polygon class="cls-5" points="468.573 576.833 468.573 545.045 462.904 545.045 462.904 582.503 694.491 582.503 694.491 576.833 468.573 576.833"/><polygon class="cls-5" points="268.323 753.665 167.161 753.665 167.161 742.631 161.491 742.631 161.491 759.335 161.825 759.335 167.161 759.335 273.993 759.335 273.993 756.5 273.993 753.665 273.993 686.989 268.323 686.989 268.323 753.665"/><path class="cls-5" d="M1031.266,203.49H996V149.5h24.49l.006.165h5.669l-.006-.165h.006v-5.669h-.228L1023.333,77h-554.7C456.5,77,444.875,91,445.5,105.25V240.175H367.582v3.139l-.225.007,22.376,741.844v5.669h77.6v-34.75h144.75V895.669h22.831v105.164h54v-35h392.92ZM606.415,950.415H467.335V895.669H606.415Zm226,9.751H683.245v35H640.585V895.669H832.412Zm5.669,0V882.652h-5.669V890H461.665v95.165H395.4l-4-128h80.268V797.584H479.8v-5.669H466V851.5H391.4l-4-139,.055,0H528.333v79.413H496.867v5.669h31.467v3.752H534V712.5H635.165v33.921h5.669V703.734h-5.669v3.1H387.229l-11-355H609.746v-5.669H451.169V284.352H445.5v61.811H375.957l-2.8-100.318H445.5v21.44h5.669v-10.95H489.6v-5.669H451.169V105.125c0-11.625,7.081-22.456,18.079-22.456h548.636l2.386,61.163H990.333v65.327h35.32l37.462,561.174H868.881V776h194.612l12.294,184.163Z" transform="translate(-366.842 -76.5)"/><polygon class="cls-5" points="484.973 699.503 484.973 693.833 471.239 693.833 465.57 693.833 465.57 699.503 465.57 766.352 471.239 766.352 471.239 699.503 484.973 699.503"/><g class="cls-6"><path class="cls-4" d="M462.892,267.285c0,9.426-7.967,17.067-17.795,17.067V267.285Z" transform="translate(-366.842 -76.5)"/></g><g class="cls-7"><path class="cls-4" d="M506.665,269.194c-9.426,0-17.067-7.967-17.067-17.795h17.067Z" transform="translate(-366.842 -76.5)"/></g><g class="cls-8"><path class="cls-4" d="M457.328,192.355c9.426,0,17.067,7.967,17.067,17.795H457.328Z" transform="translate(-366.842 -76.5)"/></g><g class="cls-9"><path class="cls-4" d="M528.167,192.355c10.886,0,19.71,7.967,19.71,17.795h-19.71Z" transform="translate(-366.842 -76.5)"/><path class="cls-4" d="M567.966,192.355c-10.886,0-19.71,7.967-19.71,17.795h19.71Z" transform="translate(-366.842 -76.5)"/></g><g class="cls-10"><path class="cls-4" d="M627.177,221.907c-9.426,0-17.067-7.967-17.067-17.795h17.067Z" transform="translate(-366.842 -76.5)"/></g><g class="cls-11"><path class="cls-4" d="M643.167,192.355c10.886,0,19.71,7.967,19.71,17.795h-19.71Z" transform="translate(-366.842 -76.5)"/><path class="cls-4" d="M682.966,192.355c-10.886,0-19.71,7.967-19.71,17.795h19.71Z" transform="translate(-366.842 -76.5)"/></g><g class="cls-12"><path class="cls-4" d="M610.11,238.871c9.426,0,17.067,7.967,17.067,17.795H610.11Z" transform="translate(-366.842 -76.5)"/></g><g class="cls-13"><path class="cls-4" d="M572.7,269.194c-9.426,0-17.067-7.967-17.067-17.795H572.7Z" transform="translate(-366.842 -76.5)"/></g><g class="cls-14"><path class="cls-4" d="M627.541,345.757c0,9.426-7.967,17.067-17.795,17.067V345.757Z" transform="translate(-366.842 -76.5)"/></g><g class="cls-15"><path class="cls-4" d="M653.081,390.424c0,10.886-7.967,19.71-17.795,19.71v-19.71Z" transform="translate(-366.842 -76.5)"/><path class="cls-4" d="M653.081,430.223c0-10.886-7.967-19.71-17.795-19.71v19.71Z" transform="translate(-366.842 -76.5)"/></g><g class="cls-16"><path class="cls-4" d="M654.081,663.935c0,10.886-7.967,19.71-17.795,19.71v-19.71Z" transform="translate(-366.842 -76.5)"/><path class="cls-4" d="M654.081,703.734c0-10.886-7.967-19.71-17.795-19.71v19.71Z" transform="translate(-366.842 -76.5)"/></g><g class="cls-17"><path class="cls-4" d="M622.644,746.423c0,9.426,7.967,17.067,17.795,17.067V746.423Z" transform="translate(-366.842 -76.5)"/></g><g class="cls-18"><path class="cls-4" d="M532,801.336c9.426,0,17.067,7.967,17.067,17.795H532Z" transform="translate(-366.842 -76.5)"/></g><g class="cls-19"><path class="cls-4" d="M479.8,776c9.426,0,17.067,7.967,17.067,17.795H479.8Z" transform="translate(-366.842 -76.5)"/></g><g class="cls-20"><path class="cls-4" d="M820.348,842.852c0,10.886,7.967,19.71,17.795,19.71v-19.71Z" transform="translate(-366.842 -76.5)"/><path class="cls-4" d="M820.348,882.652c0-10.886,7.967-19.71,17.795-19.71v19.71Z" transform="translate(-366.842 -76.5)"/></g><g class="cls-21"><path class="cls-4" d="M868.881,757.956c-9.426,0-17.067,7.967-17.067,17.795h17.067Z" transform="translate(-366.842 -76.5)"/></g><g class="cls-22"><path class="cls-4" d="M866.536,696c0,10.886,7.967,19.71,17.795,19.71V696Z" transform="translate(-366.842 -76.5)"/><path class="cls-4" d="M866.536,735.8c0-10.886,7.967-19.71,17.795-19.71V735.8Z" transform="translate(-366.842 -76.5)"/></g><g class="cls-23"><path class="cls-4" d="M818.2,581.746c0,10.886,7.967,19.71,17.795,19.71v-19.71Z" transform="translate(-366.842 -76.5)"/><path class="cls-4" d="M818.2,621.545c0-10.886,7.967-19.71,17.795-19.71v19.71Z" transform="translate(-366.842 -76.5)"/></g><g class="cls-24"><path class="cls-4" d="M817.951,466.435c0,10.886,7.967,19.71,17.795,19.71v-19.71Z" transform="translate(-366.842 -76.5)"/><path class="cls-4" d="M817.951,506.234c0-10.886,7.967-19.71,17.795-19.71v19.71Z" transform="translate(-366.842 -76.5)"/></g><g class="cls-25"><path class="cls-4" d="M857.451,350.435c0,10.886,7.967,19.71,17.795,19.71v-19.71Z" transform="translate(-366.842 -76.5)"/><path class="cls-4" d="M857.451,390.234c0-10.886,7.967-19.71,17.795-19.71v19.71Z" transform="translate(-366.842 -76.5)"/></g><g class="cls-26"><path class="cls-4" d="M850.464,234.352c0,10.886-7.967,19.71-17.795,19.71v-19.71Z" transform="translate(-366.842 -76.5)"/><path class="cls-4" d="M850.464,274.152c0-10.886-7.967-19.71-17.795-19.71v19.71Z" transform="translate(-366.842 -76.5)"/></g></svg>