<svg id="组_1" data-name="组 1" xmlns="http://www.w3.org/2000/svg" xmlns:xlink="http://www.w3.org/1999/xlink" viewBox="0 0 1185.794 685.503"><defs><style>.cls-1,.cls-8{fill:none;}.cls-2{fill:#eaeaea;}.cls-3{fill:#d0eae5;}.cls-4{fill:#e3e1df;}.cls-5,.cls-6{fill:#fff;}.cls-5,.cls-8{stroke:#adadad;stroke-miterlimit:10;}.cls-7{fill:#adadad;}.cls-9{clip-path:url(#clip-path);}.cls-10{clip-path:url(#clip-path-2);}.cls-11{clip-path:url(#clip-path-3);}.cls-12{clip-path:url(#clip-path-4);}.cls-13{clip-path:url(#clip-path-5);}.cls-14{clip-path:url(#clip-path-6);}.cls-15{clip-path:url(#clip-path-7);}.cls-16{clip-path:url(#clip-path-8);}.cls-17{clip-path:url(#clip-path-9);}.cls-18{clip-path:url(#clip-path-10);}.cls-19{clip-path:url(#clip-path-11);}.cls-20{clip-path:url(#clip-path-12);}.cls-21{clip-path:url(#clip-path-13);}.cls-22{clip-path:url(#clip-path-14);}.cls-23{clip-path:url(#clip-path-15);}.cls-24{clip-path:url(#clip-path-16);}</style><clipPath id="clip-path" transform="translate(-148.706 -169)"><rect class="cls-1" x="676.688" y="264.472" width="35.146" height="33.666"/></clipPath><clipPath id="clip-path-2" transform="translate(-148.706 -169)"><rect class="cls-1" x="823.875" y="247" width="67.125" height="27.188"/></clipPath><clipPath id="clip-path-3" transform="translate(-148.706 -169)"><rect class="cls-1" x="1208" y="636.917" width="65" height="28.083"/></clipPath><clipPath id="clip-path-4" transform="translate(-148.706 -169)"><rect class="cls-1" x="902.083" y="604.25" width="65.917" height="32.171"/></clipPath><clipPath id="clip-path-5" transform="translate(-148.706 -169)"><rect class="cls-1" x="727" y="591.125" width="79.25" height="45.296"/></clipPath><clipPath id="clip-path-6" transform="translate(-148.706 -169)"><rect class="cls-1" x="387.763" y="669.124" width="30.237" height="79.549" transform="translate(805.763 1417.797) rotate(180)"/></clipPath><clipPath id="clip-path-7" transform="translate(-148.706 -169)"><rect class="cls-1" x="379.186" y="661.222" width="67.667" height="34.833"/></clipPath><clipPath id="clip-path-8" transform="translate(-148.706 -169)"><polygon class="cls-1" points="591.333 731.651 554.798 731.438 554.798 686.469 591.333 686.683 591.333 731.651"/></clipPath><clipPath id="clip-path-9" transform="translate(-148.706 -169)"><rect class="cls-1" x="597.5" y="742.667" width="58.25" height="31.583"/></clipPath><clipPath id="clip-path-10" transform="translate(-148.706 -169)"><rect class="cls-1" x="637.25" y="690.75" width="32.417" height="43.417"/></clipPath><clipPath id="clip-path-11" transform="translate(-148.706 -169)"><rect class="cls-1" x="695.833" y="694.087" width="65.25" height="29.913"/></clipPath><clipPath id="clip-path-12" transform="translate(-148.706 -169)"><rect class="cls-1" x="819" y="693.417" width="54.583" height="31.5"/></clipPath><clipPath id="clip-path-13" transform="translate(-148.706 -169)"><rect class="cls-1" x="939.667" y="669.833" width="60.667" height="26.417"/></clipPath><clipPath id="clip-path-14" transform="translate(-148.706 -169)"><rect class="cls-1" x="1190.583" y="660.667" width="81.25" height="36.667"/></clipPath><clipPath id="clip-path-15" transform="translate(-148.706 -169)"><rect class="cls-1" x="1280.083" y="636.917" width="26.25" height="49.333"/></clipPath><clipPath id="clip-path-16" transform="translate(-148.706 -169)"><rect class="cls-1" x="627.503" y="608.063" width="56.06" height="28.359"/></clipPath></defs><title>会议_3栋1楼</title><polygon class="cls-2" points="0 320.333 0 596.833 54.98 596.833 54.98 684 364.294 684 364.294 674.495 918.21 674.495 918.21 685.003 1138.629 685.003 1138.629 670.168 1185.294 670.168 1185.294 553.125 1133.294 553.125 1133.294 535.375 1185.294 535.375 1185.294 418.75 1135.776 418.75 1135.776 391.75 1185.294 391.75 1185.294 261.25 1135.129 261.25 1135.129 77.147 1129.004 77.147 1129.004 0 663.044 0 663.044 79.75 490.125 79.75 490.125 176.832 355.793 176.832 355.793 197.333 58.293 197.333 58.293 320.333 0 320.333"/><path class="cls-3" d="M1334,627.583h-54.834l.084,8.838H509.27V409.03H207v80.3H148.706v276.5h54.98V853H513v-9.505h1.167V693.417h169.4v-.33H858.416V692.5H926v99.167H875.164v49.241h-175.5v2.588h367.251V854h12.807L1081,697.951l204,.174-.265,2.375,44.015-.75-1.5-7.323H1334Zm-821.562,92.4H452.653V695.335h59.784Z" transform="translate(-148.706 -169)"/><rect class="cls-4" x="494.294" y="127.416" width="70" height="4.251"/><rect class="cls-5" x="58.293" y="197.333" width="5.669" height="132.667"/><rect class="cls-5" x="353.081" y="220.251" width="5.669" height="297.835" transform="translate(-161.958 556.084) rotate(-90)"/><rect class="cls-5" x="353.081" y="258.917" width="5.669" height="297.835" transform="translate(-200.624 594.751) rotate(-90)"/><rect class="cls-5" x="357.333" y="266.004" width="5.669" height="295" transform="translate(-202.042 604.672) rotate(-90)"/><rect class="cls-5" x="355.793" y="176.833" width="5.669" height="273.167"/><rect class="cls-5" x="355.793" y="176.832" width="140.001" height="5.669"/><rect class="cls-5" x="579.164" y="306.667" width="125.003" height="5.669" transform="translate(802.461 -501.164) rotate(90)"/><rect class="cls-5" x="728.494" y="78" width="405.801" height="5.669"/><rect class="cls-5" x="490.125" y="78" width="200.801" height="5.669"/><rect class="cls-6" x="935.961" y="239.672" width="197" height="4.669"/><path class="cls-7" d="M1281.167,409.172v3.669h-196v-3.669h196m1-1h-198v5.669h198v-5.669Z" transform="translate(-148.706 -169)"/><polygon class="cls-5" points="1123.044 1.75 669.294 1.75 663.044 1.75 663.044 8 663.044 78 669.294 78 669.294 8 1123.044 8 1123.044 78 1129.294 78 1129.294 8 1129.294 1.75 1123.044 1.75"/><rect class="cls-5" x="1179.044" y="267.5" width="6.25" height="130.5"/><rect class="cls-5" x="1304.875" y="407.375" width="6.25" height="52" transform="translate(1592.669 -1043.625) rotate(90)"/><rect class="cls-5" x="1304.875" y="537.875" width="6.25" height="52" transform="translate(1723.169 -913.125) rotate(90)"/><rect class="cls-5" x="1304.875" y="699.25" width="6.25" height="52" transform="translate(1884.544 -751.75) rotate(90)"/><polygon class="cls-5" points="1179.044 557.875 1179.044 666.625 1133.294 666.625 1133.294 672.875 1185.294 672.875 1185.294 668.25 1185.294 666.625 1185.294 557.875 1179.044 557.875"/><rect class="cls-5" x="1.625" y="320.333" width="56.668" height="9.667"/><rect class="cls-5" x="1.625" y="328.165" width="78.422" height="5.669"/><rect class="cls-5" x="1.625" y="587.873" width="62.337" height="8.96"/><rect class="cls-5" x="4.46" y="582.664" width="62.337" height="5.669"/><rect class="cls-5" x="0.625" y="320.333" width="5.669" height="276.5"/><rect class="cls-5" x="6.294" y="320.333" width="5.669" height="276.5"/><rect class="cls-5" x="11.964" y="333.835" width="5.669" height="248.207"/><rect class="cls-5" x="17.633" y="333.835" width="5.669" height="248.829"/><rect class="cls-5" x="23.302" y="333.835" width="5.669" height="248.829"/><rect class="cls-5" x="54.876" y="588.333" width="6.251" height="95.667"/><rect class="cls-5" x="61.128" y="596.833" width="5.669" height="85.5"/><rect class="cls-5" x="251.583" y="783.251" width="5.669" height="77.831" transform="translate(927.879 398.749) rotate(90)"/><rect class="cls-5" x="74.378" y="332.835" width="5.669" height="80.499"/><rect class="cls-5" x="74.378" y="506.412" width="5.669" height="93.173"/><rect class="cls-5" x="166.211" y="553" width="5.669" height="106.667"/><rect class="cls-5" x="303.625" y="528.2" width="5.669" height="45.374"/><rect class="cls-5" x="304.27" y="600.055" width="5.024" height="32.382"/><rect class="cls-5" x="550.958" y="524.087" width="5.669" height="150.408"/><rect class="cls-5" x="486.625" y="554.04" width="5.669" height="120.454"/><polygon class="cls-5" points="249.226 524.087 171.88 524.087 171.88 524.5 171.88 528.583 171.88 682.165 177.55 682.165 177.55 528.583 249.226 528.583 249.226 524.087"/><rect class="cls-5" x="286.794" y="524.087" width="157.333" height="4.496"/><rect class="cls-5" x="355.456" y="695.456" width="5.669" height="309.418" transform="translate(1059.751 322.874) rotate(90)"/><rect class="cls-5" x="730.623" y="314.62" width="5.669" height="1059.751" transform="translate(1429.248 -57.962) rotate(90)"/><rect class="cls-5" x="1132.96" y="655.333" width="5.669" height="29.669"/><rect class="cls-5" x="1114.628" y="655.333" width="5.669" height="29.669"/><rect class="cls-5" x="1272.499" y="815.165" width="5.669" height="24.001" transform="translate(299.463 1933.499) rotate(-90)"/><rect class="cls-5" x="486.625" y="523.5" width="74.498" height="5.669"/><rect class="cls-5" x="598.691" y="523.5" width="91.937" height="5.669"/><rect class="cls-5" x="711.265" y="523.5" width="83.363" height="5.669"/><rect class="cls-5" x="841.794" y="523.5" width="236.934" height="5.669"/><rect class="cls-5" x="1116.294" y="523.5" width="14.452" height="5.452"/><rect class="cls-5" x="1129.46" y="78" width="5.669" height="247.5"/><rect class="cls-5" x="1123.335" y="78" width="5.669" height="247.5"/><rect class="cls-5" x="1130.747" y="379.709" width="5.03" height="96.528"/><rect class="cls-5" x="1130.747" y="513.805" width="5.03" height="85.485"/><rect class="cls-5" x="935.294" y="239.917" width="5.03" height="229.499"/><polygon class="cls-5" points="771.376 225.501 771.376 244.165 753.128 244.165 753.128 249.835 771.376 249.835 776.461 249.835 777.046 249.835 777.046 225.501 771.376 225.501"/><polygon class="cls-5" points="752.88 249.586 752.88 414.335 681.211 414.335 681.211 211.5 681.211 203.003 490.125 203.003 490.125 211.5 672.256 211.5 672.256 422.5 672.546 422.5 672.546 423.29 752.88 423.29 761.835 423.29 761.835 414.335 761.835 249.586 752.88 249.586"/><rect class="cls-7" x="168.296" y="241.292" width="18.415" height="18.415"/><rect class="cls-7" y="320.333" width="13.501" height="13.501"/><rect class="cls-7" x="61.128" y="582.042" width="19.127" height="18.415"/><rect class="cls-7" x="162.673" y="659.667" width="18.415" height="18.415"/><rect class="cls-7" x="734.465" y="659.667" width="18.415" height="18.415"/><rect class="cls-7" x="921.809" y="663.667" width="18.415" height="18.415"/><rect class="cls-7" x="1110.586" y="660.96" width="18.415" height="18.415"/><rect class="cls-7" x="921.809" y="451.542" width="18.415" height="18.415"/><rect class="cls-7" x="734.465" y="449.006" width="18.415" height="18.415"/><rect class="cls-7" x="734.465" y="239.9" width="18.415" height="18.415"/><rect class="cls-7" x="734.465" y="78" width="18.415" height="18.415"/><rect class="cls-7" x="921.809" y="78" width="18.415" height="18.415"/><rect class="cls-7" x="921.809" y="239.172" width="18.415" height="18.415"/><rect class="cls-7" x="1111.044" y="83.305" width="18.415" height="18.415"/><rect class="cls-7" x="544.585" y="449.006" width="18.415" height="18.415"/><rect class="cls-7" x="355.293" y="449.006" width="18.415" height="18.415"/><rect class="cls-7" x="355.087" y="239.9" width="18.415" height="18.415"/><rect class="cls-7" x="543.879" y="239.9" width="18.415" height="18.415"/><rect class="cls-7" x="355.087" y="176.832" width="11.708" height="67.333"/><rect class="cls-7" x="380.794" y="176.832" width="34.5" height="5.669"/><rect class="cls-7" x="442.794" y="176.163" width="34.5" height="5.669"/><polygon class="cls-5" points="777.046 122 777.046 122 771.376 122 750.356 122 750.356 127.669 771.376 127.669 771.376 197.333 490.125 197.333 490.125 203.003 771.376 203.003 777.046 203.003 777.046 197.333 777.046 127.669 777.046 127.669 777.046 122"/><rect class="cls-5" x="580.461" y="122" width="106.419" height="5.669"/><rect class="cls-5" x="747.211" y="203.003" width="5.669" height="1.664"/><rect class="cls-5" x="771.376" y="203.003" width="5.669" height="1.664"/><rect class="cls-7" x="755.794" y="78" width="34.167" height="5.669"/><rect class="cls-7" x="816.335" y="78" width="37.081" height="5.669"/><rect class="cls-7" x="879.335" y="78" width="37.081" height="5.669"/><rect class="cls-7" x="941.17" y="78" width="37.081" height="5.669"/><rect class="cls-7" x="1005.887" y="78" width="37.081" height="5.669"/><rect class="cls-7" x="1069.887" y="78" width="37.081" height="5.669"/><rect class="cls-7" x="1042.967" y="83.669" width="68.077" height="6.997"/><rect class="cls-7" x="1120.252" y="93" width="3.083" height="22"/><rect class="cls-7" x="1123.335" y="266.5" width="5.669" height="36.917"/><rect class="cls-8" x="1125.794" y="379.709" width="4.953" height="71.834"/><rect class="cls-7" x="1125.794" y="403.667" width="4.666" height="40.667"/><rect class="cls-7" x="1112.044" y="451.542" width="18.415" height="18.415"/><rect class="cls-5" x="1306.116" y="414.866" width="6.25" height="49.518" transform="translate(1600.16 -1038.616) rotate(90)"/><rect class="cls-5" x="1306.116" y="420.303" width="6.25" height="49.518" transform="translate(1605.598 -1033.179) rotate(90)"/><rect class="cls-5" x="1306.116" y="426.553" width="6.25" height="49.518" transform="translate(1611.848 -1026.929) rotate(90)"/><rect class="cls-5" x="1306.116" y="432.803" width="6.25" height="49.518" transform="translate(1618.098 -1020.679) rotate(90)"/><rect class="cls-5" x="1306.116" y="439.053" width="6.25" height="49.518" transform="translate(1624.348 -1014.429) rotate(90)"/><rect class="cls-5" x="1306.116" y="444.533" width="6.25" height="49.518" transform="translate(1629.828 -1008.949) rotate(90)"/><polygon class="cls-5" points="1179.044 418.75 1179.044 529.125 1136.294 529.125 1136.294 535.375 1185.294 535.375 1185.294 535.208 1185.294 529.125 1185.294 418.75 1179.044 418.75"/><rect class="cls-5" x="1306.116" y="566.116" width="6.25" height="49.518" transform="translate(1751.41 -887.366) rotate(90)"/><rect class="cls-5" x="1306.116" y="577.803" width="6.25" height="49.518" transform="translate(1763.098 -875.679) rotate(90)"/><rect class="cls-5" x="1306.116" y="584.053" width="6.25" height="49.518" transform="translate(1769.348 -869.429) rotate(90)"/><rect class="cls-5" x="1306.116" y="590.303" width="6.25" height="49.518" transform="translate(1775.598 -863.179) rotate(90)"/><rect class="cls-5" x="1306.116" y="595.783" width="6.25" height="49.518" transform="translate(1781.078 -857.699) rotate(90)"/><rect class="cls-5" x="1306.116" y="602.033" width="6.25" height="49.518" transform="translate(1787.328 -851.449) rotate(90)"/><rect class="cls-5" x="1306.116" y="571.553" width="6.25" height="49.518" transform="translate(1756.848 -881.929) rotate(90)"/><rect class="cls-5" x="1306.116" y="712.179" width="6.25" height="49.518" transform="translate(1897.473 -741.303) rotate(90)"/><rect class="cls-5" x="1306.116" y="718.428" width="6.25" height="49.518" transform="translate(1903.723 -735.053) rotate(90)"/><rect class="cls-5" x="1306.116" y="724.678" width="6.25" height="49.518" transform="translate(1909.973 -728.803) rotate(90)"/><rect class="cls-5" x="1306.116" y="730.158" width="6.25" height="49.518" transform="translate(1915.453 -723.324) rotate(90)"/><rect class="cls-5" x="1306.116" y="736.408" width="6.25" height="49.518" transform="translate(1921.703 -717.074) rotate(90)"/><rect class="cls-5" x="1306.116" y="705.928" width="6.25" height="49.518" transform="translate(1891.223 -747.553) rotate(90)"/><rect class="cls-5" x="348.961" y="288.333" width="6.126" height="135.333"/><path class="cls-8" d="M293.333,825s1.09,15.655,18.045,16.66" transform="translate(-148.706 -169)"/><rect class="cls-5" x="28.972" y="333.835" width="5.657" height="248.829"/><rect class="cls-8" x="291.294" y="313.417" width="19.418" height="19.418"/><rect class="cls-8" x="292.628" y="332.835" width="16.667" height="64.499"/><rect class="cls-5" x="304.27" y="658.392" width="5.024" height="13.702"/><rect class="cls-5" x="303.625" y="550.979" width="67.002" height="10.354"/><rect class="cls-5" x="361.462" y="561.333" width="9.165" height="98.333"/><rect class="cls-5" x="360.897" y="528.292" width="5.669" height="22.687"/><rect class="cls-5" x="370.881" y="572.876" width="4.252" height="99.031"/><rect class="cls-5" x="534.832" y="723.821" width="5.669" height="36.667" transform="translate(-353.194 1110.821) rotate(-90)"/><rect class="cls-5" x="577.997" y="735.544" width="5.669" height="12.664" transform="translate(-309.75 1153.708) rotate(-90)"/><rect class="cls-5" x="383.937" y="528.952" width="5.024" height="41.09"/><rect class="cls-7" x="352.212" y="659.667" width="18.415" height="18.415"/><rect class="cls-7" x="123.961" y="672.405" width="32.833" height="5.677"/><rect class="cls-7" x="188.628" y="672.186" width="115.32" height="5.896"/><rect class="cls-7" x="377.461" y="672.661" width="35" height="5.421"/><rect class="cls-7" x="447.128" y="672.661" width="35.333" height="5.669"/><rect class="cls-7" x="503.628" y="672.661" width="35.833" height="5.421"/><rect class="cls-7" x="568.128" y="672.661" width="33.667" height="5.421"/><rect class="cls-7" x="629.628" y="672.661" width="36" height="5.421"/><rect class="cls-7" x="692.961" y="672.661" width="33.497" height="5.421"/><rect class="cls-7" x="757.461" y="672.875" width="35" height="5.207"/><rect class="cls-7" x="820.357" y="672.661" width="35.333" height="5.421"/><rect class="cls-7" x="883.961" y="672.661" width="34.249" height="5.669"/><rect class="cls-7" x="948.628" y="672.661" width="34.667" height="5.669"/><rect class="cls-7" x="1010.211" y="672.875" width="34.833" height="5.456"/><rect class="cls-7" x="1072.628" y="672.875" width="33.333" height="5.456"/><rect class="cls-5" x="1174.29" y="740.958" width="5.669" height="220.419" transform="translate(1879.587 -494.957) rotate(90)"/><rect class="cls-7" x="74.378" y="548" width="5.669" height="36.664"/><rect class="cls-7" x="74.378" y="332.835" width="5.669" height="38.165"/><rect class="cls-5" x="63.962" y="256.792" width="5.665" height="60.208"/><rect class="cls-7" x="63.962" y="241.669" width="18.415" height="18.415"/><rect class="cls-7" x="128.961" y="241.669" width="35.333" height="5.669"/><rect class="cls-7" x="190.628" y="241.669" width="36" height="5.669"/><rect class="cls-7" x="253.294" y="241.669" width="36" height="5.669"/><rect class="cls-7" x="317.628" y="241.669" width="33.333" height="5.669"/><rect class="cls-5" x="63.962" y="203.003" width="9.208" height="32.997"/><polyline class="cls-8" points="103.628 211.5 79.212 211.5 79.212 203.003"/><polyline class="cls-8" points="135.961 211.5 111.546 211.5 111.546 203.003"/><polyline class="cls-8" points="166.294 211.5 141.879 211.5 141.879 203.003"/><polyline class="cls-8" points="177.962 211.5 173.546 211.5 173.546 203.003"/><polyline class="cls-8" points="207.21 211.5 182.795 211.5 182.795 203.003"/><polyline class="cls-8" points="237.878 211.5 213.462 211.5 213.462 203.003"/><polyline class="cls-8" points="268.878 211.5 244.462 211.5 244.462 203.003"/><polyline class="cls-8" points="300.961 211.5 276.546 211.5 276.546 203.003"/><polyline class="cls-8" points="331.961 211.5 307.546 211.5 307.546 203.003"/><polyline class="cls-8" points="355.169 211.336 336.753 211.336 336.753 202.839"/><polyline class="cls-8" points="177.503 203.003 177.503 211.5 177.503 236"/><line class="cls-8" x1="79.212" y1="219.501" x2="79.212" y2="236"/><line class="cls-8" x1="110.628" y1="219.335" x2="110.628" y2="235.834"/><line class="cls-8" x1="141.879" y1="219.501" x2="141.879" y2="236"/><line class="cls-8" x1="173.546" y1="219.501" x2="173.546" y2="236"/><line class="cls-8" x1="182.795" y1="219.501" x2="182.795" y2="236"/><line class="cls-8" x1="213.462" y1="219.501" x2="213.462" y2="236"/><line class="cls-8" x1="244.462" y1="219.501" x2="244.462" y2="236"/><line class="cls-8" x1="276.546" y1="219.501" x2="276.546" y2="236"/><line class="cls-8" x1="307.546" y1="219.501" x2="307.546" y2="236"/><line class="cls-8" x1="336.753" y1="219.336" x2="336.753" y2="235.835"/><line class="cls-8" x1="58.293" y1="236" x2="63.962" y2="241.669"/><line class="cls-8" x1="82.378" y1="236" x2="82.378" y2="241.669"/><line class="cls-8" x1="86.613" y1="235.417" x2="86.613" y2="241.086"/><line class="cls-8" x1="90.847" y1="235.417" x2="90.847" y2="241.086"/><line class="cls-8" x1="95.082" y1="235.417" x2="95.082" y2="241.086"/><line class="cls-8" x1="99.794" y1="235.417" x2="99.794" y2="241.086"/><line class="cls-8" x1="99.317" y1="235.417" x2="99.317" y2="241.086"/><line class="cls-8" x1="103.552" y1="236" x2="103.552" y2="241.669"/><line class="cls-8" x1="107.787" y1="236" x2="107.787" y2="241.669"/><line class="cls-8" x1="112.022" y1="236" x2="112.022" y2="241.669"/><line class="cls-8" x1="116.257" y1="235.417" x2="116.257" y2="241.086"/><line class="cls-8" x1="120.491" y1="235.417" x2="120.491" y2="241.086"/><line class="cls-8" x1="124.726" y1="235.417" x2="124.726" y2="241.086"/><line class="cls-8" x1="128.961" y1="235.417" x2="128.961" y2="241.086"/><line class="cls-8" x1="58.293" y1="246.667" x2="63.962" y2="246.667"/><line class="cls-8" x1="58.293" y1="251.25" x2="63.962" y2="251.25"/><line class="cls-8" x1="58.293" y1="255.833" x2="63.962" y2="255.833"/><line class="cls-8" x1="58.293" y1="260.417" x2="63.962" y2="260.417"/><line class="cls-8" x1="58.293" y1="265" x2="63.962" y2="265"/><rect class="cls-7" x="63.962" y="315.959" width="18.415" height="18.415"/><rect class="cls-7" x="63.378" y="265" width="6.75" height="35.583"/><line class="cls-8" x1="58.293" y1="301.167" x2="63.962" y2="301.167"/><line class="cls-8" x1="58.293" y1="305.767" x2="63.962" y2="305.767"/><line class="cls-8" x1="58.293" y1="310.367" x2="63.962" y2="310.367"/><line class="cls-8" x1="57.708" y1="310.437" x2="63.378" y2="310.437"/><line class="cls-8" x1="58.293" y1="314.967" x2="63.962" y2="314.967"/><line class="cls-8" x1="58.293" y1="324.167" x2="63.962" y2="324.167"/><line class="cls-8" x1="58.293" y1="319.567" x2="63.962" y2="319.567"/><line class="cls-8" x1="82.378" y1="253.917" x2="168.296" y2="253.917"/><line class="cls-8" x1="91.878" y1="255.833" x2="165.044" y2="255.833"/><line class="cls-8" x1="92.419" y1="265.333" x2="92.419" y2="255.833"/><line class="cls-8" x1="164.544" y1="265.333" x2="164.544" y2="255.833"/><line class="cls-8" x1="89.211" y1="265.333" x2="187.357" y2="265.333"/><line class="cls-8" x1="187.107" y1="241.669" x2="187.107" y2="265.333"/><line class="cls-8" x1="164.799" y1="236" x2="164.799" y2="240.96"/><line class="cls-8" x1="169.034" y1="236" x2="169.034" y2="240.96"/><line class="cls-8" x1="173.269" y1="236" x2="173.269" y2="240.96"/><line class="cls-8" x1="177.503" y1="236" x2="177.503" y2="240.96"/><line class="cls-8" x1="181.738" y1="236" x2="181.738" y2="240.96"/><line class="cls-8" x1="185.973" y1="236" x2="185.973" y2="240.96"/><line class="cls-8" x1="190.208" y1="236" x2="190.208" y2="240.96"/><line class="cls-8" x1="227.842" y1="235.771" x2="227.842" y2="241.669"/><line class="cls-8" x1="232.076" y1="235.771" x2="232.076" y2="241.669"/><line class="cls-8" x1="236.311" y1="235.771" x2="236.311" y2="241.669"/><line class="cls-8" x1="240.546" y1="235.771" x2="240.546" y2="241.669"/><line class="cls-8" x1="244.781" y1="235.771" x2="244.781" y2="241.669"/><line class="cls-8" x1="249.016" y1="235.771" x2="249.016" y2="241.669"/><line class="cls-8" x1="253.251" y1="235.771" x2="253.251" y2="241.669"/><line class="cls-8" x1="289.347" y1="235.886" x2="289.347" y2="241.784"/><line class="cls-8" x1="293.582" y1="235.886" x2="293.582" y2="241.784"/><line class="cls-8" x1="297.816" y1="235.886" x2="297.816" y2="241.784"/><line class="cls-8" x1="302.051" y1="235.886" x2="302.051" y2="241.784"/><line class="cls-8" x1="306.286" y1="235.886" x2="306.286" y2="241.784"/><line class="cls-8" x1="310.521" y1="235.886" x2="310.521" y2="241.784"/><line class="cls-8" x1="314.756" y1="235.886" x2="314.756" y2="241.784"/><line class="cls-8" x1="318.794" y1="235.886" x2="318.794" y2="241.784"/><line class="cls-8" x1="351.961" y1="235.784" x2="351.961" y2="241.681"/><rect class="cls-7" x="319.794" y="344" width="11" height="13" rx="2.333" ry="2.333"/><rect class="cls-8" x="317.294" y="345.667" width="11.333" height="9.167"/><rect class="cls-7" x="321.044" y="373.333" width="11" height="13" rx="2.333" ry="2.333"/><rect class="cls-8" x="318.544" y="375" width="11.333" height="9.167"/><rect class="cls-7" x="60.92" y="659.667" width="18.415" height="18.415"/><polygon class="cls-8" points="188.674 466.272 188.674 450.154 174.715 442.095 160.756 450.154 160.756 466.272 174.715 474.331 188.674 466.272"/><rect class="cls-7" x="165.507" y="449.006" width="18.415" height="18.415"/><polygon class="cls-5" points="240.629 672.186 240.629 563.333 234.96 563.333 234.96 672.186 216.128 672.186 216.128 678 247.794 678 247.794 672.186 240.629 672.186"/><line class="cls-8" x1="222.622" y1="678" x2="222.622" y2="684"/><line class="cls-8" x1="156.734" y1="678" x2="156.734" y2="684"/><line class="cls-8" x1="188.628" y1="678" x2="188.628" y2="684"/><line class="cls-8" x1="228.123" y1="678" x2="228.123" y2="684"/><line class="cls-8" x1="233.624" y1="678" x2="233.624" y2="684"/><line class="cls-8" x1="239.126" y1="678" x2="239.126" y2="684"/><line class="cls-8" x1="244.627" y1="678" x2="244.627" y2="684"/><line class="cls-8" x1="250.128" y1="678" x2="250.128" y2="684"/><line class="cls-8" x1="123.961" y1="656.001" x2="123.961" y2="684"/><line class="cls-8" x1="119.294" y1="656.001" x2="119.294" y2="672.186"/><line class="cls-8" x1="91.294" y1="656.001" x2="84.794" y2="672.661"/><rect class="cls-7" x="60.92" y="615.667" width="5.877" height="34.167"/><line class="cls-8" x1="54.944" y1="610.753" x2="60.988" y2="610.753"/><line class="cls-8" x1="54.908" y1="605.169" x2="60.952" y2="605.169"/><line class="cls-8" x1="54.98" y1="594" x2="61.024" y2="594"/><line class="cls-8" x1="54.835" y1="616.338" x2="60.879" y2="616.338"/><line class="cls-8" x1="54.794" y1="649.833" x2="60.92" y2="649.833"/><line class="cls-8" x1="54.939" y1="656.001" x2="61.065" y2="656.001"/><line class="cls-8" x1="54.794" y1="662.001" x2="60.92" y2="662.001"/><line class="cls-7" x1="54.794" y1="667.331" x2="60.92" y2="667.331"/><line class="cls-8" x1="20.794" y1="587.873" x2="20.794" y2="596.833"/><rect class="cls-8" x="14.045" y="588.333" width="3.708" height="3.708"/><rect class="cls-7" x="0.544" y="582.042" width="13.501" height="14.792"/><path class="cls-8" d="M222.917,628.458V603.667a24.208,24.208,0,0,0-24.208,24.208c0,.2.01.389.015.583Z" transform="translate(-148.706 -169)"/><path class="cls-8" d="M222.917,628.458H198.708c0,13.37,10.583,24.208,23.639,24.208.191,0,.38-.01.57-.015Z" transform="translate(-148.706 -169)"/><path class="cls-8" d="M223.083,675.412V652.667c-10.7,0-19.375,9.944-19.375,22.21,0,.18.008.357.012.535Z" transform="translate(-148.706 -169)"/><path class="cls-8" d="M223.083,582.333H203.708c0,11.4,8.47,20.649,18.919,20.649.153,0,.3-.009.456-.012Z" transform="translate(-148.706 -169)"/><line class="cls-8" x1="20.919" y1="320.333" x2="20.919" y2="328.165"/><line class="cls-8" x1="24.044" y1="320.333" x2="24.044" y2="328.165"/><line class="cls-8" x1="20.919" y1="322.875" x2="24.044" y2="322.875"/><line class="cls-8" x1="20.919" y1="325.167" x2="24.044" y2="325.167"/><path class="cls-7" d="M383.522,704.545l-.019-.736h-28.68v1l1,0H382.53c0,.056,0,.111,0,.168a27.238,27.238,0,0,1-26.708,27.2l-1-.033v1.038h.5a28.239,28.239,0,0,0,28.208-28.207C383.532,704.831,383.527,704.688,383.522,704.545Z" transform="translate(-148.706 -169)"/><path class="cls-7" d="M1307.14,768.683l-.014-.719h-22.39v.98l.781,0h20.849c0,.054,0,.109,0,.164,0,14.482-9.317,26.3-20.851,26.556l-.781-.032v1.013h.39c12.143,0,22.022-12.353,22.022-27.537C1307.147,768.963,1307.143,768.823,1307.14,768.683Z" transform="translate(-148.706 -169)"/><path class="cls-7" d="M1307.562,823.585l-.015.746h-23.234v-1.017l.81,0h21.635c0-.056,0-.113,0-.17,0-15.029-9.669-27.287-21.637-27.557l-.81.033v-1.051h.405c12.6,0,22.852,12.818,22.852,28.575C1307.57,823.295,1307.566,823.44,1307.562,823.585Z" transform="translate(-148.706 -169)"/><path class="cls-7" d="M1307.562,495.195l-.015-.695h-22.8v.947l.8,0h21.235c0,.053,0,.105,0,.158,0,13.994-9.49,25.409-21.237,25.661l-.8-.031v.979h.4c12.367,0,22.429-11.936,22.429-26.608C1307.57,495.465,1307.566,495.329,1307.562,495.195Z" transform="translate(-148.706 -169)"/><path class="cls-7" d="M1307.992,548.245l-.015.721h-23.664v-.983l.825,0h22.036c0-.054,0-.109,0-.164,0-14.522-9.847-26.367-22.037-26.628l-.825.032v-1.016h.413c12.834,0,23.275,12.386,23.275,27.612C1308,547.965,1308,548.106,1307.992,548.245Z" transform="translate(-148.706 -169)"/><rect class="cls-8" x="204.582" y="564.184" width="3.074" height="79.316"/><polyline class="cls-8" points="191.294 570.32 191.294 656.001 220.473 656.001 220.473 569"/><line class="cls-8" x1="177.55" y1="572.876" x2="234.96" y2="572.876"/><line class="cls-8" x1="177.55" y1="579.16" x2="234.96" y2="579.16"/><line class="cls-8" x1="177.55" y1="585.444" x2="234.96" y2="585.444"/><line class="cls-8" x1="177.55" y1="591.728" x2="234.96" y2="591.728"/><line class="cls-8" x1="177.55" y1="598.012" x2="234.96" y2="598.012"/><line class="cls-8" x1="177.55" y1="604.296" x2="234.96" y2="604.296"/><line class="cls-8" x1="177.55" y1="610.58" x2="234.96" y2="610.58"/><line class="cls-8" x1="177.55" y1="616.864" x2="234.96" y2="616.864"/><line class="cls-8" x1="177.55" y1="623.148" x2="234.96" y2="623.148"/><line class="cls-8" x1="177.55" y1="629.432" x2="234.96" y2="629.432"/><line class="cls-8" x1="177.55" y1="635.716" x2="234.96" y2="635.716"/><line class="cls-8" x1="177.55" y1="642" x2="234.96" y2="642"/><line class="cls-8" x1="207.656" y1="615.667" x2="234.96" y2="604.296"/><line class="cls-8" x1="207.656" y1="612.002" x2="234.96" y2="600.5"/><line class="cls-8" x1="161.503" y1="672.661" x2="161.503" y2="653.167"/><line class="cls-8" x1="161.503" y1="653.167" x2="166.211" y2="653.167"/><line class="cls-8" x1="161.503" y1="655.5" x2="166.211" y2="655.5"/><line class="cls-8" x1="303.948" y1="545.5" x2="308.972" y2="545.5"/><line class="cls-8" x1="303.625" y1="528.292" x2="298.294" y2="543"/><line class="cls-8" x1="308.972" y1="545.5" x2="315.294" y2="532.5"/><line class="cls-8" x1="355.087" y1="528.952" x2="315.294" y2="532.5"/><polyline class="cls-8" points="355.087 528.952 355.087 524.087 348.294 518.271 344.794 521.75 344.794 526.041"/><polyline class="cls-8" points="335.191 528.583 335.191 523.5 341.044 518.271 344.794 521.75"/><polyline class="cls-8" points="317.549 532.299 317.549 530.726 313.794 530.726 313.794 534.809"/><polyline class="cls-8" points="370.627 561.333 373.502 530.726 383.937 528.952"/><line class="cls-8" x1="383.937" y1="561.333" x2="388.961" y2="561.333"/><rect class="cls-8" x="206.119" y="528.292" width="4.676" height="6.516"/><g class="cls-9"><path class="cls-8" d="M713.111,294.307H692.474c0-9.95,9.022-18.016,20.152-18.016.163,0,.324.008.486.011Z" transform="translate(-148.706 -169)"/></g><polygon class="cls-5" points="444.128 573.155 444.128 576.99 462.794 576.99 462.794 582 444.128 582 444.128 585.444 466.794 585.444 466.794 573.155 444.128 573.155"/><rect class="cls-5" x="512.544" y="570.041" width="38.414" height="3.625"/><rect class="cls-5" x="434.207" y="575.99" width="4.252" height="96.672"/><line class="cls-8" x1="434.207" y1="581.719" x2="438.458" y2="581.719"/><line class="cls-8" x1="434.207" y1="586.012" x2="438.458" y2="586.012"/><line class="cls-8" x1="434.207" y1="590.306" x2="438.458" y2="590.306"/><line class="cls-8" x1="434.207" y1="594.599" x2="438.458" y2="594.599"/><line class="cls-8" x1="434.207" y1="598.892" x2="438.458" y2="598.892"/><line class="cls-8" x1="434.207" y1="603.186" x2="438.458" y2="603.186"/><line class="cls-8" x1="434.207" y1="607.479" x2="438.458" y2="607.479"/><line class="cls-8" x1="434.207" y1="611.772" x2="438.458" y2="611.772"/><line class="cls-8" x1="434.207" y1="616.065" x2="438.458" y2="616.065"/><line class="cls-8" x1="434.207" y1="620.359" x2="438.458" y2="620.359"/><line class="cls-8" x1="434.207" y1="624.652" x2="438.458" y2="624.652"/><line class="cls-8" x1="434.207" y1="628.945" x2="438.458" y2="628.945"/><line class="cls-8" x1="434.207" y1="633.238" x2="438.458" y2="633.238"/><line class="cls-8" x1="434.207" y1="637.532" x2="438.458" y2="637.532"/><line class="cls-8" x1="434.207" y1="641.825" x2="438.458" y2="641.825"/><line class="cls-8" x1="434.207" y1="646.118" x2="438.458" y2="646.118"/><line class="cls-8" x1="434.207" y1="650.412" x2="438.458" y2="650.412"/><line class="cls-8" x1="434.207" y1="654.705" x2="438.458" y2="654.705"/><line class="cls-8" x1="434.207" y1="658.998" x2="438.458" y2="658.998"/><line class="cls-8" x1="434.207" y1="663.291" x2="438.458" y2="663.291"/><line class="cls-8" x1="434.207" y1="667.585" x2="438.458" y2="667.585"/><rect class="cls-5" x="546.707" y="573.667" width="4.252" height="86"/><line class="cls-8" x1="546.707" y1="576.931" x2="550.958" y2="576.931"/><line class="cls-8" x1="546.707" y1="581.244" x2="550.958" y2="581.244"/><line class="cls-8" x1="546.707" y1="585.557" x2="550.958" y2="585.557"/><line class="cls-8" x1="546.707" y1="589.87" x2="550.958" y2="589.87"/><line class="cls-8" x1="546.707" y1="594.183" x2="550.958" y2="594.183"/><line class="cls-8" x1="546.707" y1="598.496" x2="550.958" y2="598.496"/><line class="cls-8" x1="546.707" y1="602.809" x2="550.958" y2="602.809"/><line class="cls-8" x1="546.707" y1="607.123" x2="550.958" y2="607.123"/><line class="cls-8" x1="546.707" y1="611.436" x2="550.958" y2="611.436"/><line class="cls-8" x1="546.707" y1="615.749" x2="550.958" y2="615.749"/><line class="cls-8" x1="546.707" y1="620.062" x2="550.958" y2="620.062"/><line class="cls-8" x1="546.707" y1="624.375" x2="550.958" y2="624.375"/><line class="cls-8" x1="546.707" y1="628.688" x2="550.958" y2="628.688"/><line class="cls-8" x1="546.707" y1="633.001" x2="550.958" y2="633.001"/><line class="cls-8" x1="546.707" y1="637.314" x2="550.958" y2="637.314"/><line class="cls-8" x1="546.707" y1="641.627" x2="550.958" y2="641.627"/><line class="cls-8" x1="546.707" y1="645.94" x2="550.958" y2="645.94"/><line class="cls-8" x1="546.707" y1="650.253" x2="550.958" y2="650.253"/><line class="cls-8" x1="546.707" y1="654.567" x2="550.958" y2="654.567"/><rect class="cls-7" x="544.585" y="659.667" width="18.415" height="18.415"/><rect class="cls-7" x="556.628" y="598.496" width="3.25" height="29.004"/><rect class="cls-7" x="309.753" y="573.667" width="3.25" height="25.958"/><rect class="cls-7" x="309.753" y="632.436" width="3.25" height="25.958"/><rect class="cls-8" x="315.794" y="569" width="32.125" height="37.251"/><line class="cls-8" x1="315.794" y1="569" x2="347.919" y2="606.251"/><line class="cls-8" x1="315.794" y1="606.251" x2="347.919" y2="569"/><rect class="cls-8" x="315.794" y="625.51" width="32.125" height="37.251"/><line class="cls-8" x1="315.794" y1="625.51" x2="347.919" y2="662.761"/><line class="cls-8" x1="315.794" y1="662.761" x2="347.919" y2="625.51"/><rect class="cls-8" x="351.816" y="573.021" width="5.75" height="27.25"/><rect class="cls-8" x="351.816" y="630.511" width="5.75" height="27.25"/><rect class="cls-5" x="686.88" y="523.427" width="3.747" height="30.613"/><polygon class="cls-5" points="690.628 573.021 686.88 573.021 686.88 579.299 726.458 579.299 726.458 575.711 690.628 575.711 690.628 573.021"/><line class="cls-8" x1="711.265" y1="541.617" x2="711.265" y2="575.99"/><line class="cls-8" x1="711.265" y1="547.333" x2="726.458" y2="547.333"/><line class="cls-8" x1="711.265" y1="575.99" x2="726.458" y2="547.333"/><rect class="cls-8" x="717.191" y="528.952" width="9.268" height="14.518"/><rect class="cls-8" x="899.738" y="562.817" width="3.074" height="83.589"/><polyline class="cls-8" points="886.451 573.226 886.451 658.907 915.629 658.907 915.629 571.906"/><line class="cls-8" x1="872.706" y1="575.782" x2="930.117" y2="575.782"/><line class="cls-8" x1="872.706" y1="582.066" x2="930.117" y2="582.066"/><line class="cls-8" x1="872.706" y1="588.35" x2="930.117" y2="588.35"/><line class="cls-8" x1="872.706" y1="594.634" x2="930.117" y2="594.634"/><line class="cls-8" x1="872.706" y1="600.918" x2="930.117" y2="600.918"/><line class="cls-8" x1="872.706" y1="607.202" x2="930.117" y2="607.202"/><line class="cls-8" x1="872.706" y1="613.486" x2="930.117" y2="613.486"/><line class="cls-8" x1="872.706" y1="619.77" x2="930.117" y2="619.77"/><line class="cls-8" x1="872.706" y1="626.054" x2="930.117" y2="626.054"/><line class="cls-8" x1="872.706" y1="632.338" x2="930.117" y2="632.338"/><line class="cls-8" x1="872.706" y1="638.622" x2="930.117" y2="638.622"/><line class="cls-8" x1="872.706" y1="644.906" x2="930.117" y2="644.906"/><line class="cls-8" x1="902.812" y1="618.572" x2="930.117" y2="607.202"/><line class="cls-8" x1="902.812" y1="614.908" x2="930.117" y2="603.406"/><rect class="cls-5" x="867.628" y="561.688" width="4.667" height="110.974"/><polygon class="cls-5" points="931.117 523.427 864.628 523.427 864.628 533.448 931.117 533.448 931.117 663.667 940.324 663.667 940.324 533.448 940.324 523.427 931.117 523.427"/><path class="cls-7" d="M1021.812,703.178l.019-.736h28.68v1l-1,0H1022.8c0,.056,0,.111,0,.168a27.238,27.238,0,0,0,26.708,27.2l1-.033v1.038h-.5A28.239,28.239,0,0,1,1021.8,703.61C1021.8,703.464,1021.807,703.321,1021.812,703.178Z" transform="translate(-148.706 -169)"/><path class="cls-7" d="M986.51,703.178l.019-.736h28.68v1l-1,0H987.5c0,.056,0,.111,0,.168a27.238,27.238,0,0,0,26.708,27.2l1-.033v1.038h-.5A28.239,28.239,0,0,1,986.5,703.61C986.5,703.464,986.5,703.321,986.51,703.178Z" transform="translate(-148.706 -169)"/><polygon class="cls-5" points="726.458 523.427 726.458 524.087 726.458 529.216 726.458 674.495 732.128 674.495 732.128 529.216 772.294 529.216 772.294 552 777.294 552 777.294 529.216 777.294 526.335 777.294 523.427 726.458 523.427"/><polygon class="cls-5" points="804.344 523.611 797.628 523.611 794.628 523.611 794.628 528.951 794.628 536.21 777.294 536.21 777.294 538.734 794.628 538.734 797.628 538.734 797.628 536.21 797.628 528.951 804.344 528.951 804.344 523.611"/><line class="cls-8" x1="777.294" y1="526.335" x2="794.628" y2="526.335"/><path class="cls-8" d="M921,757.35h20.167s.167-9.35-6.5-14.683" transform="translate(-148.706 -169)"/><path class="cls-8" d="M921,721.462h20.167s.167,9.35-6.5,14.683" transform="translate(-148.706 -169)"/><polygon class="cls-5" points="772.294 588.35 772.294 620.062 732.128 620.062 732.128 622.667 777.294 622.667 777.294 620.062 777.294 588.35 772.294 588.35"/><rect class="cls-5" x="732.128" y="592" width="40.167" height="2.634"/><polyline class="cls-8" points="732.128 612.887 735.294 600.918 768.628 594.634"/><rect class="cls-5" x="801.344" y="612.887" width="5.617" height="59.988"/><rect class="cls-5" x="801.344" y="612.196" width="21.951" height="5.669"/><rect class="cls-5" x="853.148" y="612.196" width="14.354" height="5.669"/><rect class="cls-8" x="813.628" y="621.364" width="46.698" height="40.969"/><line class="cls-8" x1="813.628" y1="621.364" x2="860.325" y2="662.333"/><line class="cls-8" x1="813.628" y1="662.333" x2="860.325" y2="621.364"/><rect class="cls-8" x="823.143" y="666.04" width="27.667" height="5.669"/><polygon class="cls-5" points="935.294 441.605 916.629 441.605 916.629 442.897 916.629 444.189 916.629 467.421 919.294 467.421 919.294 444.189 935.294 444.189 935.294 441.605"/><polyline class="cls-8" points="910.961 466.958 916.629 449.187 935.294 449.187"/><line class="cls-8" x1="919.294" y1="463.333" x2="921.909" y2="463.333"/><line class="cls-8" x1="922.461" y1="451.542" x2="922.461" y2="444.27"/><line class="cls-8" x1="925.962" y1="451.542" x2="925.962" y2="444.27"/><polygon class="cls-5" points="1107.961 262.333 1107.961 245.587 1113.837 245.587 1113.837 239.917 1107.961 239.917 1103.794 239.917 1103.794 245.587 1103.794 262.333 1103.794 266.5 1107.961 266.5 1129.004 266.5 1129.004 262.333 1107.961 262.333"/><rect class="cls-7" x="1113.21" y="239.9" width="15.791" height="16.961"/><line class="cls-5" x1="1129.628" y1="261.25" x2="1135.129" y2="261.25"/><line class="cls-5" x1="1129.628" y1="255.945" x2="1135.129" y2="255.945"/><line class="cls-5" x1="1129.544" y1="250.64" x2="1135.045" y2="250.64"/><line class="cls-5" x1="1129.628" y1="245.335" x2="1135.129" y2="245.335"/><line class="cls-5" x1="1129.67" y1="240.03" x2="1135.171" y2="240.03"/><line class="cls-5" x1="1129.67" y1="234.725" x2="1135.171" y2="234.725"/><line class="cls-5" x1="1129.586" y1="229.42" x2="1135.087" y2="229.42"/><line class="cls-5" x1="1129.67" y1="224.115" x2="1135.171" y2="224.115"/><line class="cls-5" x1="1129.67" y1="218.81" x2="1135.171" y2="218.81"/><line class="cls-5" x1="1129.691" y1="186.98" x2="1135.192" y2="186.98"/><line class="cls-5" x1="1129.691" y1="181.675" x2="1135.192" y2="181.675"/><line class="cls-5" x1="1129.607" y1="176.37" x2="1135.108" y2="176.37"/><line class="cls-5" x1="1129.691" y1="171.065" x2="1135.192" y2="171.065"/><line class="cls-5" x1="1129.733" y1="165.761" x2="1135.234" y2="165.761"/><line class="cls-5" x1="1129.733" y1="160.456" x2="1135.234" y2="160.456"/><line class="cls-5" x1="1129.649" y1="155.151" x2="1135.15" y2="155.151"/><line class="cls-5" x1="1129.733" y1="149.846" x2="1135.234" y2="149.846"/><line class="cls-5" x1="1129.733" y1="144.541" x2="1135.234" y2="144.541"/><line class="cls-5" x1="1129.565" y1="120.44" x2="1135.066" y2="120.44"/><line class="cls-5" x1="1129.565" y1="115.135" x2="1135.066" y2="115.135"/><line class="cls-5" x1="1129.481" y1="109.83" x2="1134.982" y2="109.83"/><line class="cls-5" x1="1129.565" y1="104.525" x2="1135.066" y2="104.525"/><line class="cls-5" x1="1129.607" y1="99.22" x2="1135.108" y2="99.22"/><line class="cls-5" x1="1129.607" y1="93.915" x2="1135.108" y2="93.915"/><line class="cls-5" x1="1129.523" y1="88.61" x2="1135.024" y2="88.61"/><line class="cls-5" x1="1129.607" y1="83.305" x2="1135.108" y2="83.305"/><line class="cls-5" x1="1129.607" y1="78" x2="1135.108" y2="78"/><rect class="cls-7" x="1123.044" y="96.415" width="6.52" height="48.125"/><rect class="cls-7" x="1123.044" y="186.98" width="6.688" height="31.395"/><line class="cls-5" x1="1129.628" y1="266.5" x2="1135.045" y2="266.5"/><line class="cls-8" x1="1129.004" y1="303.417" x2="1135.607" y2="303.417"/><rect class="cls-7" x="1117.628" y="78" width="12.48" height="5.305"/><polygon class="cls-8" points="362.169 428 362.169 431.5 370.391 431.5 370.391 448.634 372.87 448.634 372.87 431.5 372.87 429.379 372.87 428 362.169 428"/><circle class="cls-8" cx="368.274" cy="445.833" r="1.583"/><line class="cls-8" x1="355.793" y1="430.375" x2="349.669" y2="446.622"/><line class="cls-8" x1="361.066" y1="430.5" x2="355.793" y2="430.5"/><line class="cls-8" x1="361.066" y1="441.104" x2="355.793" y2="441.104"/><circle class="cls-8" cx="358.981" cy="443.25" r="1.583"/><polygon class="cls-5" points="558.625 125.307 558.625 127.416 495.128 127.416 495.128 131.667 558.625 131.667 558.625 202 564.294 202 564.294 125.307 558.625 125.307"/><rect class="cls-7" x="513.628" y="127.416" width="11.667" height="4.251"/><rect class="cls-7" x="494.294" y="127.416" width="14" height="4.251"/><rect class="cls-7" x="592.249" y="293.581" width="98.832" height="5.669" transform="translate(789.376 -514.249) rotate(90)"/><path class="cls-7" d="M900.439,374.332l.013-.519h20.2v.707l-.7,0H901.138c0,.039,0,.078,0,.118a19.183,19.183,0,0,0,18.809,19.157l.7-.023v.731H920.3a19.888,19.888,0,0,1-19.866-19.865C900.432,374.534,900.436,374.433,900.439,374.332Z" transform="translate(-148.706 -169)"/><path class="cls-7" d="M876.055,374.573l.013-.519h20.2v.707l-.7,0H876.753c0,.039,0,.078,0,.118a19.183,19.183,0,0,0,18.809,19.157l.7-.023v.731h-.352a19.888,19.888,0,0,1-19.866-19.865C876.048,374.774,876.051,374.673,876.055,374.573Z" transform="translate(-148.706 -169)"/><path class="cls-7" d="M1064.182,269l.013-.519h20.2v.707l-.7,0h-18.808c0,.039,0,.078,0,.118a19.183,19.183,0,0,0,18.809,19.157l.7-.023v.731h-.352a19.888,19.888,0,0,1-19.866-19.865C1064.175,269.206,1064.179,269.105,1064.182,269Z" transform="translate(-148.706 -169)"/><rect class="cls-6" x="936.187" y="119.943" width="3.537" height="27.224"/><path class="cls-7" d="M1087.93,289.443v26.224h-2.537V289.443h2.537m1-1h-4.537v28.224h4.537V288.443Z" transform="translate(-148.706 -169)"/><rect class="cls-6" x="936.095" y="96.811" width="3.537" height="2.856"/><path class="cls-7" d="M1087.837,266.311v1.856H1085.3v-1.856h2.537m1-1H1084.3v3.856h4.537v-3.856Z" transform="translate(-148.706 -169)"/><line class="cls-5" x1="1112.878" y1="78" x2="1112.878" y2="83.305"/><rect class="cls-7" x="686.88" y="197.333" width="35.747" height="5.669"/><polygon class="cls-5" points="747.211 226.16 747.211 408.665 686.88 408.665 686.88 168.833 681.211 168.833 681.211 408.665 681.211 412.929 681.211 414.335 752.88 414.335 752.88 414 752.88 408.665 752.88 226.16 747.211 226.16"/><rect class="cls-5" x="698.347" y="261.637" width="23.637" height="5.669" transform="translate(825.932 -614.693) rotate(90)"/><rect class="cls-7" x="492.96" y="78" width="120.501" height="5.669"/><g class="cls-10"><path class="cls-8" d="M877.2,246.147v20.042c-10.374,0-18.784-8.762-18.784-19.571,0-.158.008-.314.011-.472Z" transform="translate(-148.706 -169)"/><path class="cls-8" d="M839.631,246.147v20.042c10.374,0,18.784-8.762,18.784-19.571,0-.158-.008-.314-.011-.472Z" transform="translate(-148.706 -169)"/></g><rect class="cls-5" x="800.984" y="467.421" width="268.32" height="5.669"/><rect class="cls-5" x="1106.892" y="467.421" width="23.652" height="5.669"/><rect class="cls-5" x="531.535" y="467.421" width="81.885" height="5.669"/><rect class="cls-5" x="355.793" y="467.421" width="138.395" height="5.669"/><rect class="cls-5" x="651.537" y="467.421" width="112.007" height="5.669"/><g class="cls-11"><path class="cls-8" d="M1218.042,635.958V656c10.374,0,18.784-8.762,18.784-19.571,0-.158-.008-.314-.011-.472Z" transform="translate(-148.706 -169)"/><path class="cls-8" d="M1255.611,635.958V656c-10.374,0-18.784-8.762-18.784-19.571,0-.158.008-.314.011-.472Z" transform="translate(-148.706 -169)"/></g><g class="cls-12"><path class="cls-8" d="M949.868,637.235V617.192c-10.374,0-18.784,8.762-18.784,19.571,0,.158.008.314.011.472Z" transform="translate(-148.706 -169)"/><path class="cls-8" d="M912.3,637.235V617.192c10.374,0,18.784,8.762,18.784,19.571,0,.158-.008.314-.011.472Z" transform="translate(-148.706 -169)"/></g><g class="cls-13"><path class="cls-8" d="M799.868,637.235V617.192c-10.374,0-18.784,8.762-18.784,19.571,0,.158.008.314.011.472Z" transform="translate(-148.706 -169)"/><path class="cls-8" d="M762.3,637.235V617.192c10.374,0,18.784,8.762,18.784,19.571,0,.158-.008.314-.011.472Z" transform="translate(-148.706 -169)"/></g><g class="cls-14"><path class="cls-8" d="M386.479,732.2H405c0-9.587-8.1-17.358-18.085-17.358-.146,0-.291.007-.436.011Z" transform="translate(-148.706 -169)"/><path class="cls-8" d="M386.479,697.486H405c0,9.587-8.1,17.358-18.085,17.358-.146,0-.291-.007-.436-.011Z" transform="translate(-148.706 -169)"/></g><g class="cls-15"><path class="cls-8" d="M435.5,697.292V677.25c-10.374,0-18.784,8.762-18.784,19.571,0,.158.008.314.011.472Z" transform="translate(-148.706 -169)"/><path class="cls-8" d="M397.932,697.292V677.25c10.374,0,18.784,8.762,18.784,19.571,0,.158-.008.314-.011.472Z" transform="translate(-148.706 -169)"/></g><rect class="cls-5" x="438.458" y="554.04" width="5.669" height="118.621"/><g class="cls-16"><path class="cls-8" d="M594.357,697.846H566.747c0,13.907,12.07,25.18,26.96,25.18.218,0,.433-.011.65-.015Z" transform="translate(-148.706 -169)"/></g><g class="cls-17"><path class="cls-8" d="M635.331,741.667V762.5A20.092,20.092,0,0,1,615.5,742.157c0-.164.008-.327.012-.49Z" transform="translate(-148.706 -169)"/></g><g class="cls-18"><path class="cls-8" d="M635.331,698.216H662.55c0,13.71-11.9,24.824-26.579,24.824-.215,0-.427-.011-.641-.015Z" transform="translate(-148.706 -169)"/></g><g class="cls-19"><path class="cls-8" d="M747.4,692.421v20.042c-10.374,0-18.784-8.762-18.784-19.571,0-.158.008-.314.011-.472Z" transform="translate(-148.706 -169)"/><path class="cls-8" d="M709.828,692.421v20.042c10.374,0,18.784-8.762,18.784-19.571,0-.158-.008-.314-.011-.472Z" transform="translate(-148.706 -169)"/></g><g class="cls-20"><path class="cls-8" d="M859.971,692.611H839.333c0,9.95,9.022,18.016,20.152,18.016.163,0,.324-.008.486-.011Z" transform="translate(-148.706 -169)"/></g><g class="cls-21"><path class="cls-8" d="M990.633,697.952V677.909c-10.374,0-18.784,8.762-18.784,19.571,0,.158.008.314.011.472Z" transform="translate(-148.706 -169)"/><path class="cls-8" d="M953.065,697.952V677.909c10.374,0,18.784,8.762,18.784,19.571,0,.158-.008.314-.011.472Z" transform="translate(-148.706 -169)"/></g><g class="cls-22"><path class="cls-8" d="M1265,697.952V677.909c-10.374,0-18.784,8.762-18.784,19.571,0,.158.008.314.011.472Z" transform="translate(-148.706 -169)"/><path class="cls-8" d="M1227.434,697.952V677.909c10.374,0,18.784,8.762,18.784,19.571,0,.158-.008.314-.011.472Z" transform="translate(-148.706 -169)"/></g><g class="cls-23"><path class="cls-8" d="M1279.165,682.805h20.042c0-10.374-8.762-18.784-19.571-18.784-.158,0-.314.008-.472.011Z" transform="translate(-148.706 -169)"/><path class="cls-8" d="M1279.165,645.237h20.042c0,10.374-8.762,18.784-19.571,18.784-.158,0-.314-.008-.472-.011Z" transform="translate(-148.706 -169)"/></g><g class="cls-24"><path class="cls-8" d="M680.292,637.235V617.192c-10.351,0-18.741,8.762-18.741,19.571,0,.158.008.314.011.472Z" transform="translate(-148.706 -169)"/><path class="cls-8" d="M642.809,637.235V617.192c10.351,0,18.741,8.762,18.741,19.571,0,.158-.008.314-.011.472Z" transform="translate(-148.706 -169)"/></g></svg>