<svg id="组_1" data-name="组 1" xmlns="http://www.w3.org/2000/svg" xmlns:xlink="http://www.w3.org/1999/xlink" viewBox="0 0 1069.399 604.583"><defs><style>.cls-1,.cls-7{fill:none;}.cls-2{fill:#eaeaea;}.cls-3{fill:#d0eae5;}.cls-4,.cls-5{fill:#fff;}.cls-4,.cls-7{stroke:#adadad;stroke-miterlimit:10;}.cls-6{fill:#adadad;}.cls-8{clip-path:url(#clip-path);}.cls-9{clip-path:url(#clip-path-2);}.cls-10{clip-path:url(#clip-path-3);}.cls-11{clip-path:url(#clip-path-4);}.cls-12{clip-path:url(#clip-path-5);}.cls-13{clip-path:url(#clip-path-6);}.cls-14{clip-path:url(#clip-path-7);}.cls-15{clip-path:url(#clip-path-8);}.cls-16{clip-path:url(#clip-path-9);}.cls-17{clip-path:url(#clip-path-10);}.cls-18{clip-path:url(#clip-path-11);}.cls-19{clip-path:url(#clip-path-12);}.cls-20{clip-path:url(#clip-path-13);}.cls-21{clip-path:url(#clip-path-14);}.cls-22{clip-path:url(#clip-path-15);}</style><clipPath id="clip-path" transform="translate(-187.27 -275.5)"><rect class="cls-1" x="813.625" y="643.375" width="39.539" height="22.046"/></clipPath><clipPath id="clip-path-2" transform="translate(-187.27 -275.5)"><rect class="cls-1" x="626.94" y="643.764" width="39.539" height="22.046"/></clipPath><clipPath id="clip-path-3" transform="translate(-187.27 -275.5)"><rect class="cls-1" x="627.011" y="643.86" width="39.539" height="22.046"/></clipPath><clipPath id="clip-path-4" transform="translate(-187.27 -275.5)"><rect class="cls-1" x="437.011" y="643.86" width="39.539" height="22.046"/></clipPath><clipPath id="clip-path-5" transform="translate(-187.27 -275.5)"><rect class="cls-1" x="215.5" y="613.718" width="35.167" height="53.167"/></clipPath><clipPath id="clip-path-6" transform="translate(-187.27 -275.5)"><rect class="cls-1" x="270.021" y="672.76" width="34.089" height="45.833"/></clipPath><clipPath id="clip-path-7" transform="translate(-187.27 -275.5)"><rect class="cls-1" x="222.166" y="822.145" width="25.625" height="41.125"/></clipPath><clipPath id="clip-path-8" transform="translate(-187.27 -275.5)"><rect class="cls-1" x="368.333" y="721.75" width="58.083" height="43.5"/></clipPath><clipPath id="clip-path-9" transform="translate(-187.27 -275.5)"><rect class="cls-1" x="536.75" y="718.75" width="33" height="43.875"/></clipPath><clipPath id="clip-path-10" transform="translate(-187.27 -275.5)"><rect class="cls-1" x="613.331" y="718.75" width="33" height="43.875" transform="translate(1259.661 1481.375) rotate(-180)"/></clipPath><clipPath id="clip-path-11" transform="translate(-187.27 -275.5)"><rect class="cls-1" x="591.352" y="766.247" width="25.624" height="34.621" transform="translate(-179.393 1387.721) rotate(-90)"/></clipPath><clipPath id="clip-path-12" transform="translate(-187.27 -275.5)"><rect class="cls-1" x="713.25" y="721.087" width="92.125" height="28.788"/></clipPath><clipPath id="clip-path-13" transform="translate(-187.27 -275.5)"><rect class="cls-1" x="920.958" y="721.202" width="58.083" height="43.5"/></clipPath><clipPath id="clip-path-14" transform="translate(-187.27 -275.5)"><rect class="cls-1" x="1065.93" y="720.419" width="38.604" height="22.046" transform="translate(2170.463 1462.884) rotate(180)"/></clipPath><clipPath id="clip-path-15" transform="translate(-187.27 -275.5)"><rect class="cls-1" x="1103.711" y="671.787" width="37.333" height="55.164"/></clipPath></defs><title>会议_3栋2楼</title><polygon class="cls-2" points="1065.605 3.335 673.901 6.169 673.901 102.167 300 101.497 300 162.53 9.063 167.004 6.233 242.833 12.229 242.833 19.483 504.542 0 522.957 0.563 595.161 857.646 596.995 1065.605 595.375 1065.605 3.335"/><rect class="cls-2" x="335.333" y="295.004" width="5.669" height="295" transform="translate(-291.606 505.172) rotate(-90)"/><rect class="cls-2" x="673.901" y="0.5" width="394.539" height="5.669"/><rect class="cls-2" x="874.897" y="174.419" width="193.54" height="5.669"/><rect class="cls-2" x="0.563" y="519.333" width="5.669" height="81.167"/><rect class="cls-2" x="14.813" y="255.335" width="5.669" height="266.75"/><rect class="cls-2" x="105.647" y="475.5" width="5.669" height="106.667"/><rect class="cls-2" x="243.061" y="450.7" width="5.669" height="45.374"/><rect class="cls-2" x="243.706" y="522.555" width="5.024" height="32.382"/><rect class="cls-2" x="377.894" y="451.083" width="5.669" height="144.079"/><rect class="cls-2" x="490.394" y="446.587" width="5.669" height="150.408"/><polygon class="cls-2" points="383.564 446.587 111.316 446.587 111.316 447 111.316 451.083 111.316 599.665 116.986 599.665 116.986 451.083 383.564 451.083 383.564 446.587"/><rect class="cls-2" x="711.749" y="346.746" width="5.669" height="1053.5" transform="translate(1400.81 -116.587) rotate(90)"/><rect class="cls-2" x="1063.229" y="0.5" width="5.669" height="601.003"/><rect class="cls-2" x="102.108" y="163.792" width="18.415" height="18.415"/><rect class="cls-2" y="504.542" width="20.483" height="18.415"/><rect class="cls-2" x="102.108" y="582.167" width="18.415" height="18.415"/><rect class="cls-2" x="673.401" y="582.167" width="18.415" height="18.415"/><rect class="cls-2" x="861.245" y="586.167" width="18.415" height="18.415"/><rect class="cls-2" x="1050.022" y="583.46" width="18.415" height="18.415"/><rect class="cls-2" x="861.245" y="371.506" width="18.415" height="18.415"/><rect class="cls-2" x="1050.48" y="0.5" width="18.415" height="18.415"/><rect class="cls-2" x="294.522" y="162.4" width="18.415" height="18.415"/><rect class="cls-2" x="483.315" y="162.4" width="18.415" height="18.415"/><rect class="cls-2" x="695.23" y="0.5" width="34.167" height="5.669"/><rect class="cls-2" x="755.77" y="0.5" width="37.081" height="5.669"/><rect class="cls-2" x="818.77" y="0.5" width="37.081" height="5.669"/><rect class="cls-2" x="885.606" y="0.5" width="37.081" height="5.669"/><rect class="cls-2" x="945.322" y="0.5" width="37.081" height="5.669"/><rect class="cls-2" x="1009.322" y="0.5" width="37.081" height="5.669"/><rect class="cls-2" x="1062.771" y="180.602" width="5.669" height="36.917"/><rect class="cls-2" x="1063.229" y="252.497" width="5.669" height="36.917"/><rect class="cls-2" x="1063.229" y="324.392" width="5.669" height="36.917"/><rect class="cls-2" x="1063.229" y="396.287" width="5.669" height="36.917"/><rect class="cls-2" x="1062.771" y="468.182" width="5.669" height="36.917"/><rect class="cls-2" x="1062.771" y="540.077" width="5.669" height="36.917"/><rect class="cls-2" x="1050.024" y="371.506" width="18.415" height="18.415"/><rect class="cls-2" x="243.706" y="580.892" width="5.024" height="13.702"/><rect class="cls-2" x="243.061" y="473.479" width="67.002" height="10.354"/><rect class="cls-2" x="300.333" y="483.833" width="9.165" height="98.333"/><rect class="cls-2" x="300.333" y="450.792" width="5.669" height="22.687"/><rect class="cls-2" x="512.832" y="752.821" width="5.669" height="36.667" transform="translate(-442.759 1011.321) rotate(-90)"/><rect class="cls-2" x="555.997" y="764.544" width="5.669" height="12.664" transform="translate(-399.314 1054.208) rotate(-90)"/><rect class="cls-2" x="323.372" y="451.452" width="5.024" height="41.09"/><rect class="cls-2" x="291.647" y="582.167" width="18.415" height="18.415"/><rect class="cls-2" x="63.397" y="594.905" width="32.833" height="5.677"/><rect class="cls-2" x="128.063" y="594.686" width="115.32" height="5.896"/><rect class="cls-2" x="316.897" y="595.161" width="35" height="5.421"/><rect class="cls-2" x="386.563" y="595.161" width="35.333" height="5.669"/><rect class="cls-2" x="443.063" y="595.161" width="35.833" height="5.421"/><rect class="cls-2" x="507.563" y="595.161" width="33.667" height="5.421"/><rect class="cls-2" x="569.063" y="595.161" width="36" height="5.421"/><rect class="cls-2" x="632.397" y="595.161" width="33.497" height="5.421"/><rect class="cls-2" x="696.897" y="595.375" width="35" height="5.207"/><rect class="cls-2" x="759.792" y="595.161" width="35.333" height="5.421"/><rect class="cls-2" x="823.397" y="595.161" width="34.249" height="5.669"/><rect class="cls-2" x="888.063" y="595.161" width="34.667" height="5.669"/><rect class="cls-2" x="949.647" y="595.375" width="34.833" height="5.456"/><rect class="cls-2" x="1012.063" y="595.375" width="33.333" height="5.456"/><rect class="cls-2" x="14.813" y="470.5" width="5.669" height="36.664"/><rect class="cls-2" x="14.813" y="399.028" width="5.669" height="36.664"/><rect class="cls-2" x="14.813" y="327.557" width="5.669" height="36.664"/><rect class="cls-2" x="14.813" y="255.335" width="5.669" height="38.165"/><rect class="cls-2" x="3.398" y="179.292" width="5.665" height="60.208"/><rect class="cls-2" x="3.021" y="163.792" width="18.415" height="18.415"/><rect class="cls-2" x="61.397" y="164.169" width="35.333" height="5.669"/><rect class="cls-2" x="130.063" y="164.169" width="36" height="5.669"/><rect class="cls-2" x="192.73" y="164.169" width="36" height="5.669"/><rect class="cls-2" x="257.063" y="164.169" width="33.333" height="5.669"/><rect class="cls-2" x="2.813" y="238.459" width="18.415" height="18.415"/><rect class="cls-2" x="2.813" y="187.5" width="6.75" height="35.583"/><line class="cls-2" x1="21.813" y1="176.417" x2="107.731" y2="176.417"/><rect class="cls-2" x="0.356" y="582.167" width="18.415" height="18.415"/><polygon class="cls-2" points="180.065 594.686 180.065 485.833 174.396 485.833 174.396 594.686 155.564 594.686 155.564 600.5 187.23 600.5 187.23 594.686 180.065 594.686"/><rect class="cls-2" x="0.356" y="538.167" width="5.877" height="34.167"/><path class="cls-2" d="M416.1,722.787v26.546c-13.741,0-24.879-11.605-24.879-25.921,0-.21.011-.416.015-.625Z" transform="translate(-187.27 -275.5)"/><path class="cls-2" d="M378.533,722.787v13.129a12.571,12.571,0,0,0,12.305-12.82c0-.1-.005-.206-.007-.309Z" transform="translate(-187.27 -275.5)"/><path class="cls-2" d="M1066.681,721.421v20.042c10.374,0,18.784-8.762,18.784-19.571,0-.158-.008-.314-.011-.472Z" transform="translate(-187.27 -275.5)"/><path class="cls-2" d="M1104.249,721.421v20.042c-10.374,0-18.784-8.762-18.784-19.571,0-.158.008-.314.011-.472Z" transform="translate(-187.27 -275.5)"/><path class="cls-2" d="M338.834,733.545l.019-.736h28.68v1l-1,0H339.826c0,.056,0,.111,0,.168a27.238,27.238,0,0,0,26.708,27.2l1-.033v1.038h-.5a28.239,28.239,0,0,1-28.208-28.207C338.824,733.831,338.829,733.688,338.834,733.545Z" transform="translate(-187.27 -275.5)"/><rect class="cls-2" x="144.017" y="486.684" width="3.074" height="79.316"/><polyline class="cls-2" points="130.73 492.82 130.73 578.501 159.908 578.501 159.908 491.5"/><line class="cls-2" x1="116.985" y1="495.376" x2="174.396" y2="495.376"/><line class="cls-2" x1="116.985" y1="501.66" x2="174.396" y2="501.66"/><line class="cls-2" x1="116.985" y1="507.944" x2="174.396" y2="507.944"/><line class="cls-2" x1="116.985" y1="514.228" x2="174.396" y2="514.228"/><line class="cls-2" x1="116.985" y1="520.512" x2="174.396" y2="520.512"/><line class="cls-2" x1="116.985" y1="526.796" x2="174.396" y2="526.796"/><line class="cls-2" x1="116.985" y1="533.08" x2="174.396" y2="533.08"/><line class="cls-2" x1="116.985" y1="539.364" x2="174.396" y2="539.364"/><line class="cls-2" x1="116.985" y1="545.648" x2="174.396" y2="545.648"/><line class="cls-2" x1="116.985" y1="551.932" x2="174.396" y2="551.932"/><line class="cls-2" x1="116.985" y1="558.216" x2="174.396" y2="558.216"/><line class="cls-2" x1="116.985" y1="564.5" x2="174.396" y2="564.5"/><line class="cls-2" x1="147.091" y1="538.167" x2="174.396" y2="526.796"/><line class="cls-2" x1="147.091" y1="534.502" x2="174.396" y2="523"/><line class="cls-2" x1="243.383" y1="468" x2="248.408" y2="468"/><line class="cls-2" x1="243.061" y1="450.792" x2="237.73" y2="465.5"/><polyline class="cls-2" points="310.063 483.833 312.938 453.226 323.372 451.452"/><line class="cls-2" x1="323.372" y1="483.833" x2="328.396" y2="483.833"/><rect class="cls-2" x="175.554" y="450.792" width="4.676" height="6.516"/><path class="cls-2" d="M570.833,726.216H543.614c0,13.71,11.9,24.824,26.579,24.824.215,0,.427-.011.641-.015Z" transform="translate(-187.27 -275.5)"/><polygon class="cls-2" points="383.564 495.655 383.564 499.49 402.23 499.49 402.23 504.5 383.564 504.5 383.564 507.944 406.23 507.944 406.23 495.655 383.564 495.655"/><path class="cls-2" d="M613.331,770.667V791.5A20.092,20.092,0,0,1,593.5,771.157c0-.164.008-.327.012-.49Z" transform="translate(-187.27 -275.5)"/><rect class="cls-2" x="431.98" y="492.541" width="58.414" height="3.625"/><rect class="cls-2" x="373.642" y="498.044" width="4.252" height="97.118"/><line class="cls-2" x1="373.642" y1="503.799" x2="377.894" y2="503.799"/><line class="cls-2" x1="373.642" y1="508.113" x2="377.894" y2="508.113"/><line class="cls-2" x1="373.642" y1="512.426" x2="377.894" y2="512.426"/><line class="cls-2" x1="373.642" y1="516.739" x2="377.894" y2="516.739"/><line class="cls-2" x1="373.642" y1="521.052" x2="377.894" y2="521.052"/><line class="cls-2" x1="373.642" y1="525.365" x2="377.894" y2="525.365"/><line class="cls-2" x1="373.642" y1="529.678" x2="377.894" y2="529.678"/><line class="cls-2" x1="373.642" y1="533.991" x2="377.894" y2="533.991"/><line class="cls-2" x1="373.642" y1="538.304" x2="377.894" y2="538.304"/><line class="cls-2" x1="373.642" y1="542.617" x2="377.894" y2="542.617"/><line class="cls-2" x1="373.642" y1="546.93" x2="377.894" y2="546.93"/><line class="cls-2" x1="373.642" y1="551.243" x2="377.894" y2="551.243"/><line class="cls-2" x1="373.642" y1="555.557" x2="377.894" y2="555.557"/><line class="cls-2" x1="373.642" y1="559.87" x2="377.894" y2="559.87"/><line class="cls-2" x1="373.642" y1="564.183" x2="377.894" y2="564.183"/><line class="cls-2" x1="373.642" y1="568.496" x2="377.894" y2="568.496"/><line class="cls-2" x1="373.642" y1="572.809" x2="377.894" y2="572.809"/><line class="cls-2" x1="373.642" y1="577.122" x2="377.894" y2="577.122"/><line class="cls-2" x1="373.642" y1="581.435" x2="377.894" y2="581.435"/><line class="cls-2" x1="373.642" y1="585.748" x2="377.894" y2="585.748"/><line class="cls-2" x1="373.642" y1="590.061" x2="377.894" y2="590.061"/><rect class="cls-2" x="486.142" y="496.167" width="4.252" height="86"/><line class="cls-2" x1="486.142" y1="499.431" x2="490.394" y2="499.431"/><line class="cls-2" x1="486.142" y1="503.744" x2="490.394" y2="503.744"/><line class="cls-2" x1="486.142" y1="508.057" x2="490.394" y2="508.057"/><line class="cls-2" x1="486.142" y1="512.37" x2="490.394" y2="512.37"/><line class="cls-2" x1="486.142" y1="516.683" x2="490.394" y2="516.683"/><line class="cls-2" x1="486.142" y1="520.996" x2="490.394" y2="520.996"/><line class="cls-2" x1="486.142" y1="525.309" x2="490.394" y2="525.309"/><line class="cls-2" x1="486.142" y1="529.623" x2="490.394" y2="529.623"/><line class="cls-2" x1="486.142" y1="533.936" x2="490.394" y2="533.936"/><line class="cls-2" x1="486.142" y1="538.249" x2="490.394" y2="538.249"/><line class="cls-2" x1="486.142" y1="542.562" x2="490.394" y2="542.562"/><line class="cls-2" x1="486.142" y1="546.875" x2="490.394" y2="546.875"/><line class="cls-2" x1="486.142" y1="551.188" x2="490.394" y2="551.188"/><line class="cls-2" x1="486.142" y1="555.501" x2="490.394" y2="555.501"/><line class="cls-2" x1="486.142" y1="559.814" x2="490.394" y2="559.814"/><line class="cls-2" x1="486.142" y1="564.127" x2="490.394" y2="564.127"/><line class="cls-2" x1="486.142" y1="568.44" x2="490.394" y2="568.44"/><line class="cls-2" x1="486.142" y1="572.753" x2="490.394" y2="572.753"/><line class="cls-2" x1="486.142" y1="577.067" x2="490.394" y2="577.067"/><rect class="cls-2" x="484.021" y="582.167" width="18.415" height="18.415"/><rect class="cls-2" x="249.188" y="496.167" width="3.25" height="25.958"/><rect class="cls-2" x="249.188" y="554.936" width="3.25" height="25.958"/><rect class="cls-2" x="255.23" y="491.5" width="32.125" height="37.251"/><line class="cls-2" x1="255.23" y1="491.5" x2="287.355" y2="528.751"/><line class="cls-2" x1="255.23" y1="528.751" x2="287.355" y2="491.5"/><rect class="cls-2" x="255.23" y="548.01" width="32.125" height="37.251"/><line class="cls-2" x1="255.23" y1="548.01" x2="287.355" y2="585.261"/><line class="cls-2" x1="255.23" y1="585.261" x2="287.355" y2="548.01"/><rect class="cls-2" x="291.252" y="495.521" width="5.75" height="27.25"/><rect class="cls-2" x="291.252" y="553.011" width="5.75" height="27.25"/><rect class="cls-2" x="840.174" y="485.317" width="3.074" height="83.589"/><polyline class="cls-2" points="826.887 495.726 826.887 581.407 856.065 581.407 856.065 494.406"/><line class="cls-2" x1="813.142" y1="498.282" x2="870.552" y2="498.282"/><line class="cls-2" x1="813.142" y1="504.566" x2="870.552" y2="504.566"/><line class="cls-2" x1="813.142" y1="510.85" x2="870.552" y2="510.85"/><line class="cls-2" x1="813.142" y1="517.134" x2="870.552" y2="517.134"/><line class="cls-2" x1="813.142" y1="523.418" x2="870.552" y2="523.418"/><line class="cls-2" x1="813.142" y1="529.702" x2="870.552" y2="529.702"/><line class="cls-2" x1="813.142" y1="535.986" x2="870.552" y2="535.986"/><line class="cls-2" x1="813.142" y1="542.27" x2="870.552" y2="542.27"/><line class="cls-2" x1="813.142" y1="548.554" x2="870.552" y2="548.554"/><line class="cls-2" x1="813.142" y1="554.838" x2="870.552" y2="554.838"/><line class="cls-2" x1="813.142" y1="561.122" x2="870.552" y2="561.122"/><line class="cls-2" x1="813.142" y1="567.406" x2="870.552" y2="567.406"/><line class="cls-2" x1="843.248" y1="541.072" x2="870.552" y2="529.702"/><line class="cls-2" x1="843.248" y1="537.408" x2="870.552" y2="525.906"/><rect class="cls-2" x="807.063" y="484.188" width="4.667" height="110.974"/><path class="cls-2" d="M1021.2,732.178l-.019-.736H992.5v1l1,0h26.706c0,.056,0,.111,0,.168a27.238,27.238,0,0,1-26.708,27.2l-1-.033v1.038h.5a28.239,28.239,0,0,0,28.208-28.207C1021.208,732.464,1021.2,732.321,1021.2,732.178Z" transform="translate(-187.27 -275.5)"/><polygon class="cls-2" points="740.779 446.111 737.064 446.111 734.064 446.111 734.064 451.451 734.064 458.71 716.73 458.71 716.73 461.234 734.064 461.234 737.064 461.234 737.064 458.71 737.064 451.451 740.779 451.451 740.779 446.111"/><line class="cls-2" x1="716.73" y1="448.835" x2="734.064" y2="448.835"/><path class="cls-2" d="M899,786.35h20.167s.167-9.35-6.5-14.683" transform="translate(-187.27 -275.5)"/><path class="cls-2" d="M899,750.462h20.167s.167,9.35-6.5,14.683" transform="translate(-187.27 -275.5)"/><rect class="cls-2" x="671.563" y="542.562" width="45.167" height="2.605"/><rect class="cls-2" x="711.73" y="510.85" width="5" height="31.712"/><rect class="cls-2" x="671.564" y="514.5" width="40.167" height="2.634"/><polyline class="cls-2" points="671.563 535.387 674.73 523.418 708.063 517.134"/><polygon class="cls-2" points="762.73 534.696 740.779 534.696 740.779 535.387 740.779 540.365 740.779 595.375 746.397 595.375 746.397 540.365 762.73 540.365 762.73 534.696"/><rect class="cls-2" x="792.584" y="534.696" width="14.354" height="5.669"/><rect class="cls-2" x="753.063" y="543.864" width="46.698" height="40.969"/><line class="cls-2" x1="753.063" y1="543.864" x2="799.761" y2="584.833"/><line class="cls-2" x1="753.063" y1="584.833" x2="799.761" y2="543.864"/><rect class="cls-2" x="762.579" y="588.54" width="27.667" height="5.669"/><rect class="cls-2" x="1052.646" y="162.4" width="15.791" height="16.961"/><rect class="cls-2" x="1062.804" y="36.333" width="6.52" height="39.541"/><rect class="cls-2" x="1062.804" y="108.228" width="6.52" height="39.541"/><rect class="cls-2" x="1056.24" y="0.5" width="12.48" height="5.305"/><polygon class="cls-2" points="19.483 504.542 19.483 509.146 35.397 509.146 35.397 594.905 40.064 594.905 40.064 504.542 19.483 504.542"/><line class="cls-2" x1="19.483" y1="509.146" x2="35.397" y2="594.905"/><line class="cls-2" x1="19.483" y1="595.161" x2="19.483" y2="507.944"/><path class="cls-2" d="M222.695,862.2h20.042c0-10.374-8.762-18.784-19.571-18.784-.158,0-.314.008-.472.011Z" transform="translate(-187.27 -275.5)"/><path class="cls-2" d="M222.695,824.631h20.042c0,10.374-8.762,18.784-19.571,18.784-.158,0-.314-.008-.472-.011Z" transform="translate(-187.27 -275.5)"/><polygon class="cls-2" points="672.401 17.125 672.401 98.663 294.522 98.663 294.522 105.001 672.401 105.001 672.401 389.119 678.07 389.119 678.07 17.125 672.401 17.125"/><rect class="cls-2" x="672.401" y="162.4" width="18.415" height="18.415"/><rect class="cls-2" x="672.401" y="0.031" width="18.415" height="18.415"/><rect class="cls-2" x="320.23" y="99.332" width="34.5" height="5.669"/><rect class="cls-2" x="383.764" y="98.663" width="34.5" height="5.669"/><rect class="cls-2" x="447.298" y="98.663" width="34.5" height="5.669"/><rect class="cls-2" x="510.833" y="98.663" width="34.5" height="5.669"/><rect class="cls-2" x="637.901" y="99.332" width="34.5" height="5.669"/><rect class="cls-2" x="574.367" y="99.332" width="34.5" height="5.669"/><rect class="cls-2" x="294.522" y="98.663" width="11.708" height="68.003"/><polygon class="cls-2" points="1052.646 178.185 1052.646 162.4 1046.403 162.4 1046.403 185.135 1063.23 185.135 1063.23 178.185 1052.646 178.185"/><rect class="cls-2" x="1046.403" y="178.185" width="6.243" height="6.95"/><rect class="cls-2" x="856.065" y="366.326" width="23.595" height="23.595"/><rect class="cls-2" x="879.66" y="384.167" width="41.737" height="5.754"/><polygon class="cls-2" points="1068.44 371.557 921.397 371.557 916.73 371.557 916.73 377.226 916.73 418.833 921.397 418.833 921.397 377.226 1068.44 377.226 1068.44 371.557"/><line class="cls-2" x1="879.66" y1="371.506" x2="916.73" y2="371.506"/><line class="cls-2" x1="879.66" y1="384.167" x2="916.73" y2="371.506"/><rect class="cls-2" x="1177.287" y="648.322" width="5.343" height="151.917" transform="translate(268.408 1628.738) rotate(-90)"/><path class="cls-2" d="M1104,694h24a23.187,23.187,0,0,1-23.435,22.93c-.189,0-.376-.01-.565-.014Z" transform="translate(-187.27 -275.5)"/><rect class="cls-2" x="916.73" y="442.25" width="5.75" height="3.859"/><rect class="cls-2" x="690.816" y="175.096" width="173.914" height="4.992"/><path class="cls-2" d="M1066.876,455.588v-24a23.187,23.187,0,0,1,22.93,23.435c0,.189-.01.376-.014.565Z" transform="translate(-187.27 -275.5)"/><path class="cls-2" d="M878.086,455.588v-24a23.187,23.187,0,0,1,22.93,23.435c0,.189-.01.376-.014.565Z" transform="translate(-187.27 -275.5)"/><rect class="cls-2" x="867.927" y="16.5" width="5.669" height="147.172"/><rect class="cls-2" x="861.554" y="0.5" width="18.415" height="18.415"/><rect class="cls-2" x="861.554" y="161.672" width="18.415" height="18.415"/><rect class="cls-2" x="49.078" y="176.417" width="5.669" height="212.702"/><rect class="cls-2" x="530.877" y="336.627" width="5.669" height="651.918" transform="translate(1009.028 -146.625) rotate(90)"/><rect class="cls-2" x="484.021" y="371.506" width="18.415" height="18.415"/><rect class="cls-2" x="294.522" y="371.506" width="18.415" height="18.415"/><rect class="cls-2" x="672.401" y="371.506" width="18.415" height="18.415"/><rect class="cls-2" x="102.108" y="371.506" width="18.415" height="18.415"/><path class="cls-2" d="M475.65,666.235V646.192c-10.374,0-18.784,8.762-18.784,19.571,0,.158.008.314.011.472Z" transform="translate(-187.27 -275.5)"/><path class="cls-2" d="M438.082,666.235V646.192c10.374,0,18.784,8.762,18.784,19.571,0,.158-.008.314-.011.472Z" transform="translate(-187.27 -275.5)"/><path class="cls-2" d="M665.738,666.235V646.192c-10.374,0-18.784,8.762-18.784,19.571,0,.158.008.314.011.472Z" transform="translate(-187.27 -275.5)"/><path class="cls-2" d="M628.169,666.235V646.192c10.374,0,18.784,8.762,18.784,19.571,0,.158-.008.314-.011.472Z" transform="translate(-187.27 -275.5)"/><path class="cls-2" d="M852.159,666.235V646.192c-10.374,0-18.784,8.762-18.784,19.571,0,.158.008.314.011.472Z" transform="translate(-187.27 -275.5)"/><path class="cls-2" d="M814.591,666.235V646.192c10.374,0,18.784,8.762,18.784,19.571,0,.158-.008.314-.011.472Z" transform="translate(-187.27 -275.5)"/><line class="cls-2" x1="492.394" y1="104.332" x2="492.394" y2="390.735"/><polyline class="cls-2" points="498.688 117.5 483.92 132.269 498.44 146.79 483.573 161.658 483.573 180.815 500.253 197.496 483.315 212.167 500.253 223.083 483.315 240.022 500.253 256.167"/><polyline class="cls-2" points="500.863 302.274 484.183 313.432 500.863 330.112 483.925 344.783 500.863 355.7 483.925 372.638"/><rect class="cls-2" x="54.748" y="176.417" width="10.025" height="41.705"/><rect class="cls-2" x="54.748" y="316.907" width="10.025" height="41.852"/><path class="cls-2" d="M252.042,659.522H219.355a31.824,31.824,0,0,1,31.918-31.729c.258,0,.513.013.769.019Z" transform="translate(-187.27 -275.5)"/><polygon class="cls-2" points="426.061 446 426.061 451.451 426.061 451.451 426.061 496.167 431.73 496.167 431.73 451.451 573.776 451.451 573.776 595.375 579.445 595.375 579.445 451.451 879.66 451.451 879.66 446 426.061 446"/><path class="cls-2" d="M756.333,721.909v20.042c-10.374,0-18.784-8.762-18.784-19.571,0-.158.008-.314.011-.472Z" transform="translate(-187.27 -275.5)"/><polygon class="cls-2" points="615.73 464 615.73 452.083 610.23 452.083 610.23 468.962 665.889 468.962 665.889 464 615.73 464"/><rect class="cls-2" x="649.146" y="452.083" width="3.715" height="12.046"/><path class="cls-2" d="M771.328,721.787V741.83c10.374,0,18.784-8.762,18.784-19.571,0-.158-.008-.314-.011-.472Z" transform="translate(-187.27 -275.5)"/><path class="cls-2" d="M968.633,721.909v12.679a12.139,12.139,0,0,1-11.883-12.381c0-.1.005-.2.007-.3Z" transform="translate(-187.27 -275.5)"/><path class="cls-2" d="M931.065,721.909V748.75c13.893,0,25.156-11.734,25.156-26.209,0-.212-.011-.421-.015-.632Z" transform="translate(-187.27 -275.5)"/><path class="cls-2" d="M613.331,727.216H640.55c0,13.71-11.9,24.824-26.579,24.824-.215,0-.427-.011-.641-.015Z" transform="translate(-187.27 -275.5)"/><polygon class="cls-2" points="870.552 445.927 804.064 445.927 804.064 455.948 870.552 455.948 870.552 586.167 879.76 586.167 879.76 455.948 879.76 445.927 870.552 445.927"/><polygon class="cls-2" points="665.894 445.927 665.894 446.587 665.894 451.716 665.894 588.995 667.564 588.995 671.564 588.995 673.401 588.995 673.401 582.75 671.564 582.75 671.564 451.716 711.73 451.716 711.73 474.5 716.73 474.5 716.73 451.716 716.73 448.835 716.73 445.927 665.894 445.927"/><line class="cls-2" x1="120.23" y1="164.375" x2="120.23" y2="383.75"/><rect class="cls-2" x="111.316" y="389.921" width="5.669" height="191.514"/><path class="cls-2" d="M304.772,675.429H284.73c0,10.374,8.762,18.784,19.571,18.784.158,0,.314-.008.472-.011Z" transform="translate(-187.27 -275.5)"/><path class="cls-2" d="M304.772,713H284.73c0-10.374,8.762-18.784,19.571-18.784.158,0,.314.008.472.011Z" transform="translate(-187.27 -275.5)"/><polygon class="cls-3" points="871.17 180.088 871.17 4.742 673.901 6.169 673.901 75.874 673.901 389.735 492.394 389.735 492.394 101.842 300 101.497 300 162.53 9.064 167.004 6.233 242.833 12.229 242.833 19.483 504.542 0 522.957 0.564 595.161 303.73 595.81 303.73 446 671.564 446 671.564 582.75 681.609 588.995 684.4 596.624 857.646 596.995 879.76 596.823 879.76 445.78 916.979 445.78 916.979 372.638 1065.605 372.638 1065.605 180.088 871.17 180.088"/><rect class="cls-4" x="335.333" y="295.004" width="5.669" height="295" transform="translate(-291.606 505.172) rotate(-90)"/><rect class="cls-4" x="673.901" y="0.5" width="394.539" height="5.669"/><rect class="cls-5" x="903.397" y="175.595" width="164.54" height="4.669"/><path class="cls-6" d="M1254.707,451.6v3.669H1091.167V451.6h163.541m1-1H1090.167v5.669h165.541V450.6Z" transform="translate(-187.27 -275.5)"/><rect class="cls-4" x="0.563" y="519.333" width="5.669" height="81.167"/><rect class="cls-4" x="14.813" y="255.335" width="5.669" height="266.75"/><rect class="cls-4" x="105.647" y="475.5" width="5.669" height="106.667"/><rect class="cls-4" x="243.061" y="450.7" width="5.669" height="45.374"/><rect class="cls-4" x="243.706" y="522.555" width="5.024" height="32.382"/><rect class="cls-4" x="377.894" y="477.9" width="5.669" height="117.262"/><rect class="cls-4" x="490.394" y="446.587" width="5.669" height="150.408"/><polygon class="cls-4" points="191.564 446.587 111.316 446.587 111.316 447 111.316 451.083 111.316 599.665 116.986 599.665 116.986 451.083 191.564 451.083 191.564 446.587"/><rect class="cls-4" x="711.749" y="346.746" width="5.669" height="1053.5" transform="translate(1400.81 -116.587) rotate(90)"/><rect class="cls-4" x="1063.229" y="0.5" width="5.669" height="601.003"/><rect class="cls-6" x="102.108" y="163.792" width="18.415" height="18.415"/><rect class="cls-6" y="504.542" width="20.483" height="18.415"/><rect class="cls-6" x="102.108" y="582.167" width="18.415" height="18.415"/><rect class="cls-6" x="673.401" y="582.167" width="18.415" height="18.415"/><rect class="cls-6" x="1050.022" y="583.46" width="18.415" height="18.415"/><rect class="cls-6" x="1050.48" y="0.5" width="18.415" height="18.415"/><rect class="cls-6" x="294.522" y="162.4" width="18.415" height="18.415"/><rect class="cls-6" x="483.315" y="162.4" width="18.415" height="18.415"/><rect class="cls-6" x="695.23" y="0.5" width="34.167" height="5.669"/><rect class="cls-6" x="755.77" y="0.5" width="37.081" height="5.669"/><rect class="cls-6" x="818.77" y="0.5" width="37.081" height="5.669"/><rect class="cls-6" x="885.606" y="0.5" width="37.081" height="5.669"/><rect class="cls-6" x="945.322" y="0.5" width="37.081" height="5.669"/><rect class="cls-6" x="1009.322" y="0.5" width="37.081" height="5.669"/><rect class="cls-6" x="1062.771" y="183.25" width="5.669" height="34.269"/><rect class="cls-6" x="1063.229" y="252.497" width="5.669" height="36.917"/><rect class="cls-6" x="1063.229" y="324.392" width="5.669" height="36.917"/><rect class="cls-6" x="1063.229" y="396.287" width="5.669" height="36.917"/><rect class="cls-6" x="1062.771" y="468.182" width="5.669" height="36.917"/><rect class="cls-6" x="1062.771" y="540.077" width="5.669" height="36.917"/><rect class="cls-6" x="1050.024" y="371.506" width="18.415" height="18.415"/><rect class="cls-4" x="243.706" y="580.892" width="5.024" height="13.702"/><rect class="cls-4" x="243.061" y="473.479" width="67.002" height="10.354"/><rect class="cls-4" x="300.333" y="483.833" width="9.165" height="98.333"/><rect class="cls-4" x="300.333" y="450.792" width="9.165" height="22.687"/><rect class="cls-4" x="512.832" y="752.821" width="5.669" height="36.667" transform="translate(-442.759 1011.321) rotate(-90)"/><rect class="cls-4" x="555.997" y="764.544" width="5.669" height="12.664" transform="translate(-399.314 1054.208) rotate(-90)"/><rect class="cls-4" x="323.372" y="451.452" width="5.024" height="41.09"/><rect class="cls-6" x="291.647" y="582.167" width="18.415" height="18.415"/><rect class="cls-6" x="63.397" y="594.905" width="32.833" height="5.677"/><rect class="cls-6" x="128.063" y="594.686" width="115.32" height="5.896"/><rect class="cls-6" x="316.897" y="595.161" width="35" height="5.421"/><rect class="cls-6" x="386.563" y="595.161" width="35.333" height="5.669"/><rect class="cls-6" x="443.063" y="595.161" width="35.833" height="5.421"/><rect class="cls-6" x="507.563" y="595.161" width="33.667" height="5.421"/><rect class="cls-6" x="569.063" y="595.161" width="36" height="5.421"/><rect class="cls-6" x="632.397" y="595.161" width="33.497" height="5.421"/><rect class="cls-6" x="696.897" y="595.375" width="35" height="5.207"/><rect class="cls-6" x="759.792" y="595.161" width="35.333" height="5.421"/><rect class="cls-6" x="823.397" y="595.161" width="34.249" height="5.669"/><rect class="cls-6" x="888.063" y="595.161" width="34.667" height="5.669"/><rect class="cls-6" x="949.647" y="595.375" width="34.833" height="5.456"/><rect class="cls-6" x="1012.063" y="595.375" width="33.333" height="5.456"/><rect class="cls-6" x="14.813" y="470.5" width="5.669" height="36.664"/><rect class="cls-6" x="14.813" y="399.028" width="5.669" height="36.664"/><rect class="cls-6" x="14.813" y="327.557" width="5.669" height="36.664"/><rect class="cls-6" x="14.813" y="255.335" width="5.669" height="38.165"/><rect class="cls-4" x="3.398" y="179.292" width="5.665" height="60.208"/><rect class="cls-6" x="3.021" y="163.792" width="18.415" height="18.415"/><rect class="cls-6" x="61.397" y="164.169" width="35.333" height="5.669"/><rect class="cls-6" x="130.063" y="164.169" width="36" height="5.669"/><rect class="cls-6" x="192.73" y="164.169" width="36" height="5.669"/><rect class="cls-6" x="257.063" y="164.169" width="33.333" height="5.669"/><rect class="cls-6" x="2.813" y="238.459" width="18.415" height="18.415"/><rect class="cls-6" x="2.813" y="187.5" width="6.75" height="35.583"/><line class="cls-7" x1="21.813" y1="176.417" x2="107.731" y2="176.417"/><rect class="cls-6" x="0.356" y="582.167" width="18.415" height="18.415"/><polygon class="cls-4" points="180.065 594.686 180.065 485.833 174.396 485.833 174.396 594.686 155.564 594.686 155.564 600.5 187.23 600.5 187.23 594.686 180.065 594.686"/><rect class="cls-6" x="0.356" y="538.167" width="5.877" height="34.167"/><path class="cls-6" d="M338.834,733.545l.019-.736h28.68v1l-1,0H339.826c0,.056,0,.111,0,.168a27.238,27.238,0,0,0,26.708,27.2l1-.033v1.038h-.5a28.239,28.239,0,0,1-28.208-28.207C338.824,733.831,338.829,733.688,338.834,733.545Z" transform="translate(-187.27 -275.5)"/><rect class="cls-7" x="144.017" y="486.684" width="3.074" height="79.316"/><polyline class="cls-7" points="130.73 492.82 130.73 578.501 159.908 578.501 159.908 491.5"/><line class="cls-7" x1="116.985" y1="495.376" x2="174.396" y2="495.376"/><line class="cls-7" x1="116.985" y1="501.66" x2="174.396" y2="501.66"/><line class="cls-7" x1="116.985" y1="507.944" x2="174.396" y2="507.944"/><line class="cls-7" x1="116.985" y1="514.228" x2="174.396" y2="514.228"/><line class="cls-7" x1="116.985" y1="520.512" x2="174.396" y2="520.512"/><line class="cls-7" x1="116.985" y1="526.796" x2="174.396" y2="526.796"/><line class="cls-7" x1="116.985" y1="533.08" x2="174.396" y2="533.08"/><line class="cls-7" x1="116.985" y1="539.364" x2="174.396" y2="539.364"/><line class="cls-7" x1="116.985" y1="545.648" x2="174.396" y2="545.648"/><line class="cls-7" x1="116.985" y1="551.932" x2="174.396" y2="551.932"/><line class="cls-7" x1="116.985" y1="558.216" x2="174.396" y2="558.216"/><line class="cls-7" x1="116.985" y1="564.5" x2="174.396" y2="564.5"/><line class="cls-7" x1="147.091" y1="538.167" x2="174.396" y2="526.796"/><line class="cls-7" x1="147.091" y1="534.502" x2="174.396" y2="523"/><line class="cls-7" x1="243.383" y1="468" x2="248.408" y2="468"/><line class="cls-7" x1="243.061" y1="450.792" x2="237.73" y2="465.5"/><polyline class="cls-7" points="310.063 483.833 312.938 453.226 323.372 451.452"/><line class="cls-7" x1="323.372" y1="483.833" x2="328.396" y2="483.833"/><rect class="cls-4" x="175.554" y="451.209" width="4.676" height="6.516"/><polygon class="cls-4" points="383.564 495.655 383.564 499.49 402.23 499.49 402.23 504.5 383.564 504.5 383.564 507.944 406.23 507.944 406.23 495.655 383.564 495.655"/><rect class="cls-4" x="431.98" y="492.541" width="58.414" height="3.625"/><rect class="cls-4" x="373.642" y="498.044" width="4.252" height="97.118"/><line class="cls-7" x1="373.642" y1="503.799" x2="377.894" y2="503.799"/><line class="cls-7" x1="373.642" y1="508.113" x2="377.894" y2="508.113"/><line class="cls-7" x1="373.642" y1="512.426" x2="377.894" y2="512.426"/><line class="cls-7" x1="373.642" y1="516.739" x2="377.894" y2="516.739"/><line class="cls-7" x1="373.642" y1="521.052" x2="377.894" y2="521.052"/><line class="cls-7" x1="373.642" y1="525.365" x2="377.894" y2="525.365"/><line class="cls-7" x1="373.642" y1="529.678" x2="377.894" y2="529.678"/><line class="cls-7" x1="373.642" y1="533.991" x2="377.894" y2="533.991"/><line class="cls-7" x1="373.642" y1="538.304" x2="377.894" y2="538.304"/><line class="cls-7" x1="373.642" y1="542.617" x2="377.894" y2="542.617"/><line class="cls-7" x1="373.642" y1="546.93" x2="377.894" y2="546.93"/><line class="cls-7" x1="373.642" y1="551.243" x2="377.894" y2="551.243"/><line class="cls-7" x1="373.642" y1="555.557" x2="377.894" y2="555.557"/><line class="cls-7" x1="373.642" y1="559.87" x2="377.894" y2="559.87"/><line class="cls-7" x1="373.642" y1="564.183" x2="377.894" y2="564.183"/><line class="cls-7" x1="373.642" y1="568.496" x2="377.894" y2="568.496"/><line class="cls-7" x1="373.642" y1="572.809" x2="377.894" y2="572.809"/><line class="cls-7" x1="373.642" y1="577.122" x2="377.894" y2="577.122"/><line class="cls-7" x1="373.642" y1="581.435" x2="377.894" y2="581.435"/><line class="cls-7" x1="373.642" y1="585.748" x2="377.894" y2="585.748"/><line class="cls-7" x1="373.642" y1="590.061" x2="377.894" y2="590.061"/><rect class="cls-4" x="486.142" y="496.167" width="4.252" height="86"/><line class="cls-7" x1="486.142" y1="499.431" x2="490.394" y2="499.431"/><line class="cls-7" x1="486.142" y1="503.744" x2="490.394" y2="503.744"/><line class="cls-7" x1="486.142" y1="508.057" x2="490.394" y2="508.057"/><line class="cls-7" x1="486.142" y1="512.37" x2="490.394" y2="512.37"/><line class="cls-7" x1="486.142" y1="516.683" x2="490.394" y2="516.683"/><line class="cls-7" x1="486.142" y1="520.996" x2="490.394" y2="520.996"/><line class="cls-7" x1="486.142" y1="525.309" x2="490.394" y2="525.309"/><line class="cls-7" x1="486.142" y1="529.623" x2="490.394" y2="529.623"/><line class="cls-7" x1="486.142" y1="533.936" x2="490.394" y2="533.936"/><line class="cls-7" x1="486.142" y1="538.249" x2="490.394" y2="538.249"/><line class="cls-7" x1="486.142" y1="542.562" x2="490.394" y2="542.562"/><line class="cls-7" x1="486.142" y1="546.875" x2="490.394" y2="546.875"/><line class="cls-7" x1="486.142" y1="551.188" x2="490.394" y2="551.188"/><line class="cls-7" x1="486.142" y1="555.501" x2="490.394" y2="555.501"/><line class="cls-7" x1="486.142" y1="559.814" x2="490.394" y2="559.814"/><line class="cls-7" x1="486.142" y1="564.127" x2="490.394" y2="564.127"/><line class="cls-7" x1="486.142" y1="568.44" x2="490.394" y2="568.44"/><line class="cls-7" x1="486.142" y1="572.753" x2="490.394" y2="572.753"/><line class="cls-7" x1="486.142" y1="577.067" x2="490.394" y2="577.067"/><rect class="cls-6" x="484.021" y="582.167" width="18.415" height="18.415"/><rect class="cls-6" x="249.188" y="496.167" width="3.25" height="25.958"/><rect class="cls-6" x="249.188" y="554.936" width="3.25" height="25.958"/><rect class="cls-7" x="255.23" y="491.5" width="32.125" height="37.251"/><line class="cls-7" x1="255.23" y1="491.5" x2="287.355" y2="528.751"/><line class="cls-7" x1="255.23" y1="528.751" x2="287.355" y2="491.5"/><rect class="cls-7" x="255.23" y="548.01" width="32.125" height="37.251"/><line class="cls-7" x1="255.23" y1="548.01" x2="287.355" y2="585.261"/><line class="cls-7" x1="255.23" y1="585.261" x2="287.355" y2="548.01"/><rect class="cls-7" x="291.252" y="495.521" width="5.75" height="27.25"/><rect class="cls-7" x="291.252" y="553.011" width="5.75" height="27.25"/><rect class="cls-7" x="840.174" y="485.317" width="3.074" height="83.589"/><polyline class="cls-7" points="826.887 495.726 826.887 581.407 856.065 581.407 856.065 494.406"/><line class="cls-7" x1="813.142" y1="498.282" x2="870.552" y2="498.282"/><line class="cls-7" x1="813.142" y1="504.566" x2="870.552" y2="504.566"/><line class="cls-7" x1="813.142" y1="510.85" x2="870.552" y2="510.85"/><line class="cls-7" x1="813.142" y1="517.134" x2="870.552" y2="517.134"/><line class="cls-7" x1="813.142" y1="523.418" x2="870.552" y2="523.418"/><line class="cls-7" x1="813.142" y1="529.702" x2="870.552" y2="529.702"/><line class="cls-7" x1="813.142" y1="535.986" x2="870.552" y2="535.986"/><line class="cls-7" x1="813.142" y1="542.27" x2="870.552" y2="542.27"/><line class="cls-7" x1="813.142" y1="548.554" x2="870.552" y2="548.554"/><line class="cls-7" x1="813.142" y1="554.838" x2="870.552" y2="554.838"/><line class="cls-7" x1="813.142" y1="561.122" x2="870.552" y2="561.122"/><line class="cls-7" x1="813.142" y1="567.406" x2="870.552" y2="567.406"/><line class="cls-7" x1="843.248" y1="541.072" x2="870.552" y2="529.702"/><line class="cls-7" x1="843.248" y1="537.408" x2="870.552" y2="525.906"/><rect class="cls-7" x="807.063" y="484.188" width="4.667" height="110.974"/><path class="cls-6" d="M1022.2,732.15l-.019-.708H993.5v.965l1,0h26.706c0,.054,0,.107,0,.162,0,14.265-11.935,25.9-26.708,26.156l-1-.032v1h.5c15.554,0,28.208-12.167,28.208-27.123C1022.208,732.425,1022.2,732.287,1022.2,732.15Z" transform="translate(-187.27 -275.5)"/><polygon class="cls-4" points="740.779 446.111 737.064 446.111 734.064 446.111 734.064 451.451 734.064 458.71 716.73 458.71 716.73 461.234 734.064 461.234 737.064 461.234 737.064 458.71 737.064 451.451 740.779 451.451 740.779 446.111"/><line class="cls-7" x1="716.73" y1="448.835" x2="734.064" y2="448.835"/><path class="cls-7" d="M899,786.35h20.167s.167-9.35-6.5-14.683" transform="translate(-187.27 -275.5)"/><path class="cls-7" d="M899,750.462h20.167s.167,9.35-6.5,14.683" transform="translate(-187.27 -275.5)"/><rect class="cls-4" x="671.563" y="542.562" width="45.167" height="2.605"/><rect class="cls-4" x="711.73" y="510.85" width="5" height="34.317"/><rect class="cls-4" x="671.564" y="514.5" width="40.167" height="2.634"/><polyline class="cls-7" points="671.563 535.387 674.73 523.418 708.063 517.134"/><polygon class="cls-4" points="762.73 534.696 740.779 534.696 740.779 535.387 740.779 540.365 740.779 595.375 746.397 595.375 746.397 540.365 762.73 540.365 762.73 534.696"/><rect class="cls-4" x="792.584" y="534.696" width="14.354" height="5.669"/><rect class="cls-7" x="753.063" y="543.864" width="46.698" height="40.969"/><line class="cls-7" x1="753.063" y1="543.864" x2="799.761" y2="584.833"/><line class="cls-7" x1="753.063" y1="584.833" x2="799.761" y2="543.864"/><rect class="cls-7" x="762.579" y="588.54" width="27.667" height="5.669"/><rect class="cls-6" x="1052.646" y="163.854" width="15.791" height="16.961"/><rect class="cls-6" x="1062.804" y="36.333" width="6.52" height="39.541"/><rect class="cls-6" x="1062.804" y="108.228" width="6.52" height="39.541"/><rect class="cls-6" x="1056.24" y="0.5" width="12.48" height="5.305"/><polygon class="cls-4" points="19.483 504.542 19.483 509.146 35.397 509.146 35.397 548.905 40.064 548.905 40.064 504.542 19.483 504.542"/><line class="cls-7" x1="19.483" y1="509.146" x2="35.397" y2="594.905"/><line class="cls-7" x1="19.483" y1="595.161" x2="19.483" y2="507.944"/><polygon class="cls-5" points="672.9 388.619 672.9 104.501 295.022 104.501 295.022 99.163 672.9 99.163 672.9 17.625 677.57 17.625 677.57 388.619 672.9 388.619"/><path class="cls-6" d="M864.34,293.625V663.619H860.67V379.5H482.792v-4.339H860.67V293.625h3.669m1-1H859.67v81.538H481.792V380.5H859.67V664.619h5.669V292.625Z" transform="translate(-187.27 -275.5)"/><rect class="cls-6" x="672.401" y="162.4" width="18.415" height="18.415"/><rect class="cls-6" x="672.401" y="0.031" width="18.415" height="18.415"/><rect class="cls-6" x="320.23" y="99.332" width="34.5" height="5.669"/><rect class="cls-6" x="383.764" y="98.663" width="34.5" height="5.669"/><rect class="cls-6" x="447.298" y="98.663" width="34.5" height="5.669"/><rect class="cls-6" x="510.833" y="98.663" width="34.5" height="5.669"/><rect class="cls-6" x="637.901" y="99.332" width="34.5" height="5.669"/><rect class="cls-6" x="574.367" y="99.332" width="34.5" height="5.669"/><rect class="cls-6" x="294.522" y="98.663" width="11.708" height="68.003"/><polygon class="cls-5" points="1046.903 184.635 1046.903 162.9 1052.146 162.9 1052.146 178.685 1062.73 178.685 1062.73 184.635 1046.903 184.635"/><path class="cls-6" d="M1238.916,438.9v15.785H1249.5v4.95h-14.827V438.9h4.243m1-1h-6.243v22.736H1250.5v-6.95h-10.583V437.9Z" transform="translate(-187.27 -275.5)"/><rect class="cls-6" x="1046.403" y="178.185" width="6.243" height="6.95"/><rect class="cls-4" x="856.065" y="366.326" width="23.595" height="23.595"/><rect class="cls-4" x="879.66" y="384.167" width="41.737" height="5.754"/><polygon class="cls-4" points="1068.44 371.557 921.397 371.557 916.73 371.557 916.73 377.226 916.73 418.833 921.397 418.833 921.397 377.226 1068.44 377.226 1068.44 371.557"/><line class="cls-7" x1="879.66" y1="371.506" x2="916.73" y2="371.506"/><line class="cls-7" x1="879.66" y1="384.167" x2="916.73" y2="371.506"/><rect class="cls-4" x="1176.998" y="648.322" width="5.343" height="151.917" transform="translate(268.119 1628.449) rotate(-90)"/><rect class="cls-4" x="916.441" y="441.319" width="5.75" height="4.79"/><rect class="cls-5" x="714.246" y="176.323" width="149.984" height="3.992"/><path class="cls-6" d="M1051,452.323v2.992H902.016v-2.992H1051m1-1H901.016v4.992H1052v-4.992Z" transform="translate(-187.27 -275.5)"/><rect class="cls-5" x="868.426" y="17" width="4.67" height="146.172"/><path class="cls-6" d="M1059.866,293V438.172H1056.2V293h3.669m1-1H1055.2V439.172h5.669V292Z" transform="translate(-187.27 -275.5)"/><rect class="cls-6" x="861.554" y="0.5" width="18.415" height="18.415"/><rect class="cls-6" x="861.554" y="162.4" width="18.415" height="18.415"/><rect class="cls-4" x="49.078" y="176.417" width="5.669" height="175.876"/><rect class="cls-4" x="254.792" y="612.713" width="5.669" height="99.747" transform="translate(732.943 129.46) rotate(90)"/><line class="cls-7" x1="492.394" y1="104.332" x2="492.394" y2="389.735"/><polyline class="cls-7" points="498.688 117.5 483.92 132.269 498.44 146.79 483.573 161.658 483.573 180.815 500.253 197.496 483.315 212.167 500.253 223.083 483.315 240.022 500.253 256.167"/><polyline class="cls-7" points="500.863 302.274 484.183 313.432 500.863 330.112 483.925 344.783 500.863 355.7 483.925 372.638"/><rect class="cls-4" x="54.748" y="176.417" width="10.025" height="41.705"/><rect class="cls-4" x="54.748" y="316.907" width="10.025" height="35.385"/><polygon class="cls-4" points="615.73 464 615.73 452.083 610.23 452.083 610.23 468.962 665.889 468.962 665.889 464 615.73 464"/><rect class="cls-4" x="649.146" y="452.083" width="3.715" height="12.046"/><polygon class="cls-4" points="870.552 445.927 806.064 445.927 806.064 455.948 870.552 455.948 870.552 586.167 879.76 586.167 879.76 455.948 879.76 445.927 870.552 445.927"/><polygon class="cls-4" points="665.894 445.927 665.894 446.587 665.894 451.716 665.894 588.995 667.564 588.995 671.564 588.995 673.401 588.995 673.401 582.75 671.564 582.75 671.564 451.716 711.73 451.716 711.73 474.5 716.73 474.5 716.73 451.716 716.73 448.835 716.73 445.927 665.894 445.927"/><line class="cls-7" x1="120.23" y1="164.375" x2="120.23" y2="383.75"/><rect class="cls-4" x="111.316" y="437.498" width="5.669" height="144.938"/><rect class="cls-6" x="861.995" y="582.167" width="18.415" height="18.415"/><rect class="cls-4" x="21.437" y="169.839" width="80.672" height="6.578"/><rect class="cls-6" x="861.245" y="371.506" width="18.415" height="18.415"/><path class="cls-6" d="M878.086,431.315h-.5v25h1V432.32a22.676,22.676,0,0,1,21.845,21h0v.068c.049.615,0,2.928,0,2.928h1.057l.016-.7c0-.123.008-.246.008-.37C901.516,442.052,891.005,431.315,878.086,431.315Z" transform="translate(-187.27 -275.5)"/><path class="cls-6" d="M1066.876,431.315h-.5v25h1V432.32a22.676,22.676,0,0,1,21.845,21h0v.068c.049.615,0,2.928,0,2.928h1.057l.016-.7c0-.123.008-.246.008-.37C1090.306,442.052,1079.795,431.315,1066.876,431.315Z" transform="translate(-187.27 -275.5)"/><rect class="cls-4" x="664.889" y="384.252" width="25.174" height="5.669"/><g class="cls-8"><path class="cls-7" d="M852.159,666.235V646.192c-10.374,0-18.784,8.762-18.784,19.571,0,.158.008.314.011.472Z" transform="translate(-187.27 -275.5)"/><path class="cls-7" d="M814.591,666.235V646.192c10.374,0,18.784,8.762,18.784,19.571,0,.158-.008.314-.011.472Z" transform="translate(-187.27 -275.5)"/></g><g class="cls-9"><path class="cls-7" d="M665.475,666.624V646.581c-10.374,0-18.784,8.762-18.784,19.571,0,.158.008.314.011.472Z" transform="translate(-187.27 -275.5)"/><path class="cls-7" d="M627.906,666.624V646.581c10.374,0,18.784,8.762,18.784,19.571,0,.158-.008.314-.011.472Z" transform="translate(-187.27 -275.5)"/></g><g class="cls-10"><path class="cls-7" d="M665.545,666.719V646.677c-10.374,0-18.784,8.762-18.784,19.571,0,.158.008.314.011.472Z" transform="translate(-187.27 -275.5)"/><path class="cls-7" d="M627.977,666.719V646.677c10.374,0,18.784,8.762,18.784,19.571,0,.158-.008.314-.011.472Z" transform="translate(-187.27 -275.5)"/></g><rect class="cls-4" x="369.603" y="596.942" width="5.669" height="131.288" transform="translate(847.754 14.649) rotate(90)"/><rect class="cls-6" x="102.108" y="371.506" width="18.415" height="18.415"/><rect class="cls-4" x="548.801" y="586.601" width="5.669" height="151.971" transform="translate(1026.952 -164.549) rotate(90)"/><rect class="cls-6" x="294.522" y="371.506" width="18.415" height="18.415"/><rect class="cls-6" x="672.401" y="371.506" width="18.415" height="18.415"/><rect class="cls-4" x="478.889" y="384.252" width="148.432" height="5.669"/><rect class="cls-6" x="484.021" y="371.506" width="18.415" height="18.415"/><g class="cls-11"><path class="cls-7" d="M475.545,666.719V646.677c-10.374,0-18.784,8.762-18.784,19.571,0,.158.008.314.011.472Z" transform="translate(-187.27 -275.5)"/><path class="cls-7" d="M437.977,666.719V646.677c10.374,0,18.784,8.762,18.784,19.571,0,.158-.008.314-.011.472Z" transform="translate(-187.27 -275.5)"/></g><g class="cls-12"><path class="cls-7" d="M252.042,659.906H219.355a31.824,31.824,0,0,1,31.918-31.729c.258,0,.513.013.769.019Z" transform="translate(-187.27 -275.5)"/></g><g class="cls-13"><path class="cls-7" d="M304.772,675.429H284.73c0,10.374,8.762,18.784,19.571,18.784.158,0,.314-.008.472-.011Z" transform="translate(-187.27 -275.5)"/><path class="cls-7" d="M304.772,713H284.73c0-10.374,8.762-18.784,19.571-18.784.158,0,.314.008.472.011Z" transform="translate(-187.27 -275.5)"/></g><rect class="cls-4" x="111.316" y="390.393" width="5.523" height="9.536"/><rect class="cls-4" x="35.425" y="586.7" width="4.639" height="8.462"/><g class="cls-14"><path class="cls-7" d="M221.236,861.97h20.042c0-10.374-8.762-18.784-19.571-18.784-.158,0-.314.008-.472.011Z" transform="translate(-187.27 -275.5)"/><path class="cls-7" d="M221.236,824.4h20.042c0,10.374-8.762,18.784-19.571,18.784-.158,0-.314-.008-.472-.011Z" transform="translate(-187.27 -275.5)"/></g><g class="cls-15"><path class="cls-7" d="M415.94,721.037v26.546c-13.414,0-24.288-11.605-24.288-25.921,0-.21.01-.416.015-.625Z" transform="translate(-187.27 -275.5)"/><path class="cls-7" d="M379.266,721.037v13.129c6.634,0,12.012-5.74,12.012-12.82,0-.1-.005-.206-.007-.309Z" transform="translate(-187.27 -275.5)"/></g><polygon class="cls-4" points="228.832 446.587 228.832 451.083 377.894 451.083 377.894 453.075 383.564 453.075 383.564 451.083 383.564 451.083 383.564 446.587 228.832 446.587"/><g class="cls-16"><path class="cls-7" d="M570.833,728.575H543.614c0,13.71,11.9,24.824,26.579,24.824.215,0,.427-.011.641-.015Z" transform="translate(-187.27 -275.5)"/></g><g class="cls-17"><path class="cls-7" d="M612.247,728.575h27.219c0,13.71-11.9,24.824-26.579,24.824-.215,0-.427-.011-.641-.015Z" transform="translate(-187.27 -275.5)"/></g><rect class="cls-4" x="426.061" y="477.9" width="5.669" height="18.267"/><g class="cls-18"><path class="cls-7" d="M613.331,769.839v21.478c-10.819,0-19.588-9.39-19.588-20.973,0-.17.008-.337.012-.505Z" transform="translate(-187.27 -275.5)"/></g><polygon class="cls-4" points="549.605 446 426.061 446 426.061 451.451 426.061 453.167 431.73 453.167 431.73 451.451 549.605 451.451 549.605 446"/><polygon class="cls-4" points="584.058 446 569.605 446 569.605 451.451 573.776 451.451 573.776 595.375 579.445 595.375 579.445 451.451 584.058 451.451 584.058 446"/><rect class="cls-4" x="602.842" y="446" width="140.952" height="5.451"/><rect class="cls-4" x="781.363" y="446" width="98.297" height="5.451"/><g class="cls-19"><path class="cls-7" d="M756.333,719.909v20.042c-10.374,0-18.784-8.762-18.784-19.571,0-.158.008-.314.011-.472Z" transform="translate(-187.27 -275.5)"/><path class="cls-7" d="M771.328,719.787V739.83c10.374,0,18.784-8.762,18.784-19.571,0-.158-.008-.314-.011-.472Z" transform="translate(-187.27 -275.5)"/></g><g class="cls-20"><path class="cls-7" d="M968.565,720.489v26.546c-13.414,0-24.288-11.605-24.288-25.921,0-.21.01-.416.015-.625Z" transform="translate(-187.27 -275.5)"/><path class="cls-7" d="M931.891,720.489v13.129c6.634,0,12.012-5.74,12.012-12.82,0-.1-.005-.206-.007-.309Z" transform="translate(-187.27 -275.5)"/></g><g class="cls-21"><path class="cls-7" d="M1066.911,719.605v20.042c10.129,0,18.34-8.762,18.34-19.571,0-.158-.008-.314-.011-.472Z" transform="translate(-187.27 -275.5)"/><path class="cls-7" d="M1103.59,719.605v20.042c-10.129,0-18.34-8.762-18.34-19.571,0-.158.008-.314.011-.472Z" transform="translate(-187.27 -275.5)"/></g><g class="cls-22"><path class="cls-7" d="M1102.544,694h24a23.187,23.187,0,0,1-23.435,22.93c-.189,0-.376-.01-.565-.014Z" transform="translate(-187.27 -275.5)"/></g></svg>